%TF.GenerationSoftware,KiCad,Pcbnew,10.0.4*%
%TF.CreationDate,2026-08-10T16:35:19+01:00*%
%TF.ProjectId,pallorhb_ppg,70616c6c-6f72-4686-925f-7070672e6b69,rev?*%
%TF.SameCoordinates,Original*%
%TF.FileFunction,Other,Comment*%
%FSLAX46Y46*%
G04 Gerber Fmt 4.6, Leading zero omitted, Abs format (unit mm)*
G04 Created by KiCad (PCBNEW 10.0.4) date 2026-08-10 16:35:19*
%MOMM*%
%LPD*%
G01*
G04 APERTURE LIST*
%ADD10C,0.150000*%
G04 APERTURE END LIST*
D10*
X6228094Y4405180D02*
X6228094Y5405180D01*
X6799522Y4405180D02*
X6370951Y4976609D01*
X6799522Y5405180D02*
X6228094Y4833752D01*
X7609046Y4452800D02*
X7513808Y4405180D01*
X7513808Y4405180D02*
X7323332Y4405180D01*
X7323332Y4405180D02*
X7228094Y4452800D01*
X7228094Y4452800D02*
X7180475Y4548038D01*
X7180475Y4548038D02*
X7180475Y4928990D01*
X7180475Y4928990D02*
X7228094Y5024228D01*
X7228094Y5024228D02*
X7323332Y5071847D01*
X7323332Y5071847D02*
X7513808Y5071847D01*
X7513808Y5071847D02*
X7609046Y5024228D01*
X7609046Y5024228D02*
X7656665Y4928990D01*
X7656665Y4928990D02*
X7656665Y4833752D01*
X7656665Y4833752D02*
X7180475Y4738514D01*
X8466189Y4452800D02*
X8370951Y4405180D01*
X8370951Y4405180D02*
X8180475Y4405180D01*
X8180475Y4405180D02*
X8085237Y4452800D01*
X8085237Y4452800D02*
X8037618Y4548038D01*
X8037618Y4548038D02*
X8037618Y4928990D01*
X8037618Y4928990D02*
X8085237Y5024228D01*
X8085237Y5024228D02*
X8180475Y5071847D01*
X8180475Y5071847D02*
X8370951Y5071847D01*
X8370951Y5071847D02*
X8466189Y5024228D01*
X8466189Y5024228D02*
X8513808Y4928990D01*
X8513808Y4928990D02*
X8513808Y4833752D01*
X8513808Y4833752D02*
X8037618Y4738514D01*
X8942380Y5071847D02*
X8942380Y4071847D01*
X8942380Y5024228D02*
X9037618Y5071847D01*
X9037618Y5071847D02*
X9228094Y5071847D01*
X9228094Y5071847D02*
X9323332Y5024228D01*
X9323332Y5024228D02*
X9370951Y4976609D01*
X9370951Y4976609D02*
X9418570Y4881371D01*
X9418570Y4881371D02*
X9418570Y4595657D01*
X9418570Y4595657D02*
X9370951Y4500419D01*
X9370951Y4500419D02*
X9323332Y4452800D01*
X9323332Y4452800D02*
X9228094Y4405180D01*
X9228094Y4405180D02*
X9037618Y4405180D01*
X9037618Y4405180D02*
X8942380Y4452800D01*
X9989999Y4405180D02*
X9894761Y4452800D01*
X9894761Y4452800D02*
X9847142Y4500419D01*
X9847142Y4500419D02*
X9799523Y4595657D01*
X9799523Y4595657D02*
X9799523Y4881371D01*
X9799523Y4881371D02*
X9847142Y4976609D01*
X9847142Y4976609D02*
X9894761Y5024228D01*
X9894761Y5024228D02*
X9989999Y5071847D01*
X9989999Y5071847D02*
X10132856Y5071847D01*
X10132856Y5071847D02*
X10228094Y5024228D01*
X10228094Y5024228D02*
X10275713Y4976609D01*
X10275713Y4976609D02*
X10323332Y4881371D01*
X10323332Y4881371D02*
X10323332Y4595657D01*
X10323332Y4595657D02*
X10275713Y4500419D01*
X10275713Y4500419D02*
X10228094Y4452800D01*
X10228094Y4452800D02*
X10132856Y4405180D01*
X10132856Y4405180D02*
X9989999Y4405180D01*
X11180475Y5071847D02*
X11180475Y4405180D01*
X10751904Y5071847D02*
X10751904Y4548038D01*
X10751904Y4548038D02*
X10799523Y4452800D01*
X10799523Y4452800D02*
X10894761Y4405180D01*
X10894761Y4405180D02*
X11037618Y4405180D01*
X11037618Y4405180D02*
X11132856Y4452800D01*
X11132856Y4452800D02*
X11180475Y4500419D01*
X11513809Y5071847D02*
X11894761Y5071847D01*
X11656666Y5405180D02*
X11656666Y4548038D01*
X11656666Y4548038D02*
X11704285Y4452800D01*
X11704285Y4452800D02*
X11799523Y4405180D01*
X11799523Y4405180D02*
X11894761Y4405180D01*
X12942381Y4690895D02*
X13418571Y4690895D01*
X12847143Y4405180D02*
X13180476Y5405180D01*
X13180476Y5405180D02*
X13513809Y4405180D01*
X13847143Y4405180D02*
X13847143Y5071847D01*
X13847143Y4881371D02*
X13894762Y4976609D01*
X13894762Y4976609D02*
X13942381Y5024228D01*
X13942381Y5024228D02*
X14037619Y5071847D01*
X14037619Y5071847D02*
X14132857Y5071847D01*
X14847143Y4452800D02*
X14751905Y4405180D01*
X14751905Y4405180D02*
X14561429Y4405180D01*
X14561429Y4405180D02*
X14466191Y4452800D01*
X14466191Y4452800D02*
X14418572Y4548038D01*
X14418572Y4548038D02*
X14418572Y4928990D01*
X14418572Y4928990D02*
X14466191Y5024228D01*
X14466191Y5024228D02*
X14561429Y5071847D01*
X14561429Y5071847D02*
X14751905Y5071847D01*
X14751905Y5071847D02*
X14847143Y5024228D01*
X14847143Y5024228D02*
X14894762Y4928990D01*
X14894762Y4928990D02*
X14894762Y4833752D01*
X14894762Y4833752D02*
X14418572Y4738514D01*
X15751905Y4405180D02*
X15751905Y4928990D01*
X15751905Y4928990D02*
X15704286Y5024228D01*
X15704286Y5024228D02*
X15609048Y5071847D01*
X15609048Y5071847D02*
X15418572Y5071847D01*
X15418572Y5071847D02*
X15323334Y5024228D01*
X15751905Y4452800D02*
X15656667Y4405180D01*
X15656667Y4405180D02*
X15418572Y4405180D01*
X15418572Y4405180D02*
X15323334Y4452800D01*
X15323334Y4452800D02*
X15275715Y4548038D01*
X15275715Y4548038D02*
X15275715Y4643276D01*
X15275715Y4643276D02*
X15323334Y4738514D01*
X15323334Y4738514D02*
X15418572Y4786133D01*
X15418572Y4786133D02*
X15656667Y4786133D01*
X15656667Y4786133D02*
X15751905Y4833752D01*
X8238095Y-2994104D02*
X8714285Y-2994104D01*
X8142857Y-3279819D02*
X8476190Y-2279819D01*
X8476190Y-2279819D02*
X8809523Y-3279819D01*
X9142857Y-2613152D02*
X9142857Y-3279819D01*
X9142857Y-2708390D02*
X9190476Y-2660771D01*
X9190476Y-2660771D02*
X9285714Y-2613152D01*
X9285714Y-2613152D02*
X9428571Y-2613152D01*
X9428571Y-2613152D02*
X9523809Y-2660771D01*
X9523809Y-2660771D02*
X9571428Y-2756009D01*
X9571428Y-2756009D02*
X9571428Y-3279819D01*
X9904762Y-2613152D02*
X10285714Y-2613152D01*
X10047619Y-2279819D02*
X10047619Y-3136961D01*
X10047619Y-3136961D02*
X10095238Y-3232200D01*
X10095238Y-3232200D02*
X10190476Y-3279819D01*
X10190476Y-3279819D02*
X10285714Y-3279819D01*
X11000000Y-3232200D02*
X10904762Y-3279819D01*
X10904762Y-3279819D02*
X10714286Y-3279819D01*
X10714286Y-3279819D02*
X10619048Y-3232200D01*
X10619048Y-3232200D02*
X10571429Y-3136961D01*
X10571429Y-3136961D02*
X10571429Y-2756009D01*
X10571429Y-2756009D02*
X10619048Y-2660771D01*
X10619048Y-2660771D02*
X10714286Y-2613152D01*
X10714286Y-2613152D02*
X10904762Y-2613152D01*
X10904762Y-2613152D02*
X11000000Y-2660771D01*
X11000000Y-2660771D02*
X11047619Y-2756009D01*
X11047619Y-2756009D02*
X11047619Y-2851247D01*
X11047619Y-2851247D02*
X10571429Y-2946485D01*
X11476191Y-2613152D02*
X11476191Y-3279819D01*
X11476191Y-2708390D02*
X11523810Y-2660771D01*
X11523810Y-2660771D02*
X11619048Y-2613152D01*
X11619048Y-2613152D02*
X11761905Y-2613152D01*
X11761905Y-2613152D02*
X11857143Y-2660771D01*
X11857143Y-2660771D02*
X11904762Y-2756009D01*
X11904762Y-2756009D02*
X11904762Y-3279819D01*
X12380953Y-2613152D02*
X12380953Y-3279819D01*
X12380953Y-2708390D02*
X12428572Y-2660771D01*
X12428572Y-2660771D02*
X12523810Y-2613152D01*
X12523810Y-2613152D02*
X12666667Y-2613152D01*
X12666667Y-2613152D02*
X12761905Y-2660771D01*
X12761905Y-2660771D02*
X12809524Y-2756009D01*
X12809524Y-2756009D02*
X12809524Y-3279819D01*
X13714286Y-3279819D02*
X13714286Y-2756009D01*
X13714286Y-2756009D02*
X13666667Y-2660771D01*
X13666667Y-2660771D02*
X13571429Y-2613152D01*
X13571429Y-2613152D02*
X13380953Y-2613152D01*
X13380953Y-2613152D02*
X13285715Y-2660771D01*
X13714286Y-3232200D02*
X13619048Y-3279819D01*
X13619048Y-3279819D02*
X13380953Y-3279819D01*
X13380953Y-3279819D02*
X13285715Y-3232200D01*
X13285715Y-3232200D02*
X13238096Y-3136961D01*
X13238096Y-3136961D02*
X13238096Y-3041723D01*
X13238096Y-3041723D02*
X13285715Y-2946485D01*
X13285715Y-2946485D02*
X13380953Y-2898866D01*
X13380953Y-2898866D02*
X13619048Y-2898866D01*
X13619048Y-2898866D02*
X13714286Y-2851247D01*
M02*
