%TF.GenerationSoftware,KiCad,Pcbnew,10.0.4*%
%TF.CreationDate,2026-08-10T16:35:19+01:00*%
%TF.ProjectId,pallorhb_ppg,70616c6c-6f72-4686-925f-7070672e6b69,rev?*%
%TF.SameCoordinates,Original*%
%TF.FileFunction,Copper,L3,Inr*%
%TF.FilePolarity,Positive*%
%FSLAX46Y46*%
G04 Gerber Fmt 4.6, Leading zero omitted, Abs format (unit mm)*
G04 Created by KiCad (PCBNEW 10.0.4) date 2026-08-10 16:35:19*
%MOMM*%
%LPD*%
G01*
G04 APERTURE LIST*
%TA.AperFunction,ComponentPad*%
%ADD10R,1.700000X1.700000*%
%TD*%
%TA.AperFunction,ComponentPad*%
%ADD11C,1.700000*%
%TD*%
%TA.AperFunction,ComponentPad*%
%ADD12O,1.000000X2.100000*%
%TD*%
%TA.AperFunction,ComponentPad*%
%ADD13O,1.000000X1.600000*%
%TD*%
%TA.AperFunction,ViaPad*%
%ADD14C,0.600000*%
%TD*%
%TA.AperFunction,Conductor*%
%ADD15C,0.250000*%
%TD*%
%TA.AperFunction,Conductor*%
%ADD16C,0.200000*%
%TD*%
G04 APERTURE END LIST*
D10*
%TO.N,3V3_D*%
%TO.C,J201*%
X27000000Y-30000000D03*
D11*
%TO.N,TXD0*%
X27000000Y-32540000D03*
%TO.N,RXD0*%
X27000000Y-35080000D03*
%TO.N,GND*%
X27000000Y-37620000D03*
%TD*%
D12*
%TO.N,SHIELD*%
%TO.C,J101*%
X6680000Y-32370000D03*
D13*
X6680000Y-36550000D03*
D12*
X15320000Y-32370000D03*
D13*
X15320000Y-36550000D03*
%TD*%
D14*
%TO.N,ADC_CS*%
X2950000Y-18200000D03*
X31031800Y-22490800D03*
X24200000Y-21200000D03*
%TO.N,ADC_CS_R*%
X34784800Y-23020100D03*
X37441100Y-11649000D03*
%TO.N,GATE_850*%
X91367500Y-27765900D03*
X99357900Y-27116000D03*
%TO.N,LED850_K*%
X77768500Y-25318500D03*
X78524400Y-16110300D03*
X92390500Y-24104400D03*
%TO.N,GATE_810*%
X82896500Y-28050400D03*
X90765800Y-26617900D03*
%TO.N,LED810_K*%
X83609100Y-24000000D03*
X78436000Y-9829500D03*
%TO.N,ISET_SHARED*%
X65378600Y-27074800D03*
X71586500Y-3338300D03*
X69250000Y-27334600D03*
%TO.N,ISET_660*%
X76454300Y-6833700D03*
X69450000Y-26200000D03*
X77431200Y-22503000D03*
X64311900Y-26127400D03*
%TO.N,3V3_D*%
X833000Y-20888700D03*
X642100Y-27178200D03*
X30637300Y-14885100D03*
X24237300Y-23599900D03*
X27945500Y-25042600D03*
X27537300Y-13204600D03*
X5097100Y-7481700D03*
X33762400Y-31063600D03*
X29040800Y-27962200D03*
%TO.N,GND*%
X39497100Y-27243300D03*
X23991900Y-30493500D03*
X30396400Y-27822900D03*
X21912300Y-25299700D03*
X53404300Y-22195400D03*
X20215700Y-13630000D03*
X75500000Y-19522800D03*
X7720700Y-27178200D03*
X30572600Y-23699100D03*
X7420700Y-7481700D03*
X25257300Y-32964500D03*
X9120700Y-7481700D03*
X13342800Y-7481700D03*
X38893400Y-7533000D03*
X16509700Y-34197300D03*
X51474300Y-21435200D03*
X31022100Y-17945200D03*
X1955900Y-20805900D03*
X9846700Y-10024900D03*
X13817800Y-27661500D03*
X11291500Y-10039300D03*
X1428600Y-7077700D03*
X8082200Y-14643800D03*
X31162300Y-32260600D03*
X30753500Y-21261800D03*
X37706700Y-30953300D03*
X20313000Y-17809400D03*
X7668600Y-29671700D03*
X16237700Y-31302600D03*
X8088700Y-13622700D03*
X13942800Y-13313500D03*
X3912100Y-24828600D03*
X10214900Y-16215600D03*
X42607000Y-9614200D03*
X24955300Y-35792700D03*
X43361400Y-2033600D03*
X46277300Y-30049700D03*
X10575000Y-7462500D03*
X13749700Y-24135100D03*
X26760300Y-7446200D03*
X19464900Y-6583100D03*
X48613300Y-1390200D03*
X31022100Y-13479700D03*
X29947700Y-35480700D03*
X18948700Y-20327600D03*
X19056200Y-27661500D03*
X15042800Y-7481700D03*
X48527200Y-23260500D03*
X22233900Y-18491100D03*
X28210200Y-23697500D03*
X19212100Y-10039300D03*
X19808800Y-9203000D03*
%TO.N,CBL_AIN0N*%
X37868100Y-24000000D03*
X48918300Y-18488600D03*
%TO.N,AGND*%
X77952600Y-27285500D03*
X71372200Y-4403400D03*
X66092800Y-24138200D03*
X94938900Y-28886100D03*
X57036000Y-16214300D03*
X68500200Y-8796100D03*
X80344100Y-24190600D03*
X53873600Y-12600300D03*
X33347400Y-14919300D03*
X81917100Y-6343900D03*
X99125300Y-12820700D03*
X97597400Y-23692200D03*
X54280200Y-20150000D03*
X95450100Y-27178200D03*
X44447800Y-16264000D03*
X89786600Y-4206200D03*
X44484000Y-18671900D03*
X44521600Y-12763600D03*
X99125300Y-16949800D03*
X86850100Y-26801400D03*
X61911100Y-21435200D03*
X66104300Y-17369300D03*
X63740300Y-8166000D03*
X75661400Y-7407000D03*
X90693000Y-2206100D03*
X90655400Y-15044100D03*
X43200000Y-23200000D03*
X69051800Y-25021500D03*
X86982700Y-28886100D03*
X77764700Y-28886100D03*
X62494300Y-2218500D03*
X66271500Y-6645300D03*
X89742500Y-24000000D03*
X33383700Y-20231400D03*
%TO.N,USB_DM*%
X12920600Y-33733400D03*
X10214900Y-34852600D03*
%TO.N,ESP_USB_DP*%
X13162000Y-18522100D03*
X19309500Y-36410900D03*
%TO.N,VBUS*%
X33303000Y-7224500D03*
X32867300Y-32156100D03*
%TO.N,ESP_USB_DM*%
X18707800Y-32343300D03*
X11005200Y-18638900D03*
%TO.N,TIA_BIAS*%
X70700000Y-2200000D03*
X84960000Y-12900000D03*
%TO.N,TIA_N_IN*%
X67111800Y-14469200D03*
X68302800Y-15427700D03*
%TO.N,3V3_A*%
X69250000Y-28886100D03*
X44544900Y-21485500D03*
X27263400Y-20514500D03*
X68974000Y-7926900D03*
X27537300Y-18442700D03*
X66209800Y-2000000D03*
X41950000Y-16950000D03*
X60663500Y-27538500D03*
X90947300Y-22123500D03*
X40877600Y-15698600D03*
X53560700Y-21219800D03*
X31820100Y-13070600D03*
X90655400Y-16612000D03*
X98572200Y-24000000D03*
X40783600Y-11943900D03*
X31820100Y-18566500D03*
X65480100Y-29045700D03*
X80300000Y-22373900D03*
X64732100Y-14495000D03*
X67096600Y-2069800D03*
X40452400Y-21241300D03*
%TO.N,EN660*%
X44772200Y-10148600D03*
X65136300Y-28196600D03*
X2950000Y-12700000D03*
X70294400Y-6333100D03*
%TO.N,EN810*%
X5273600Y-13258000D03*
X58170500Y-24474500D03*
X54040300Y-9373400D03*
%TO.N,CBL_AIN0P*%
X37249000Y-21769800D03*
X48527200Y-10542700D03*
X47535800Y-18828900D03*
%TO.N,PROG*%
X25837100Y-9317600D03*
X29947700Y-33473500D03*
%TO.N,VBAT*%
X38839700Y-2585900D03*
X22003300Y-6583100D03*
X34660900Y-29687000D03*
%TO.N,CHG_STAT*%
X21205900Y-30862900D03*
X16885100Y-16616900D03*
%TO.N,ADC_CLKIN*%
X6645400Y-16472000D03*
X30911000Y-29569100D03*
%TO.N,ADC_CLKIN_R*%
X33000000Y-29970600D03*
X32642400Y-11892300D03*
%TO.N,TIA_BIAS_BUF*%
X63262700Y-4446300D03*
X63979800Y-19227600D03*
X92858900Y-18736000D03*
%TO.N,VLED*%
X40366900Y-6270700D03*
X69200000Y-21450000D03*
X44354800Y-23383300D03*
X73700000Y-20200000D03*
%TO.N,CBL_AIN1P*%
X96232700Y-13449100D03*
X40650600Y-28044900D03*
X44766400Y-14841900D03*
%TO.N,CBL_AIN1N*%
X96232700Y-16884900D03*
X39911700Y-13713500D03*
X37897400Y-30064500D03*
%TO.N,NTC_SNS*%
X7848900Y-16181600D03*
X44703000Y-11469400D03*
X69587000Y-9094200D03*
%TO.N,EN850*%
X43802600Y-7342300D03*
X3086600Y-14478700D03*
X68284700Y-9840800D03*
X71941900Y-22530300D03*
%TO.N,ISET_PWM*%
X83346500Y-1390200D03*
X7795700Y-18893600D03*
X55650000Y-5253200D03*
%TO.N,AIN1P*%
X39561700Y-26018800D03*
X38883000Y-20853100D03*
%TO.N,BOOT*%
X5097100Y-9406700D03*
X4306000Y-21453300D03*
%TO.N,ADC_SCLK*%
X31504300Y-23973800D03*
X13732200Y-22216800D03*
%TO.N,ADC_SCLK_R*%
X36571000Y-11871600D03*
X34745500Y-25192100D03*
%TO.N,VBAT_SNS*%
X22003300Y-9268800D03*
X31450000Y-11700000D03*
X5166700Y-10544900D03*
X26700000Y-10200000D03*
%TO.N,VSNS_LO*%
X22640300Y-21861300D03*
X23475100Y-10441000D03*
%TO.N,VLED_G*%
X35838700Y-4349900D03*
X33127600Y-25926800D03*
%TO.N,TXD0*%
X19463300Y-12448000D03*
%TO.N,RXD0*%
X24950400Y-9779500D03*
%TO.N,CC2*%
X20780500Y-28800500D03*
X12720600Y-32825100D03*
%TO.N,RESET*%
X2417400Y-26177400D03*
X5773400Y-7976900D03*
%TO.N,ISET_850*%
X73564800Y-23686600D03*
X93603900Y-22982800D03*
%TO.N,ANALOG_EN*%
X17700000Y-21200000D03*
X10195700Y-21660500D03*
X22956900Y-20462200D03*
X38893400Y-5214400D03*
X24509300Y-6583100D03*
%TO.N,LED660_K*%
X77408800Y-14924300D03*
X75531200Y-24032400D03*
%TO.N,ADC_SYNC_RESET*%
X13824800Y-15003100D03*
X38899800Y-15228500D03*
%TO.N,VBAT_SNS_EN*%
X18475400Y-21995800D03*
X11212100Y-9105800D03*
%TO.N,ADC_SDI*%
X2742600Y-19118400D03*
X31267400Y-26869600D03*
%TO.N,ADC_SDO*%
X5379000Y-17747000D03*
X35967000Y-14503900D03*
%TO.N,ADC_DRDY*%
X14200000Y-14200000D03*
X6514600Y-18177000D03*
X37441700Y-14621400D03*
%TO.N,GATE_660*%
X81097100Y-27932600D03*
X74243900Y-27939400D03*
%TO.N,ADC_SDI_R*%
X34744300Y-27248000D03*
X35093300Y-14486300D03*
%TD*%
%TO.N,ADC_CS*%
D15*
X7700000Y-19700000D02*
X17200000Y-19700000D01*
X5700000Y-18450000D02*
X6200000Y-18950000D01*
X6200000Y-18950000D02*
X6950000Y-18950000D01*
X18450000Y-20950000D02*
X18700000Y-20950000D01*
X6950000Y-18950000D02*
X7700000Y-19700000D01*
X18950000Y-21200000D02*
X24200000Y-21200000D01*
X4950000Y-18450000D02*
X5700000Y-18450000D01*
X18700000Y-20950000D02*
X18950000Y-21200000D01*
X2950000Y-18200000D02*
X4700000Y-18200000D01*
X4700000Y-18200000D02*
X4950000Y-18450000D01*
X17200000Y-19700000D02*
X18450000Y-20950000D01*
%TO.N,ADC_CS_R*%
D16*
X34784800Y-23020100D02*
X36795300Y-21009600D01*
X36795300Y-14241300D02*
X37441100Y-13595500D01*
X36795300Y-21009600D02*
X36795300Y-14241300D01*
X37441100Y-13595500D02*
X37441100Y-11649000D01*
%TO.N,ISET_SHARED*%
D15*
X65700000Y-27200000D02*
X65378600Y-27074800D01*
X69250000Y-27334600D02*
X68950000Y-27450000D01*
X66950000Y-27450000D02*
X66700000Y-27200000D01*
X66700000Y-27200000D02*
X65700000Y-27200000D01*
X68950000Y-27450000D02*
X66950000Y-27450000D01*
%TO.N,AGND*%
X44200000Y-18950000D02*
X44484000Y-18671900D01*
X43200000Y-19950000D02*
X44200000Y-18950000D01*
X43200000Y-23200000D02*
X43200000Y-19950000D01*
%TO.N,VBUS*%
D16*
X32460300Y-20306100D02*
X32460300Y-13783600D01*
X32359900Y-20406500D02*
X32460300Y-20306100D01*
X32867300Y-32156100D02*
X32359900Y-31648700D01*
X33303000Y-12940900D02*
X33303000Y-7224500D01*
X32359900Y-31648700D02*
X32359900Y-20406500D01*
X32460300Y-13783600D02*
X33303000Y-12940900D01*
%TO.N,TIA_BIAS*%
D15*
X79200000Y-8450000D02*
X76950000Y-6200000D01*
X81950000Y-9950000D02*
X81950000Y-8950000D01*
X76950000Y-6200000D02*
X76700000Y-6200000D01*
X76450000Y-5950000D02*
X75200000Y-5950000D01*
X70950000Y-2450000D02*
X70700000Y-2200000D01*
X84950000Y-12950000D02*
X81950000Y-9950000D01*
X75200000Y-5950000D02*
X71700000Y-2450000D01*
X76700000Y-6200000D02*
X76450000Y-5950000D01*
X71700000Y-2450000D02*
X70950000Y-2450000D01*
X81450000Y-8450000D02*
X79200000Y-8450000D01*
X81950000Y-8950000D02*
X81450000Y-8450000D01*
%TO.N,3V3_A*%
D16*
X40783600Y-20910100D02*
X40452400Y-21241300D01*
X40783600Y-15698600D02*
X40877600Y-15698600D01*
X40783600Y-11943900D02*
X40783600Y-15698600D01*
X40783600Y-15698600D02*
X40783600Y-20910100D01*
%TO.N,EN660*%
D15*
X69950000Y-6200000D02*
X70294400Y-6333100D01*
X2950000Y-12700000D02*
X4700000Y-12700000D01*
X39700000Y-5950000D02*
X40200000Y-5450000D01*
X4700000Y-12700000D02*
X4950000Y-12450000D01*
X69200000Y-5950000D02*
X69450000Y-6200000D01*
X26450000Y-6700000D02*
X28700000Y-6700000D01*
X15450000Y-12450000D02*
X19450000Y-8450000D01*
X29450000Y-5950000D02*
X39700000Y-5950000D01*
X28700000Y-6700000D02*
X29450000Y-5950000D01*
X24700000Y-8450000D02*
X26450000Y-6700000D01*
X19450000Y-8450000D02*
X24700000Y-8450000D01*
X40450000Y-5450000D02*
X40200000Y-5450000D01*
X44450000Y-9950000D02*
X44200000Y-9700000D01*
X55200000Y-5950000D02*
X69200000Y-5950000D01*
X44200000Y-9450000D02*
X41200000Y-6450000D01*
X41200000Y-6200000D02*
X40450000Y-5450000D01*
X4950000Y-12450000D02*
X15450000Y-12450000D01*
X44772200Y-10148600D02*
X44450000Y-9950000D01*
X54700000Y-5450000D02*
X55200000Y-5950000D01*
X69450000Y-6200000D02*
X69950000Y-6200000D01*
X41200000Y-6450000D02*
X41200000Y-6200000D01*
X44200000Y-9700000D02*
X44200000Y-9450000D01*
X40200000Y-5450000D02*
X54700000Y-5450000D01*
%TO.N,TIA_BIAS_BUF*%
X77450000Y-23200000D02*
X75950000Y-24700000D01*
X77700000Y-23200000D02*
X77450000Y-23200000D01*
X83200000Y-19950000D02*
X81450000Y-21700000D01*
X81450000Y-21700000D02*
X79200000Y-21700000D01*
X92858900Y-18736000D02*
X92700000Y-18950000D01*
X79200000Y-21700000D02*
X77700000Y-23200000D01*
X75950000Y-24700000D02*
X71450000Y-24700000D01*
X89200000Y-19950000D02*
X83200000Y-19950000D01*
X91450000Y-19450000D02*
X91200000Y-19700000D01*
X64200000Y-19200000D02*
X63979800Y-19227600D01*
X65950000Y-19200000D02*
X64200000Y-19200000D01*
X89450000Y-19700000D02*
X89200000Y-19950000D01*
X92450000Y-19200000D02*
X92200000Y-19200000D01*
X92700000Y-18950000D02*
X92450000Y-19200000D01*
X91950000Y-19450000D02*
X91450000Y-19450000D01*
X71450000Y-24700000D02*
X65950000Y-19200000D01*
X92200000Y-19200000D02*
X91950000Y-19450000D01*
X91200000Y-19700000D02*
X89450000Y-19700000D01*
%TO.N,VLED*%
X73450000Y-20450000D02*
X73450000Y-21200000D01*
X73700000Y-20200000D02*
X73450000Y-20450000D01*
X69450000Y-21700000D02*
X69200000Y-21450000D01*
X72950000Y-21700000D02*
X69450000Y-21700000D01*
X73450000Y-21200000D02*
X72950000Y-21700000D01*
%TO.N,AIN1P*%
D16*
X39561700Y-21531800D02*
X38883000Y-20853100D01*
X39561700Y-26018800D02*
X39561700Y-21531800D01*
%TO.N,RXD0*%
X24950400Y-9779500D02*
X24950400Y-32305800D01*
X24653700Y-33229000D02*
X26504700Y-35080000D01*
X26504700Y-35080000D02*
X27000000Y-35080000D01*
X24653700Y-32602500D02*
X24653700Y-33229000D01*
X24950400Y-32305800D02*
X24653700Y-32602500D01*
%TO.N,ANALOG_EN*%
D15*
X10450000Y-21700000D02*
X13200000Y-21700000D01*
X17450000Y-21450000D02*
X17700000Y-21200000D01*
X13450000Y-21450000D02*
X17450000Y-21450000D01*
X13200000Y-21700000D02*
X13450000Y-21450000D01*
X10195700Y-21660500D02*
X10450000Y-21700000D01*
%TO.N,LED660_K*%
D16*
X75531200Y-23531900D02*
X75531200Y-24032400D01*
X77408800Y-14924300D02*
X77408800Y-21654300D01*
X77408800Y-21654300D02*
X75531200Y-23531900D01*
%TO.N,ADC_SDO*%
D15*
X6200000Y-17450000D02*
X13450000Y-17450000D01*
X32950000Y-6450000D02*
X33450000Y-6450000D01*
X34200000Y-11450000D02*
X35450000Y-12700000D01*
X35700000Y-14200000D02*
X35967000Y-14503900D01*
X5700000Y-17700000D02*
X5950000Y-17700000D01*
X21200000Y-11700000D02*
X23200000Y-9700000D01*
X5950000Y-17700000D02*
X6200000Y-17450000D01*
X23950000Y-9700000D02*
X24700000Y-8950000D01*
X35450000Y-13700000D02*
X35700000Y-13950000D01*
X35450000Y-12700000D02*
X35450000Y-13700000D01*
X34200000Y-7200000D02*
X34200000Y-11450000D01*
X23200000Y-9700000D02*
X23950000Y-9700000D01*
X24700000Y-8950000D02*
X25200000Y-8950000D01*
X19200000Y-11700000D02*
X21200000Y-11700000D01*
X25200000Y-8950000D02*
X25700000Y-8450000D01*
X25700000Y-8450000D02*
X30950000Y-8450000D01*
X13450000Y-17450000D02*
X19200000Y-11700000D01*
X35700000Y-13950000D02*
X35700000Y-14200000D01*
X5379000Y-17747000D02*
X5700000Y-17700000D01*
X30950000Y-8450000D02*
X32950000Y-6450000D01*
X33450000Y-6450000D02*
X34200000Y-7200000D01*
%TD*%
M02*
