%TF.GenerationSoftware,KiCad,Pcbnew,10.0.4*%
%TF.CreationDate,2026-08-10T16:35:19+01:00*%
%TF.ProjectId,pallorhb_ppg,70616c6c-6f72-4686-925f-7070672e6b69,rev?*%
%TF.SameCoordinates,Original*%
%TF.FileFunction,Other,User*%
%FSLAX46Y46*%
G04 Gerber Fmt 4.6, Leading zero omitted, Abs format (unit mm)*
G04 Created by KiCad (PCBNEW 10.0.4) date 2026-08-10 16:35:19*
%MOMM*%
%LPD*%
G01*
G04 APERTURE LIST*
%ADD10C,0.050000*%
G04 APERTURE END LIST*
%TO.C,R302*%
D10*
X31520000Y-22270000D02*
X34480000Y-22270000D01*
X34480000Y-23730000D01*
X31520000Y-23730000D01*
X31520000Y-22270000D01*
%TO.C,Q503*%
X91270000Y-22500000D02*
X92300000Y-22500000D01*
X91270000Y-23610000D02*
X91270000Y-22500000D01*
X91270000Y-24390000D02*
X92300000Y-24390000D01*
X91270000Y-25500000D02*
X91270000Y-24390000D01*
X92300000Y-22300000D02*
X94100000Y-22300000D01*
X92300000Y-22500000D02*
X92300000Y-22300000D01*
X92300000Y-23610000D02*
X91270000Y-23610000D01*
X92300000Y-24390000D02*
X92300000Y-23610000D01*
X92300000Y-25500000D02*
X91270000Y-25500000D01*
X92300000Y-25700000D02*
X92300000Y-25500000D01*
X94100000Y-22300000D02*
X94100000Y-23450000D01*
X94100000Y-23450000D02*
X95130000Y-23450000D01*
X94100000Y-24550000D02*
X94100000Y-25700000D01*
X94100000Y-25700000D02*
X92300000Y-25700000D01*
X95130000Y-23450000D02*
X95130000Y-24550000D01*
X95130000Y-24550000D02*
X94100000Y-24550000D01*
%TO.C,Q502*%
X82670000Y-22500000D02*
X83700000Y-22500000D01*
X82670000Y-23610000D02*
X82670000Y-22500000D01*
X82670000Y-24390000D02*
X83700000Y-24390000D01*
X82670000Y-25500000D02*
X82670000Y-24390000D01*
X83700000Y-22300000D02*
X85500000Y-22300000D01*
X83700000Y-22500000D02*
X83700000Y-22300000D01*
X83700000Y-23610000D02*
X82670000Y-23610000D01*
X83700000Y-24390000D02*
X83700000Y-23610000D01*
X83700000Y-25500000D02*
X82670000Y-25500000D01*
X83700000Y-25700000D02*
X83700000Y-25500000D01*
X85500000Y-22300000D02*
X85500000Y-23450000D01*
X85500000Y-23450000D02*
X86530000Y-23450000D01*
X85500000Y-24550000D02*
X85500000Y-25700000D01*
X85500000Y-25700000D02*
X83700000Y-25700000D01*
X86530000Y-23450000D02*
X86530000Y-24550000D01*
X86530000Y-24550000D02*
X85500000Y-24550000D01*
%TO.C,C501*%
X79390000Y-28340000D02*
X81210000Y-28340000D01*
X81210000Y-29260000D01*
X79390000Y-29260000D01*
X79390000Y-28340000D01*
%TO.C,R514*%
X61270000Y-26170000D02*
X64230000Y-26170000D01*
X64230000Y-27630000D01*
X61270000Y-27630000D01*
X61270000Y-26170000D01*
%TO.C,C202*%
X24550000Y-22770000D02*
X27950000Y-22770000D01*
X27950000Y-24730000D01*
X24550000Y-24730000D01*
X24550000Y-22770000D01*
%TO.C,D201*%
X14520000Y-24270000D02*
X17480000Y-24270000D01*
X17480000Y-25730000D01*
X14520000Y-25730000D01*
X14520000Y-24270000D01*
%TO.C,C406*%
X62290000Y-20840000D02*
X63210000Y-20840000D01*
X63210000Y-22660000D01*
X62290000Y-22660000D01*
X62290000Y-20840000D01*
%TO.C,U101*%
X16950000Y-32750000D02*
X17950000Y-32750000D01*
X16950000Y-35750000D02*
X16950000Y-32750000D01*
X17950000Y-32550000D02*
X20050000Y-32550000D01*
X17950000Y-32750000D02*
X17950000Y-32550000D01*
X17950000Y-35750000D02*
X16950000Y-35750000D01*
X17950000Y-35950000D02*
X17950000Y-35750000D01*
X20050000Y-32550000D02*
X20050000Y-32750000D01*
X20050000Y-32750000D02*
X21050000Y-32750000D01*
X20050000Y-35750000D02*
X20050000Y-35950000D01*
X20050000Y-35950000D02*
X17950000Y-35950000D01*
X21050000Y-32750000D02*
X21050000Y-35750000D01*
X21050000Y-35750000D02*
X20050000Y-35750000D01*
%TO.C,U401*%
X63100000Y-13950000D02*
X63300000Y-13950000D01*
X63100000Y-16050000D02*
X63100000Y-13950000D01*
X63300000Y-12950000D02*
X64410000Y-12950000D01*
X63300000Y-13950000D02*
X63300000Y-12950000D01*
X63300000Y-16050000D02*
X63100000Y-16050000D01*
X63300000Y-17050000D02*
X63300000Y-16050000D01*
X64410000Y-12950000D02*
X64410000Y-13950000D01*
X64410000Y-13950000D02*
X65190000Y-13950000D01*
X65190000Y-12950000D02*
X66300000Y-12950000D01*
X65190000Y-13950000D02*
X65190000Y-12950000D01*
X66300000Y-12950000D02*
X66300000Y-13950000D01*
X66300000Y-13950000D02*
X66500000Y-13950000D01*
X66300000Y-16050000D02*
X66300000Y-17050000D01*
X66300000Y-17050000D02*
X63300000Y-17050000D01*
X66500000Y-13950000D02*
X66500000Y-16050000D01*
X66500000Y-16050000D02*
X66300000Y-16050000D01*
%TO.C,Q504*%
X73070000Y-4500000D02*
X74100000Y-4500000D01*
X73070000Y-5610000D02*
X73070000Y-4500000D01*
X73070000Y-6390000D02*
X74100000Y-6390000D01*
X73070000Y-7500000D02*
X73070000Y-6390000D01*
X74100000Y-4300000D02*
X75900000Y-4300000D01*
X74100000Y-4500000D02*
X74100000Y-4300000D01*
X74100000Y-5610000D02*
X73070000Y-5610000D01*
X74100000Y-6390000D02*
X74100000Y-5610000D01*
X74100000Y-7500000D02*
X73070000Y-7500000D01*
X74100000Y-7700000D02*
X74100000Y-7500000D01*
X75900000Y-4300000D02*
X75900000Y-5450000D01*
X75900000Y-5450000D02*
X76930000Y-5450000D01*
X75900000Y-6550000D02*
X75900000Y-7700000D01*
X75900000Y-7700000D02*
X74100000Y-7700000D01*
X76930000Y-5450000D02*
X76930000Y-6550000D01*
X76930000Y-6550000D02*
X75900000Y-6550000D01*
%TO.C,R515*%
X65770000Y-26170000D02*
X68730000Y-26170000D01*
X68730000Y-27630000D01*
X65770000Y-27630000D01*
X65770000Y-26170000D01*
%TO.C,R105*%
X29520000Y-5520000D02*
X32480000Y-5520000D01*
X32480000Y-6980000D01*
X29520000Y-6980000D01*
X29520000Y-5520000D01*
%TO.C,C503*%
X96590000Y-28340000D02*
X98410000Y-28340000D01*
X98410000Y-29260000D01*
X96590000Y-29260000D01*
X96590000Y-28340000D01*
%TO.C,Q505*%
X65320000Y-22500000D02*
X66350000Y-22500000D01*
X65320000Y-23610000D02*
X65320000Y-22500000D01*
X65320000Y-24390000D02*
X66350000Y-24390000D01*
X65320000Y-25500000D02*
X65320000Y-24390000D01*
X66350000Y-22300000D02*
X68150000Y-22300000D01*
X66350000Y-22500000D02*
X66350000Y-22300000D01*
X66350000Y-23610000D02*
X65320000Y-23610000D01*
X66350000Y-24390000D02*
X66350000Y-23610000D01*
X66350000Y-25500000D02*
X65320000Y-25500000D01*
X66350000Y-25700000D02*
X66350000Y-25500000D01*
X68150000Y-22300000D02*
X68150000Y-23450000D01*
X68150000Y-23450000D02*
X69180000Y-23450000D01*
X68150000Y-24550000D02*
X68150000Y-25700000D01*
X68150000Y-25700000D02*
X66350000Y-25700000D01*
X69180000Y-23450000D02*
X69180000Y-24550000D01*
X69180000Y-24550000D02*
X68150000Y-24550000D01*
%TO.C,U402*%
X89000000Y-13950000D02*
X89200000Y-13950000D01*
X89000000Y-16050000D02*
X89000000Y-13950000D01*
X89200000Y-12950000D02*
X92200000Y-12950000D01*
X89200000Y-13950000D02*
X89200000Y-12950000D01*
X89200000Y-16050000D02*
X89000000Y-16050000D01*
X89200000Y-17050000D02*
X89200000Y-16050000D01*
X90310000Y-16050000D02*
X90310000Y-17050000D01*
X90310000Y-17050000D02*
X89200000Y-17050000D01*
X91090000Y-16050000D02*
X90310000Y-16050000D01*
X91090000Y-17050000D02*
X91090000Y-16050000D01*
X92200000Y-12950000D02*
X92200000Y-13950000D01*
X92200000Y-13950000D02*
X92400000Y-13950000D01*
X92200000Y-16050000D02*
X92200000Y-17050000D01*
X92200000Y-17050000D02*
X91090000Y-17050000D01*
X92400000Y-13950000D02*
X92400000Y-16050000D01*
X92400000Y-16050000D02*
X92200000Y-16050000D01*
%TO.C,R409*%
X35520000Y-22270000D02*
X38480000Y-22270000D01*
X38480000Y-23730000D01*
X35520000Y-23730000D01*
X35520000Y-22270000D01*
%TO.C,U102*%
X30300000Y-32400000D02*
X37700000Y-32400000D01*
X37700000Y-37600000D01*
X30300000Y-37600000D01*
X30300000Y-32400000D01*
%TO.C,R513*%
X87420000Y-1270000D02*
X90380000Y-1270000D01*
X90380000Y-2730000D01*
X87420000Y-2730000D01*
X87420000Y-1270000D01*
%TO.C,R107*%
X27520000Y-20270000D02*
X30480000Y-20270000D01*
X30480000Y-21730000D01*
X27520000Y-21730000D01*
X27520000Y-20270000D01*
%TO.C,C102*%
X21300000Y-32020000D02*
X24700000Y-32020000D01*
X24700000Y-33980000D01*
X21300000Y-33980000D01*
X21300000Y-32020000D01*
%TO.C,R402*%
X89270000Y-11270000D02*
X92230000Y-11270000D01*
X92230000Y-12730000D01*
X89270000Y-12730000D01*
X89270000Y-11270000D01*
%TO.C,R520*%
X39770000Y-26270000D02*
X42730000Y-26270000D01*
X42730000Y-27730000D01*
X39770000Y-27730000D01*
X39770000Y-26270000D01*
%TO.C,R305*%
X31520000Y-28270000D02*
X34480000Y-28270000D01*
X34480000Y-29730000D01*
X31520000Y-29730000D01*
X31520000Y-28270000D01*
%TO.C,R103*%
X23520000Y-7270000D02*
X26480000Y-7270000D01*
X26480000Y-8730000D01*
X23520000Y-8730000D01*
X23520000Y-7270000D01*
%TO.C,R509*%
X91520000Y-25950000D02*
X94880000Y-25950000D01*
X94880000Y-27850000D01*
X91520000Y-27850000D01*
X91520000Y-25950000D01*
%TO.C,R502*%
X87420000Y-26170000D02*
X90380000Y-26170000D01*
X90380000Y-27630000D01*
X87420000Y-27630000D01*
X87420000Y-26170000D01*
%TO.C,C104*%
X39550000Y-1270000D02*
X42950000Y-1270000D01*
X42950000Y-3230000D01*
X39550000Y-3230000D01*
X39550000Y-1270000D01*
%TO.C,R517*%
X61270000Y-28070000D02*
X64230000Y-28070000D01*
X64230000Y-29530000D01*
X61270000Y-29530000D01*
X61270000Y-28070000D01*
%TO.C,C504*%
X86590000Y-4040000D02*
X88410000Y-4040000D01*
X88410000Y-4960000D01*
X86590000Y-4960000D01*
X86590000Y-4040000D01*
%TO.C,C404*%
X64090000Y-6040000D02*
X65910000Y-6040000D01*
X65910000Y-6960000D01*
X64090000Y-6960000D01*
X64090000Y-6040000D01*
%TO.C,R406*%
X62020000Y-17520000D02*
X63480000Y-17520000D01*
X63480000Y-20480000D01*
X62020000Y-20480000D01*
X62020000Y-17520000D01*
%TO.C,J202*%
X44800000Y-5450000D02*
X45900000Y-5450000D01*
X44800000Y-24550000D02*
X44800000Y-5450000D01*
X45900000Y-3500000D02*
X47500000Y-3500000D01*
X45900000Y-5450000D02*
X45900000Y-3500000D01*
X45900000Y-24550000D02*
X44800000Y-24550000D01*
X45900000Y-26500000D02*
X45900000Y-24550000D01*
X47500000Y-3400000D02*
X51200000Y-3400000D01*
X47500000Y-3500000D02*
X47500000Y-3400000D01*
X47500000Y-26500000D02*
X45900000Y-26500000D01*
X47500000Y-26600000D02*
X47500000Y-26500000D01*
X50950000Y-5400000D02*
X50950000Y-24600000D01*
X50950000Y-24600000D02*
X51200000Y-24600000D01*
X51200000Y-3400000D02*
X51200000Y-5400000D01*
X51200000Y-5400000D02*
X50950000Y-5400000D01*
X51200000Y-24600000D02*
X51200000Y-26600000D01*
X51200000Y-26600000D02*
X47500000Y-26600000D01*
%TO.C,R401*%
X63520000Y-11270000D02*
X66480000Y-11270000D01*
X66480000Y-12730000D01*
X63520000Y-12730000D01*
X63520000Y-11270000D01*
%TO.C,D502*%
X73800000Y-9050000D02*
X77800000Y-9050000D01*
X77800000Y-12950000D01*
X73800000Y-12950000D01*
X73800000Y-9050000D01*
%TO.C,C410*%
X40340000Y-24540000D02*
X42160000Y-24540000D01*
X42160000Y-25460000D01*
X40340000Y-25460000D01*
X40340000Y-24540000D01*
%TO.C,C502*%
X87990000Y-28340000D02*
X89810000Y-28340000D01*
X89810000Y-29260000D01*
X87990000Y-29260000D01*
X87990000Y-28340000D01*
%TO.C,D101*%
X27500000Y-7250000D02*
X34500000Y-7250000D01*
X27500000Y-10750000D02*
X27500000Y-7250000D01*
X34500000Y-7250000D02*
X34500000Y-10750000D01*
X34500000Y-10750000D02*
X27500000Y-10750000D01*
%TO.C,SW201*%
X4750000Y-23000000D02*
X13250000Y-23000000D01*
X4750000Y-29000000D02*
X4750000Y-23000000D01*
X13250000Y-23000000D02*
X13250000Y-29000000D01*
X13250000Y-29000000D02*
X4750000Y-29000000D01*
%TO.C,R303*%
X31520000Y-24270000D02*
X34480000Y-24270000D01*
X34480000Y-25730000D01*
X31520000Y-25730000D01*
X31520000Y-24270000D01*
%TO.C,C107*%
X20520000Y-16520000D02*
X21980000Y-16520000D01*
X21980000Y-19480000D01*
X20520000Y-19480000D01*
X20520000Y-16520000D01*
%TO.C,D401*%
X66650000Y-12150000D02*
X71350000Y-12150000D01*
X71350000Y-17850000D01*
X66650000Y-17850000D01*
X66650000Y-12150000D01*
%TO.C,R519*%
X69770000Y-28070000D02*
X72730000Y-28070000D01*
X72730000Y-29530000D01*
X69770000Y-29530000D01*
X69770000Y-28070000D01*
%TO.C,U404*%
X78250000Y-22500000D02*
X79250000Y-22500000D01*
X78250000Y-25500000D02*
X78250000Y-22500000D01*
X79250000Y-22300000D02*
X81350000Y-22300000D01*
X79250000Y-22500000D02*
X79250000Y-22300000D01*
X79250000Y-25500000D02*
X78250000Y-25500000D01*
X79250000Y-25700000D02*
X79250000Y-25500000D01*
X81350000Y-22300000D02*
X81350000Y-22500000D01*
X81350000Y-22500000D02*
X82350000Y-22500000D01*
X81350000Y-23610000D02*
X81350000Y-24390000D01*
X81350000Y-24390000D02*
X82350000Y-24390000D01*
X81350000Y-25500000D02*
X81350000Y-25700000D01*
X81350000Y-25700000D02*
X79250000Y-25700000D01*
X82350000Y-22500000D02*
X82350000Y-23610000D01*
X82350000Y-23610000D02*
X81350000Y-23610000D01*
X82350000Y-24390000D02*
X82350000Y-25500000D01*
X82350000Y-25500000D02*
X81350000Y-25500000D01*
%TO.C,R110*%
X19770000Y-9770000D02*
X22730000Y-9770000D01*
X22730000Y-11230000D01*
X19770000Y-11230000D01*
X19770000Y-9770000D01*
%TO.C,R505*%
X83120000Y-28070000D02*
X86080000Y-28070000D01*
X86080000Y-29530000D01*
X83120000Y-29530000D01*
X83120000Y-28070000D01*
%TO.C,C203*%
X28520000Y-24270000D02*
X31480000Y-24270000D01*
X31480000Y-25730000D01*
X28520000Y-25730000D01*
X28520000Y-24270000D01*
%TO.C,R410*%
X35520000Y-24270000D02*
X38480000Y-24270000D01*
X38480000Y-25730000D01*
X35520000Y-25730000D01*
X35520000Y-24270000D01*
%TO.C,R412*%
X35520000Y-28270000D02*
X38480000Y-28270000D01*
X38480000Y-29730000D01*
X35520000Y-29730000D01*
X35520000Y-28270000D01*
%TO.C,R202*%
X14520000Y-21270000D02*
X17480000Y-21270000D01*
X17480000Y-22730000D01*
X14520000Y-22730000D01*
X14520000Y-21270000D01*
%TO.C,R408*%
X93020000Y-16270000D02*
X95980000Y-16270000D01*
X95980000Y-17730000D01*
X93020000Y-17730000D01*
X93020000Y-16270000D01*
%TO.C,R108*%
X25020000Y-25270000D02*
X27980000Y-25270000D01*
X27980000Y-26730000D01*
X25020000Y-26730000D01*
X25020000Y-25270000D01*
%TO.C,R104*%
X30520000Y-30270000D02*
X33480000Y-30270000D01*
X33480000Y-31730000D01*
X30520000Y-31730000D01*
X30520000Y-30270000D01*
%TO.C,J102*%
X39400000Y-34940000D02*
X39550000Y-34940000D01*
X39400000Y-39350000D02*
X39400000Y-34940000D01*
X39550000Y-30550000D02*
X42000000Y-30550000D01*
X39550000Y-34940000D02*
X39550000Y-30550000D01*
X41900000Y-39150000D02*
X41900000Y-39350000D01*
X41900000Y-39350000D02*
X39400000Y-39350000D01*
X42000000Y-29150000D02*
X46000000Y-29150000D01*
X42000000Y-30550000D02*
X42000000Y-29150000D01*
X46000000Y-29150000D02*
X46000000Y-30550000D01*
X46000000Y-30550000D02*
X48450000Y-30550000D01*
X46100000Y-39150000D02*
X41900000Y-39150000D01*
X46100000Y-39350000D02*
X46100000Y-39150000D01*
X48450000Y-30550000D02*
X48450000Y-34940000D01*
X48450000Y-34940000D02*
X48600000Y-34940000D01*
X48600000Y-34940000D02*
X48600000Y-39350000D01*
X48600000Y-39350000D02*
X46100000Y-39350000D01*
%TO.C,R403*%
X68020000Y-1270000D02*
X70980000Y-1270000D01*
X70980000Y-2730000D01*
X68020000Y-2730000D01*
X68020000Y-1270000D01*
%TO.C,J201*%
X25230000Y-28230000D02*
X28770000Y-28230000D01*
X28770000Y-39390000D01*
X25230000Y-39390000D01*
X25230000Y-28230000D01*
%TO.C,R102*%
X19770000Y-29270000D02*
X22730000Y-29270000D01*
X22730000Y-30730000D01*
X19770000Y-30730000D01*
X19770000Y-29270000D01*
%TO.C,C101*%
X22090000Y-35540000D02*
X23910000Y-35540000D01*
X23910000Y-36460000D01*
X22090000Y-36460000D01*
X22090000Y-35540000D01*
%TO.C,R106*%
X44520000Y-1520000D02*
X47480000Y-1520000D01*
X47480000Y-2980000D01*
X44520000Y-2980000D01*
X44520000Y-1520000D01*
%TO.C,R404*%
X68020000Y-3770000D02*
X70980000Y-3770000D01*
X70980000Y-5230000D01*
X68020000Y-5230000D01*
X68020000Y-3770000D01*
%TO.C,C408*%
X96590000Y-16540000D02*
X98410000Y-16540000D01*
X98410000Y-17460000D01*
X96590000Y-17460000D01*
X96590000Y-16540000D01*
%TO.C,C201*%
X520000Y-24270000D02*
X3480000Y-24270000D01*
X3480000Y-25730000D01*
X520000Y-25730000D01*
X520000Y-24270000D01*
%TO.C,C402*%
X89840000Y-17540000D02*
X91660000Y-17540000D01*
X91660000Y-18460000D01*
X89840000Y-18460000D01*
X89840000Y-17540000D01*
%TO.C,C405*%
X62290000Y-7590000D02*
X63210000Y-7590000D01*
X63210000Y-9410000D01*
X62290000Y-9410000D01*
X62290000Y-7590000D01*
%TO.C,R405*%
X62020000Y-9520000D02*
X63480000Y-9520000D01*
X63480000Y-12480000D01*
X62020000Y-12480000D01*
X62020000Y-9520000D01*
%TO.C,U406*%
X95450000Y-22500000D02*
X96450000Y-22500000D01*
X95450000Y-25500000D02*
X95450000Y-22500000D01*
X96450000Y-22300000D02*
X98550000Y-22300000D01*
X96450000Y-22500000D02*
X96450000Y-22300000D01*
X96450000Y-25500000D02*
X95450000Y-25500000D01*
X96450000Y-25700000D02*
X96450000Y-25500000D01*
X98550000Y-22300000D02*
X98550000Y-22500000D01*
X98550000Y-22500000D02*
X99550000Y-22500000D01*
X98550000Y-23610000D02*
X98550000Y-24390000D01*
X98550000Y-24390000D02*
X99550000Y-24390000D01*
X98550000Y-25500000D02*
X98550000Y-25700000D01*
X98550000Y-25700000D02*
X96450000Y-25700000D01*
X99550000Y-22500000D02*
X99550000Y-23610000D01*
X99550000Y-23610000D02*
X98550000Y-23610000D01*
X99550000Y-24390000D02*
X99550000Y-25500000D01*
X99550000Y-25500000D02*
X98550000Y-25500000D01*
%TO.C,R516*%
X69770000Y-26170000D02*
X72730000Y-26170000D01*
X72730000Y-27630000D01*
X69770000Y-27630000D01*
X69770000Y-26170000D01*
%TO.C,Q103*%
X39320000Y-4750000D02*
X40350000Y-4750000D01*
X39320000Y-5860000D02*
X39320000Y-4750000D01*
X39320000Y-6640000D02*
X40350000Y-6640000D01*
X39320000Y-7750000D02*
X39320000Y-6640000D01*
X40350000Y-4550000D02*
X42150000Y-4550000D01*
X40350000Y-4750000D02*
X40350000Y-4550000D01*
X40350000Y-5860000D02*
X39320000Y-5860000D01*
X40350000Y-6640000D02*
X40350000Y-5860000D01*
X40350000Y-7750000D02*
X39320000Y-7750000D01*
X40350000Y-7950000D02*
X40350000Y-7750000D01*
X42150000Y-4550000D02*
X42150000Y-5700000D01*
X42150000Y-5700000D02*
X43180000Y-5700000D01*
X42150000Y-6800000D02*
X42150000Y-7950000D01*
X42150000Y-7950000D02*
X40350000Y-7950000D01*
X43180000Y-5700000D02*
X43180000Y-6800000D01*
X43180000Y-6800000D02*
X42150000Y-6800000D01*
%TO.C,D501*%
X73330000Y-13250000D02*
X77030000Y-13250000D01*
X77030000Y-16750000D01*
X73330000Y-16750000D01*
X73330000Y-13250000D01*
%TO.C,R507*%
X74320000Y-25950000D02*
X77680000Y-25950000D01*
X77680000Y-27850000D01*
X74320000Y-27850000D01*
X74320000Y-25950000D01*
%TO.C,C105*%
X20520000Y-12520000D02*
X21980000Y-12520000D01*
X21980000Y-15480000D01*
X20520000Y-15480000D01*
X20520000Y-12520000D01*
%TO.C,U103*%
X22950000Y-12500000D02*
X23950000Y-12500000D01*
X22950000Y-15500000D02*
X22950000Y-12500000D01*
X23950000Y-12300000D02*
X26050000Y-12300000D01*
X23950000Y-12500000D02*
X23950000Y-12300000D01*
X23950000Y-15500000D02*
X22950000Y-15500000D01*
X23950000Y-15700000D02*
X23950000Y-15500000D01*
X26050000Y-12300000D02*
X26050000Y-12500000D01*
X26050000Y-12500000D02*
X27050000Y-12500000D01*
X26050000Y-13610000D02*
X26050000Y-14390000D01*
X26050000Y-14390000D02*
X27050000Y-14390000D01*
X26050000Y-15500000D02*
X26050000Y-15700000D01*
X26050000Y-15700000D02*
X23950000Y-15700000D01*
X27050000Y-12500000D02*
X27050000Y-13610000D01*
X27050000Y-13610000D02*
X26050000Y-13610000D01*
X27050000Y-14390000D02*
X27050000Y-15500000D01*
X27050000Y-15500000D02*
X26050000Y-15500000D01*
%TO.C,J101*%
X5680000Y-30230000D02*
X5680000Y-39650000D01*
X5680000Y-30230000D02*
X16320000Y-30230000D01*
X5680000Y-39650000D02*
X16320000Y-39650000D01*
X16320000Y-30230000D02*
X16320000Y-39650000D01*
%TO.C,U403*%
X62950000Y-500000D02*
X63950000Y-500000D01*
X62950000Y-3500000D02*
X62950000Y-500000D01*
X63950000Y-300000D02*
X66050000Y-300000D01*
X63950000Y-500000D02*
X63950000Y-300000D01*
X63950000Y-3500000D02*
X62950000Y-3500000D01*
X63950000Y-3700000D02*
X63950000Y-3500000D01*
X66050000Y-300000D02*
X66050000Y-500000D01*
X66050000Y-500000D02*
X67050000Y-500000D01*
X66050000Y-1610000D02*
X66050000Y-2390000D01*
X66050000Y-2390000D02*
X67050000Y-2390000D01*
X66050000Y-3500000D02*
X66050000Y-3700000D01*
X66050000Y-3700000D02*
X63950000Y-3700000D01*
X67050000Y-500000D02*
X67050000Y-1610000D01*
X67050000Y-1610000D02*
X66050000Y-1610000D01*
X67050000Y-2390000D02*
X67050000Y-3500000D01*
X67050000Y-3500000D02*
X66050000Y-3500000D01*
%TO.C,U405*%
X86850000Y-22500000D02*
X87850000Y-22500000D01*
X86850000Y-25500000D02*
X86850000Y-22500000D01*
X87850000Y-22300000D02*
X89950000Y-22300000D01*
X87850000Y-22500000D02*
X87850000Y-22300000D01*
X87850000Y-25500000D02*
X86850000Y-25500000D01*
X87850000Y-25700000D02*
X87850000Y-25500000D01*
X89950000Y-22300000D02*
X89950000Y-22500000D01*
X89950000Y-22500000D02*
X90950000Y-22500000D01*
X89950000Y-23610000D02*
X89950000Y-24390000D01*
X89950000Y-24390000D02*
X90950000Y-24390000D01*
X89950000Y-25500000D02*
X89950000Y-25700000D01*
X89950000Y-25700000D02*
X87850000Y-25700000D01*
X90950000Y-22500000D02*
X90950000Y-23610000D01*
X90950000Y-23610000D02*
X89950000Y-23610000D01*
X90950000Y-24390000D02*
X90950000Y-25500000D01*
X90950000Y-25500000D02*
X89950000Y-25500000D01*
%TO.C,C103*%
X34050000Y-30020000D02*
X37450000Y-30020000D01*
X37450000Y-31980000D01*
X34050000Y-31980000D01*
X34050000Y-30020000D01*
%TO.C,R301*%
X41020000Y-20270000D02*
X43980000Y-20270000D01*
X43980000Y-21730000D01*
X41020000Y-21730000D01*
X41020000Y-20270000D01*
%TO.C,R407*%
X93020000Y-12270000D02*
X95980000Y-12270000D01*
X95980000Y-13730000D01*
X93020000Y-13730000D01*
X93020000Y-12270000D01*
%TO.C,C409*%
X40340000Y-22540000D02*
X42160000Y-22540000D01*
X42160000Y-23460000D01*
X40340000Y-23460000D01*
X40340000Y-22540000D01*
%TO.C,C108*%
X28020000Y-16300000D02*
X29980000Y-16300000D01*
X29980000Y-19700000D01*
X28020000Y-19700000D01*
X28020000Y-16300000D01*
%TO.C,R508*%
X82920000Y-25950000D02*
X86280000Y-25950000D01*
X86280000Y-27850000D01*
X82920000Y-27850000D01*
X82920000Y-25950000D01*
%TO.C,C401*%
X64090000Y-17540000D02*
X65910000Y-17540000D01*
X65910000Y-18460000D01*
X64090000Y-18460000D01*
X64090000Y-17540000D01*
%TO.C,C407*%
X96590000Y-12540000D02*
X98410000Y-12540000D01*
X98410000Y-13460000D01*
X96590000Y-13460000D01*
X96590000Y-12540000D01*
%TO.C,C304*%
X41020000Y-18270000D02*
X43980000Y-18270000D01*
X43980000Y-19730000D01*
X41020000Y-19730000D01*
X41020000Y-18270000D01*
%TO.C,R101*%
X16520000Y-29270000D02*
X19480000Y-29270000D01*
X19480000Y-30730000D01*
X16520000Y-30730000D01*
X16520000Y-29270000D01*
%TO.C,U104*%
X22950000Y-16500000D02*
X23950000Y-16500000D01*
X22950000Y-19500000D02*
X22950000Y-16500000D01*
X23950000Y-16300000D02*
X26050000Y-16300000D01*
X23950000Y-16500000D02*
X23950000Y-16300000D01*
X23950000Y-19500000D02*
X22950000Y-19500000D01*
X23950000Y-19700000D02*
X23950000Y-19500000D01*
X26050000Y-16300000D02*
X26050000Y-16500000D01*
X26050000Y-16500000D02*
X27050000Y-16500000D01*
X26050000Y-17610000D02*
X26050000Y-18390000D01*
X26050000Y-18390000D02*
X27050000Y-18390000D01*
X26050000Y-19500000D02*
X26050000Y-19700000D01*
X26050000Y-19700000D02*
X23950000Y-19700000D01*
X27050000Y-16500000D02*
X27050000Y-17610000D01*
X27050000Y-17610000D02*
X26050000Y-17610000D01*
X27050000Y-18390000D02*
X27050000Y-19500000D01*
X27050000Y-19500000D02*
X26050000Y-19500000D01*
%TO.C,J401*%
X54300000Y-5450000D02*
X55400000Y-5450000D01*
X54300000Y-24550000D02*
X54300000Y-5450000D01*
X55400000Y-3500000D02*
X57000000Y-3500000D01*
X55400000Y-5450000D02*
X55400000Y-3500000D01*
X55400000Y-24550000D02*
X54300000Y-24550000D01*
X55400000Y-26500000D02*
X55400000Y-24550000D01*
X57000000Y-3400000D02*
X60700000Y-3400000D01*
X57000000Y-3500000D02*
X57000000Y-3400000D01*
X57000000Y-26500000D02*
X55400000Y-26500000D01*
X57000000Y-26600000D02*
X57000000Y-26500000D01*
X60450000Y-5400000D02*
X60450000Y-24600000D01*
X60450000Y-24600000D02*
X60700000Y-24600000D01*
X60700000Y-3400000D02*
X60700000Y-5400000D01*
X60700000Y-5400000D02*
X60450000Y-5400000D01*
X60700000Y-24600000D02*
X60700000Y-26600000D01*
X60700000Y-26600000D02*
X57000000Y-26600000D01*
%TO.C,R411*%
X35520000Y-26270000D02*
X38480000Y-26270000D01*
X38480000Y-27730000D01*
X35520000Y-27730000D01*
X35520000Y-26270000D01*
%TO.C,R203*%
X1020000Y-26270000D02*
X3980000Y-26270000D01*
X3980000Y-27730000D01*
X1020000Y-27730000D01*
X1020000Y-26270000D01*
%TO.C,C303*%
X41020000Y-16270000D02*
X43980000Y-16270000D01*
X43980000Y-17730000D01*
X41020000Y-17730000D01*
X41020000Y-16270000D01*
%TO.C,R109*%
X19770000Y-7270000D02*
X22730000Y-7270000D01*
X22730000Y-8730000D01*
X19770000Y-8730000D01*
X19770000Y-7270000D01*
%TO.C,Q104*%
X20070000Y-22000000D02*
X21100000Y-22000000D01*
X20070000Y-23110000D02*
X20070000Y-22000000D01*
X20070000Y-23890000D02*
X21100000Y-23890000D01*
X20070000Y-25000000D02*
X20070000Y-23890000D01*
X21100000Y-21800000D02*
X22900000Y-21800000D01*
X21100000Y-22000000D02*
X21100000Y-21800000D01*
X21100000Y-23110000D02*
X20070000Y-23110000D01*
X21100000Y-23890000D02*
X21100000Y-23110000D01*
X21100000Y-25000000D02*
X20070000Y-25000000D01*
X21100000Y-25200000D02*
X21100000Y-25000000D01*
X22900000Y-21800000D02*
X22900000Y-22950000D01*
X22900000Y-22950000D02*
X23930000Y-22950000D01*
X22900000Y-24050000D02*
X22900000Y-25200000D01*
X22900000Y-25200000D02*
X21100000Y-25200000D01*
X23930000Y-22950000D02*
X23930000Y-24050000D01*
X23930000Y-24050000D02*
X22900000Y-24050000D01*
%TO.C,D402*%
X84160000Y-12150000D02*
X88860000Y-12150000D01*
X88860000Y-17850000D01*
X84160000Y-17850000D01*
X84160000Y-12150000D01*
%TO.C,C403*%
X64800000Y-7520000D02*
X68200000Y-7520000D01*
X68200000Y-9480000D01*
X64800000Y-9480000D01*
X64800000Y-7520000D01*
%TO.C,C106*%
X28020000Y-12300000D02*
X29980000Y-12300000D01*
X29980000Y-15700000D01*
X28020000Y-15700000D01*
X28020000Y-12300000D01*
%TO.C,R518*%
X65770000Y-28070000D02*
X68730000Y-28070000D01*
X68730000Y-29530000D01*
X65770000Y-29530000D01*
X65770000Y-28070000D01*
%TO.C,Q102*%
X34570000Y-4750000D02*
X35600000Y-4750000D01*
X34570000Y-5860000D02*
X34570000Y-4750000D01*
X34570000Y-6640000D02*
X35600000Y-6640000D01*
X34570000Y-7750000D02*
X34570000Y-6640000D01*
X35600000Y-4550000D02*
X37400000Y-4550000D01*
X35600000Y-4750000D02*
X35600000Y-4550000D01*
X35600000Y-5860000D02*
X34570000Y-5860000D01*
X35600000Y-6640000D02*
X35600000Y-5860000D01*
X35600000Y-7750000D02*
X34570000Y-7750000D01*
X35600000Y-7950000D02*
X35600000Y-7750000D01*
X37400000Y-4550000D02*
X37400000Y-5700000D01*
X37400000Y-5700000D02*
X38430000Y-5700000D01*
X37400000Y-6800000D02*
X37400000Y-7950000D01*
X37400000Y-7950000D02*
X35600000Y-7950000D01*
X38430000Y-5700000D02*
X38430000Y-6800000D01*
X38430000Y-6800000D02*
X37400000Y-6800000D01*
%TO.C,C302*%
X41590000Y-14540000D02*
X43410000Y-14540000D01*
X43410000Y-15460000D01*
X41590000Y-15460000D01*
X41590000Y-14540000D01*
%TO.C,Q506*%
X69320000Y-22500000D02*
X70350000Y-22500000D01*
X69320000Y-23610000D02*
X69320000Y-22500000D01*
X69320000Y-24390000D02*
X70350000Y-24390000D01*
X69320000Y-25500000D02*
X69320000Y-24390000D01*
X70350000Y-22300000D02*
X72150000Y-22300000D01*
X70350000Y-22500000D02*
X70350000Y-22300000D01*
X70350000Y-23610000D02*
X69320000Y-23610000D01*
X70350000Y-24390000D02*
X70350000Y-23610000D01*
X70350000Y-25500000D02*
X69320000Y-25500000D01*
X70350000Y-25700000D02*
X70350000Y-25500000D01*
X72150000Y-22300000D02*
X72150000Y-23450000D01*
X72150000Y-23450000D02*
X73180000Y-23450000D01*
X72150000Y-24550000D02*
X72150000Y-25700000D01*
X72150000Y-25700000D02*
X70350000Y-25700000D01*
X73180000Y-23450000D02*
X73180000Y-24550000D01*
X73180000Y-24550000D02*
X72150000Y-24550000D01*
%TO.C,C111*%
X40340000Y-10040000D02*
X42160000Y-10040000D01*
X42160000Y-10960000D01*
X40340000Y-10960000D01*
X40340000Y-10040000D01*
%TO.C,U201*%
X-11700000Y14250000D02*
X33700000Y14250000D01*
X-11700000Y-5250000D02*
X-11700000Y14250000D01*
X3050000Y-5250000D02*
X-11700000Y-5250000D01*
X3050000Y-21000000D02*
X3050000Y-5250000D01*
X18950000Y-5250000D02*
X18950000Y-21000000D01*
X18950000Y-5250000D02*
X33700000Y-5250000D01*
X18950000Y-21000000D02*
X3050000Y-21000000D01*
X33700000Y-5250000D02*
X33700000Y14250000D01*
%TO.C,C110*%
X74020000Y-16770000D02*
X76980000Y-16770000D01*
X76980000Y-18230000D01*
X74020000Y-18230000D01*
X74020000Y-16770000D01*
%TO.C,C109*%
X73200000Y-18650000D02*
X77800000Y-18650000D01*
X77800000Y-20950000D01*
X73200000Y-20950000D01*
X73200000Y-18650000D01*
%TO.C,Q101*%
X34570000Y-750000D02*
X35600000Y-750000D01*
X34570000Y-1860000D02*
X34570000Y-750000D01*
X34570000Y-2640000D02*
X35600000Y-2640000D01*
X34570000Y-3750000D02*
X34570000Y-2640000D01*
X35600000Y-550000D02*
X37400000Y-550000D01*
X35600000Y-750000D02*
X35600000Y-550000D01*
X35600000Y-1860000D02*
X34570000Y-1860000D01*
X35600000Y-2640000D02*
X35600000Y-1860000D01*
X35600000Y-3750000D02*
X34570000Y-3750000D01*
X35600000Y-3950000D02*
X35600000Y-3750000D01*
X37400000Y-550000D02*
X37400000Y-1700000D01*
X37400000Y-1700000D02*
X38430000Y-1700000D01*
X37400000Y-2800000D02*
X37400000Y-3950000D01*
X37400000Y-3950000D02*
X35600000Y-3950000D01*
X38430000Y-1700000D02*
X38430000Y-2800000D01*
X38430000Y-2800000D02*
X37400000Y-2800000D01*
%TO.C,R501*%
X78820000Y-26170000D02*
X81780000Y-26170000D01*
X81780000Y-27630000D01*
X78820000Y-27630000D01*
X78820000Y-26170000D01*
%TO.C,R506*%
X91720000Y-28070000D02*
X94680000Y-28070000D01*
X94680000Y-29530000D01*
X91720000Y-29530000D01*
X91720000Y-28070000D01*
%TO.C,U301*%
X32250000Y-13550000D02*
X32370000Y-13550000D01*
X32250000Y-18450000D02*
X32250000Y-13550000D01*
X32370000Y-12150000D02*
X39130000Y-12150000D01*
X32370000Y-13550000D02*
X32370000Y-12150000D01*
X32370000Y-18450000D02*
X32250000Y-18450000D01*
X32370000Y-19850000D02*
X32370000Y-18450000D01*
X39130000Y-12150000D02*
X39130000Y-13550000D01*
X39130000Y-13550000D02*
X39250000Y-13550000D01*
X39130000Y-18450000D02*
X39130000Y-19850000D01*
X39130000Y-19850000D02*
X32370000Y-19850000D01*
X39250000Y-13550000D02*
X39250000Y-18450000D01*
X39250000Y-18450000D02*
X39130000Y-18450000D01*
%TO.C,R504*%
X74520000Y-28070000D02*
X77480000Y-28070000D01*
X77480000Y-29530000D01*
X74520000Y-29530000D01*
X74520000Y-28070000D01*
%TO.C,C204*%
X29090000Y-26540000D02*
X30910000Y-26540000D01*
X30910000Y-27460000D01*
X29090000Y-27460000D01*
X29090000Y-26540000D01*
%TO.C,R304*%
X31520000Y-26270000D02*
X34480000Y-26270000D01*
X34480000Y-27730000D01*
X31520000Y-27730000D01*
X31520000Y-26270000D01*
%TO.C,R503*%
X96020000Y-26170000D02*
X98980000Y-26170000D01*
X98980000Y-27630000D01*
X96020000Y-27630000D01*
X96020000Y-26170000D01*
%TO.C,R413*%
X69770000Y-6770000D02*
X72730000Y-6770000D01*
X72730000Y-8230000D01*
X69770000Y-8230000D01*
X69770000Y-6770000D01*
%TO.C,C301*%
X41020000Y-12270000D02*
X43980000Y-12270000D01*
X43980000Y-13730000D01*
X41020000Y-13730000D01*
X41020000Y-12270000D01*
%TO.C,Q501*%
X74070000Y-22500000D02*
X75100000Y-22500000D01*
X74070000Y-23610000D02*
X74070000Y-22500000D01*
X74070000Y-24390000D02*
X75100000Y-24390000D01*
X74070000Y-25500000D02*
X74070000Y-24390000D01*
X75100000Y-22300000D02*
X76900000Y-22300000D01*
X75100000Y-22500000D02*
X75100000Y-22300000D01*
X75100000Y-23610000D02*
X74070000Y-23610000D01*
X75100000Y-24390000D02*
X75100000Y-23610000D01*
X75100000Y-25500000D02*
X74070000Y-25500000D01*
X75100000Y-25700000D02*
X75100000Y-25500000D01*
X76900000Y-22300000D02*
X76900000Y-23450000D01*
X76900000Y-23450000D02*
X77930000Y-23450000D01*
X76900000Y-24550000D02*
X76900000Y-25700000D01*
X76900000Y-25700000D02*
X75100000Y-25700000D01*
X77930000Y-23450000D02*
X77930000Y-24550000D01*
X77930000Y-24550000D02*
X76900000Y-24550000D01*
%TO.C,R201*%
X520000Y-21270000D02*
X3480000Y-21270000D01*
X3480000Y-22730000D01*
X520000Y-22730000D01*
X520000Y-21270000D01*
%TO.C,R510*%
X84020000Y-1270000D02*
X86980000Y-1270000D01*
X86980000Y-2730000D01*
X84020000Y-2730000D01*
X84020000Y-1270000D01*
%TO.C,RT401*%
X78820000Y-6770000D02*
X81780000Y-6770000D01*
X81780000Y-8230000D01*
X78820000Y-8230000D01*
X78820000Y-6770000D01*
%TD*%
M02*
