M48
; DRILL file KiCad 10.0.4 date 2026-08-10T16:35:19
; FORMAT={-:-/ absolute / metric / decimal}
; #@! TF.CreationDate,2026-08-10T16:35:19+01:00
; #@! TF.GenerationSoftware,Kicad,Pcbnew,10.0.4
; #@! TF.FileFunction,MixedPlating,1,6
FMAT,2
METRIC
; #@! TA.AperFunction,Plated,PTH,ViaDrill
T1C0.300
; #@! TA.AperFunction,Plated,PTH,ComponentDrill
T2C0.600
; #@! TA.AperFunction,Plated,PTH,ComponentDrill
T3C1.000
; #@! TA.AperFunction,NonPlated,NPTH,ComponentDrill
T4C0.650
%
G90
G05
T1
X0.642Y-27.178
X0.833Y-20.889
X1.429Y-7.078
X1.956Y-20.806
X2.417Y-26.177
X2.743Y-19.118
X2.95Y-12.7
X2.95Y-18.2
X3.087Y-14.479
X3.912Y-24.829
X4.306Y-21.453
X5.097Y-7.482
X5.097Y-9.407
X5.167Y-10.545
X5.274Y-13.258
X5.379Y-17.747
X5.773Y-7.977
X6.515Y-18.177
X6.645Y-16.472
X7.421Y-7.482
X7.669Y-29.672
X7.721Y-27.178
X7.796Y-18.894
X7.849Y-16.182
X8.082Y-14.644
X8.089Y-13.623
X9.121Y-7.482
X9.847Y-10.025
X10.196Y-21.66
X10.215Y-16.216
X10.215Y-34.853
X10.575Y-7.462
X11.005Y-18.639
X11.212Y-9.106
X11.291Y-10.039
X12.721Y-32.825
X12.921Y-33.733
X13.162Y-18.522
X13.343Y-7.482
X13.732Y-22.217
X13.75Y-24.135
X13.818Y-27.662
X13.825Y-15.003
X13.943Y-13.313
X14.2Y-14.2
X15.043Y-7.482
X16.238Y-31.303
X16.51Y-34.197
X16.885Y-16.617
X17.7Y-21.2
X18.475Y-21.996
X18.708Y-32.343
X18.949Y-20.328
X19.056Y-27.662
X19.212Y-10.039
X19.309Y-36.411
X19.463Y-12.448
X19.465Y-6.583
X19.809Y-9.203
X20.216Y-13.63
X20.313Y-17.809
X20.78Y-28.8
X21.206Y-30.863
X21.912Y-25.3
X22.003Y-6.583
X22.003Y-9.269
X22.234Y-18.491
X22.64Y-21.861
X22.957Y-20.462
X23.475Y-10.441
X23.992Y-30.493
X24.2Y-21.2
X24.237Y-23.6
X24.509Y-6.583
X24.95Y-9.779
X24.955Y-35.793
X25.257Y-32.965
X25.837Y-9.318
X26.7Y-10.2
X26.76Y-7.446
X27.263Y-20.514
X27.537Y-13.205
X27.537Y-18.443
X27.945Y-25.043
X28.21Y-23.697
X29.041Y-27.962
X29.948Y-33.474
X29.948Y-35.481
X30.396Y-27.823
X30.573Y-23.699
X30.637Y-14.885
X30.753Y-21.262
X30.911Y-29.569
X31.022Y-13.48
X31.022Y-17.945
X31.032Y-22.491
X31.162Y-32.261
X31.267Y-26.87
X31.45Y-11.7
X31.504Y-23.974
X31.82Y-13.071
X31.82Y-18.566
X32.642Y-11.892
X32.867Y-32.156
X33.0Y-29.971
X33.128Y-25.927
X33.303Y-7.224
X33.347Y-14.919
X33.384Y-20.231
X33.762Y-31.064
X34.661Y-29.687
X34.744Y-27.248
X34.745Y-25.192
X34.785Y-23.02
X35.093Y-14.486
X35.839Y-4.35
X35.967Y-14.504
X36.571Y-11.872
X37.249Y-21.77
X37.441Y-11.649
X37.442Y-14.621
X37.707Y-30.953
X37.868Y-24.0
X37.897Y-30.064
X38.84Y-2.586
X38.883Y-20.853
X38.893Y-5.214
X38.893Y-7.533
X38.9Y-15.228
X39.497Y-27.243
X39.562Y-26.019
X39.912Y-13.713
X40.367Y-6.271
X40.452Y-21.241
X40.651Y-28.045
X40.784Y-11.944
X40.878Y-15.699
X41.95Y-16.95
X42.607Y-9.614
X43.2Y-23.2
X43.361Y-2.034
X43.803Y-7.342
X44.355Y-23.383
X44.448Y-16.264
X44.484Y-18.672
X44.522Y-12.764
X44.545Y-21.485
X44.703Y-11.469
X44.766Y-14.842
X44.772Y-10.149
X46.277Y-30.05
X47.536Y-18.829
X48.527Y-10.543
X48.527Y-23.261
X48.613Y-1.39
X48.918Y-18.489
X51.474Y-21.435
X53.404Y-22.195
X53.561Y-21.22
X53.874Y-12.6
X54.04Y-9.373
X54.28Y-20.15
X55.65Y-5.253
X57.036Y-16.214
X58.17Y-24.474
X60.663Y-27.538
X61.911Y-21.435
X62.494Y-2.218
X63.263Y-4.446
X63.74Y-8.166
X63.98Y-19.228
X64.312Y-26.127
X64.732Y-14.495
X65.136Y-28.197
X65.379Y-27.075
X65.48Y-29.046
X66.093Y-24.138
X66.104Y-17.369
X66.21Y-2.0
X66.272Y-6.645
X67.097Y-2.07
X67.112Y-14.469
X68.285Y-9.841
X68.303Y-15.428
X68.5Y-8.796
X68.974Y-7.927
X69.052Y-25.021
X69.2Y-21.45
X69.25Y-27.335
X69.25Y-28.886
X69.45Y-26.2
X69.587Y-9.094
X70.294Y-6.333
X70.7Y-2.2
X71.372Y-4.403
X71.587Y-3.338
X71.942Y-22.53
X73.565Y-23.687
X73.7Y-20.2
X74.244Y-27.939
X75.5Y-19.523
X75.531Y-24.032
X75.661Y-7.407
X76.454Y-6.834
X77.409Y-14.924
X77.431Y-22.503
X77.765Y-28.886
X77.769Y-25.319
X77.953Y-27.285
X78.436Y-9.829
X78.524Y-16.11
X80.3Y-22.374
X80.344Y-24.191
X81.097Y-27.933
X81.917Y-6.344
X82.897Y-28.05
X83.346Y-1.39
X83.609Y-24.0
X84.96Y-12.9
X86.85Y-26.801
X86.983Y-28.886
X89.742Y-24.0
X89.787Y-4.206
X90.655Y-15.044
X90.655Y-16.612
X90.693Y-2.206
X90.766Y-26.618
X90.947Y-22.123
X91.367Y-27.766
X92.39Y-24.104
X92.859Y-18.736
X93.604Y-22.983
X94.939Y-28.886
X95.45Y-27.178
X96.233Y-13.449
X96.233Y-16.885
X97.597Y-23.692
X98.572Y-24.0
X99.125Y-12.821
X99.125Y-16.95
X99.358Y-27.116
T3
X27.0Y-30.0
X27.0Y-32.54
X27.0Y-35.08
X27.0Y-37.62
T4
X8.11Y-32.9
X13.89Y-32.9
T2
X6.68Y-31.82G85X6.68Y-32.92
G05
X6.68Y-36.25G85X6.68Y-36.85
G05
X15.32Y-31.82G85X15.32Y-32.92
G05
X15.32Y-36.25G85X15.32Y-36.85
G05
M30
