%TF.GenerationSoftware,KiCad,Pcbnew,10.0.4*%
%TF.CreationDate,2026-08-10T16:35:19+01:00*%
%TF.ProjectId,pallorhb_ppg,70616c6c-6f72-4686-925f-7070672e6b69,rev?*%
%TF.SameCoordinates,Original*%
%TF.FileFunction,Copper,L1,Top*%
%TF.FilePolarity,Positive*%
%FSLAX46Y46*%
G04 Gerber Fmt 4.6, Leading zero omitted, Abs format (unit mm)*
G04 Created by KiCad (PCBNEW 10.0.4) date 2026-08-10 16:35:19*
%MOMM*%
%LPD*%
G01*
G04 APERTURE LIST*
G04 Aperture macros list*
%AMRoundRect*
0 Rectangle with rounded corners*
0 $1 Rounding radius*
0 $2 $3 $4 $5 $6 $7 $8 $9 X,Y pos of 4 corners*
0 Add a 4 corners polygon primitive as box body*
4,1,4,$2,$3,$4,$5,$6,$7,$8,$9,$2,$3,0*
0 Add four circle primitives for the rounded corners*
1,1,$1+$1,$2,$3*
1,1,$1+$1,$4,$5*
1,1,$1+$1,$6,$7*
1,1,$1+$1,$8,$9*
0 Add four rect primitives between the rounded corners*
20,1,$1+$1,$2,$3,$4,$5,0*
20,1,$1+$1,$4,$5,$6,$7,0*
20,1,$1+$1,$6,$7,$8,$9,0*
20,1,$1+$1,$8,$9,$2,$3,0*%
%AMOutline5P*
0 Free polygon, 5 corners , with rotation*
0 The origin of the aperture is its center*
0 number of corners: always 5*
0 $1 to $10 corner X, Y*
0 $11 Rotation angle, in degrees counterclockwise*
0 create outline with 5 corners*
4,1,5,$1,$2,$3,$4,$5,$6,$7,$8,$9,$10,$1,$2,$11*%
%AMOutline6P*
0 Free polygon, 6 corners , with rotation*
0 The origin of the aperture is its center*
0 number of corners: always 6*
0 $1 to $12 corner X, Y*
0 $13 Rotation angle, in degrees counterclockwise*
0 create outline with 6 corners*
4,1,6,$1,$2,$3,$4,$5,$6,$7,$8,$9,$10,$11,$12,$1,$2,$13*%
%AMOutline7P*
0 Free polygon, 7 corners , with rotation*
0 The origin of the aperture is its center*
0 number of corners: always 7*
0 $1 to $14 corner X, Y*
0 $15 Rotation angle, in degrees counterclockwise*
0 create outline with 7 corners*
4,1,7,$1,$2,$3,$4,$5,$6,$7,$8,$9,$10,$11,$12,$13,$14,$1,$2,$15*%
%AMOutline8P*
0 Free polygon, 8 corners , with rotation*
0 The origin of the aperture is its center*
0 number of corners: always 8*
0 $1 to $16 corner X, Y*
0 $17 Rotation angle, in degrees counterclockwise*
0 create outline with 8 corners*
4,1,8,$1,$2,$3,$4,$5,$6,$7,$8,$9,$10,$11,$12,$13,$14,$15,$16,$1,$2,$17*%
G04 Aperture macros list end*
%TA.AperFunction,SMDPad,CuDef*%
%ADD10RoundRect,0.200000X-0.200000X-0.275000X0.200000X-0.275000X0.200000X0.275000X-0.200000X0.275000X0*%
%TD*%
%TA.AperFunction,SMDPad,CuDef*%
%ADD11RoundRect,0.150000X-0.587500X-0.150000X0.587500X-0.150000X0.587500X0.150000X-0.587500X0.150000X0*%
%TD*%
%TA.AperFunction,SMDPad,CuDef*%
%ADD12RoundRect,0.140000X-0.140000X-0.170000X0.140000X-0.170000X0.140000X0.170000X-0.140000X0.170000X0*%
%TD*%
%TA.AperFunction,SMDPad,CuDef*%
%ADD13RoundRect,0.250000X-0.250000X-0.475000X0.250000X-0.475000X0.250000X0.475000X-0.250000X0.475000X0*%
%TD*%
%TA.AperFunction,SMDPad,CuDef*%
%ADD14RoundRect,0.218750X-0.218750X-0.256250X0.218750X-0.256250X0.218750X0.256250X-0.218750X0.256250X0*%
%TD*%
%TA.AperFunction,SMDPad,CuDef*%
%ADD15RoundRect,0.140000X0.170000X-0.140000X0.170000X0.140000X-0.170000X0.140000X-0.170000X-0.140000X0*%
%TD*%
%TA.AperFunction,SMDPad,CuDef*%
%ADD16RoundRect,0.150000X-0.512500X-0.150000X0.512500X-0.150000X0.512500X0.150000X-0.512500X0.150000X0*%
%TD*%
%TA.AperFunction,SMDPad,CuDef*%
%ADD17RoundRect,0.150000X0.150000X-0.512500X0.150000X0.512500X-0.150000X0.512500X-0.150000X-0.512500X0*%
%TD*%
%TA.AperFunction,SMDPad,CuDef*%
%ADD18RoundRect,0.150000X-0.150000X0.512500X-0.150000X-0.512500X0.150000X-0.512500X0.150000X0.512500X0*%
%TD*%
%TA.AperFunction,SMDPad,CuDef*%
%ADD19RoundRect,0.150000X-0.625000X-0.150000X0.625000X-0.150000X0.625000X0.150000X-0.625000X0.150000X0*%
%TD*%
%TA.AperFunction,SMDPad,CuDef*%
%ADD20R,2.300000X3.000000*%
%TD*%
%TA.AperFunction,SMDPad,CuDef*%
%ADD21RoundRect,0.250000X-0.262500X-0.450000X0.262500X-0.450000X0.262500X0.450000X-0.262500X0.450000X0*%
%TD*%
%TA.AperFunction,SMDPad,CuDef*%
%ADD22RoundRect,0.200000X0.275000X-0.200000X0.275000X0.200000X-0.275000X0.200000X-0.275000X-0.200000X0*%
%TD*%
%TA.AperFunction,SMDPad,CuDef*%
%ADD23RoundRect,0.150000X0.700000X-0.150000X0.700000X0.150000X-0.700000X0.150000X-0.700000X-0.150000X0*%
%TD*%
%TA.AperFunction,SMDPad,CuDef*%
%ADD24RoundRect,0.250000X1.100000X-0.250000X1.100000X0.250000X-1.100000X0.250000X-1.100000X-0.250000X0*%
%TD*%
%TA.AperFunction,SMDPad,CuDef*%
%ADD25RoundRect,0.060000X-0.240000X-1.590000X0.240000X-1.590000X0.240000X1.590000X-0.240000X1.590000X0*%
%TD*%
%TA.AperFunction,SMDPad,CuDef*%
%ADD26RoundRect,0.050000X-0.200000X-1.600000X0.200000X-1.600000X0.200000X1.600000X-0.200000X1.600000X0*%
%TD*%
%TA.AperFunction,SMDPad,CuDef*%
%ADD27RoundRect,0.100000X-0.400000X-1.550000X0.400000X-1.550000X0.400000X1.550000X-0.400000X1.550000X0*%
%TD*%
%TA.AperFunction,SMDPad,CuDef*%
%ADD28RoundRect,0.250000X-1.000000X-0.650000X1.000000X-0.650000X1.000000X0.650000X-1.000000X0.650000X0*%
%TD*%
%TA.AperFunction,SMDPad,CuDef*%
%ADD29R,1.700000X1.000000*%
%TD*%
%TA.AperFunction,SMDPad,CuDef*%
%ADD30RoundRect,0.225000X0.250000X-0.225000X0.250000X0.225000X-0.250000X0.225000X-0.250000X-0.225000X0*%
%TD*%
%TA.AperFunction,SMDPad,CuDef*%
%ADD31RoundRect,0.250000X-0.250000X-0.250000X0.250000X-0.250000X0.250000X0.250000X-0.250000X0.250000X0*%
%TD*%
%TA.AperFunction,SMDPad,CuDef*%
%ADD32RoundRect,0.225000X-0.225000X-0.250000X0.225000X-0.250000X0.225000X0.250000X-0.225000X0.250000X0*%
%TD*%
%TA.AperFunction,SMDPad,CuDef*%
%ADD33RoundRect,0.250000X-0.250000X-1.500000X0.250000X-1.500000X0.250000X1.500000X-0.250000X1.500000X0*%
%TD*%
%TA.AperFunction,SMDPad,CuDef*%
%ADD34RoundRect,0.250001X-0.499999X-1.449999X0.499999X-1.449999X0.499999X1.449999X-0.499999X1.449999X0*%
%TD*%
%TA.AperFunction,ComponentPad*%
%ADD35R,1.700000X1.700000*%
%TD*%
%TA.AperFunction,ComponentPad*%
%ADD36C,1.700000*%
%TD*%
%TA.AperFunction,SMDPad,CuDef*%
%ADD37RoundRect,0.097500X-0.792500X-0.390000X0.792500X-0.390000X0.792500X0.390000X-0.792500X0.390000X0*%
%TD*%
%TA.AperFunction,SMDPad,CuDef*%
%ADD38RoundRect,0.090000X-0.425000X-0.360000X0.425000X-0.360000X0.425000X0.360000X-0.425000X0.360000X0*%
%TD*%
%TA.AperFunction,SMDPad,CuDef*%
%ADD39RoundRect,0.150000X-0.150000X-0.575000X0.150000X-0.575000X0.150000X0.575000X-0.150000X0.575000X0*%
%TD*%
%TA.AperFunction,SMDPad,CuDef*%
%ADD40RoundRect,0.075000X-0.075000X-0.650000X0.075000X-0.650000X0.075000X0.650000X-0.075000X0.650000X0*%
%TD*%
%TA.AperFunction,ComponentPad*%
%ADD41O,1.000000X2.100000*%
%TD*%
%TA.AperFunction,ComponentPad*%
%ADD42O,1.000000X1.600000*%
%TD*%
%TA.AperFunction,SMDPad,CuDef*%
%ADD43RoundRect,0.250000X0.475000X-0.250000X0.475000X0.250000X-0.475000X0.250000X-0.475000X-0.250000X0*%
%TD*%
%TA.AperFunction,SMDPad,CuDef*%
%ADD44R,0.800000X0.400000*%
%TD*%
%TA.AperFunction,SMDPad,CuDef*%
%ADD45R,0.400000X0.800000*%
%TD*%
%TA.AperFunction,HeatsinkPad*%
%ADD46Outline5P,-0.600000X0.204000X-0.204000X0.600000X0.600000X0.600000X0.600000X-0.600000X-0.600000X-0.600000X0.000000*%
%TD*%
%TA.AperFunction,HeatsinkPad*%
%ADD47R,1.200000X1.200000*%
%TD*%
%TA.AperFunction,SMDPad,CuDef*%
%ADD48R,0.800000X0.800000*%
%TD*%
%TA.AperFunction,SMDPad,CuDef*%
%ADD49RoundRect,0.250000X-0.325000X-0.650000X0.325000X-0.650000X0.325000X0.650000X-0.325000X0.650000X0*%
%TD*%
%TA.AperFunction,SMDPad,CuDef*%
%ADD50RoundRect,0.100000X0.100000X-0.637500X0.100000X0.637500X-0.100000X0.637500X-0.100000X-0.637500X0*%
%TD*%
%TA.AperFunction,ViaPad*%
%ADD51C,0.600000*%
%TD*%
%TA.AperFunction,Conductor*%
%ADD52C,0.250000*%
%TD*%
%TA.AperFunction,Conductor*%
%ADD53C,0.200000*%
%TD*%
G04 APERTURE END LIST*
D10*
%TO.P,R302,1*%
%TO.N,ADC_CS*%
X32175000Y-23000000D03*
%TO.P,R302,2*%
%TO.N,ADC_CS_R*%
X33825000Y-23000000D03*
%TD*%
D11*
%TO.P,Q503,1*%
%TO.N,GATE_850*%
X92262500Y-23050000D03*
%TO.P,Q503,2*%
%TO.N,ISENSE_850*%
X92262500Y-24950000D03*
%TO.P,Q503,3*%
%TO.N,LED850_K*%
X94137500Y-24000000D03*
%TD*%
%TO.P,Q502,1*%
%TO.N,GATE_810*%
X83662500Y-23050000D03*
%TO.P,Q502,2*%
%TO.N,ISENSE_810*%
X83662500Y-24950000D03*
%TO.P,Q502,3*%
%TO.N,LED810_K*%
X85537500Y-24000000D03*
%TD*%
D12*
%TO.P,C501,1*%
%TO.N,GATE_660_D*%
X79820000Y-28800000D03*
%TO.P,C501,2*%
%TO.N,ISENSE_660*%
X80780000Y-28800000D03*
%TD*%
D10*
%TO.P,R514,1*%
%TO.N,ISET_SHARED*%
X61925000Y-26900000D03*
%TO.P,R514,2*%
%TO.N,ISET_660*%
X63575000Y-26900000D03*
%TD*%
D13*
%TO.P,C202,1*%
%TO.N,3V3_D*%
X25300000Y-23750000D03*
%TO.P,C202,2*%
%TO.N,GND*%
X27200000Y-23750000D03*
%TD*%
D14*
%TO.P,D201,1*%
%TO.N,GND*%
X15212500Y-25000000D03*
%TO.P,D201,2*%
%TO.N,LED_A*%
X16787500Y-25000000D03*
%TD*%
D15*
%TO.P,C406,1*%
%TO.N,CBL_AIN0N*%
X62750000Y-22230000D03*
%TO.P,C406,2*%
%TO.N,AGND*%
X62750000Y-21270000D03*
%TD*%
D16*
%TO.P,U101,1*%
%TO.N,USB_DM*%
X17862500Y-33300000D03*
%TO.P,U101,2*%
%TO.N,GND*%
X17862500Y-34250000D03*
%TO.P,U101,3*%
%TO.N,USB_DP*%
X17862500Y-35200000D03*
%TO.P,U101,4*%
%TO.N,ESP_USB_DP*%
X20137500Y-35200000D03*
%TO.P,U101,5*%
%TO.N,VBUS*%
X20137500Y-34250000D03*
%TO.P,U101,6*%
%TO.N,ESP_USB_DM*%
X20137500Y-33300000D03*
%TD*%
D17*
%TO.P,U401,1*%
%TO.N,TIA_NEAR_OUT*%
X63850000Y-16137500D03*
%TO.P,U401,2*%
%TO.N,AGND*%
X64800000Y-16137500D03*
%TO.P,U401,3*%
%TO.N,TIA_BIAS*%
X65750000Y-16137500D03*
%TO.P,U401,4*%
%TO.N,TIA_N_IN*%
X65750000Y-13862500D03*
%TO.P,U401,5*%
%TO.N,3V3_A*%
X63850000Y-13862500D03*
%TD*%
D11*
%TO.P,Q504,1*%
%TO.N,EN660*%
X74062500Y-5050000D03*
%TO.P,Q504,2*%
%TO.N,AGND*%
X74062500Y-6950000D03*
%TO.P,Q504,3*%
%TO.N,ISET_660*%
X75937500Y-6000000D03*
%TD*%
D10*
%TO.P,R515,1*%
%TO.N,ISET_SHARED*%
X66425000Y-26900000D03*
%TO.P,R515,2*%
%TO.N,ISET_810*%
X68075000Y-26900000D03*
%TD*%
%TO.P,R105,1*%
%TO.N,VBUS*%
X30175000Y-6250000D03*
%TO.P,R105,2*%
%TO.N,PPATH_G*%
X31825000Y-6250000D03*
%TD*%
D12*
%TO.P,C503,1*%
%TO.N,GATE_850_D*%
X97020000Y-28800000D03*
%TO.P,C503,2*%
%TO.N,ISENSE_850*%
X97980000Y-28800000D03*
%TD*%
D11*
%TO.P,Q505,1*%
%TO.N,EN810*%
X66312500Y-23050000D03*
%TO.P,Q505,2*%
%TO.N,AGND*%
X66312500Y-24950000D03*
%TO.P,Q505,3*%
%TO.N,ISET_810*%
X68187500Y-24000000D03*
%TD*%
D18*
%TO.P,U402,1*%
%TO.N,TIA_FAR_OUT*%
X91650000Y-13862500D03*
%TO.P,U402,2*%
%TO.N,AGND*%
X90700000Y-13862500D03*
%TO.P,U402,3*%
%TO.N,TIA_BIAS*%
X89750000Y-13862500D03*
%TO.P,U402,4*%
%TO.N,TIA_F_IN*%
X89750000Y-16137500D03*
%TO.P,U402,5*%
%TO.N,3V3_A*%
X91650000Y-16137500D03*
%TD*%
D10*
%TO.P,R409,1*%
%TO.N,CBL_AIN0P*%
X36175000Y-23000000D03*
%TO.P,R409,2*%
%TO.N,AIN0P*%
X37825000Y-23000000D03*
%TD*%
D19*
%TO.P,U102,1*%
%TO.N,GND*%
X31300000Y-33095000D03*
%TO.P,U102,2*%
%TO.N,PROG*%
X31300000Y-34365000D03*
%TO.P,U102,3*%
%TO.N,GND*%
X31300000Y-35635000D03*
%TO.P,U102,4*%
%TO.N,VBUS*%
X31300000Y-36905000D03*
%TO.P,U102,5*%
%TO.N,VBAT*%
X36700000Y-36905000D03*
%TO.P,U102,6*%
%TO.N,N/C*%
X36700000Y-35635000D03*
%TO.P,U102,7*%
%TO.N,CHG_STAT*%
X36700000Y-34365000D03*
%TO.P,U102,8*%
%TO.N,VBUS*%
X36700000Y-33095000D03*
D20*
%TO.P,U102,9*%
%TO.N,GND*%
X34000000Y-35000000D03*
%TD*%
D10*
%TO.P,R513,1*%
%TO.N,ISET_SHARED*%
X88075000Y-2000000D03*
%TO.P,R513,2*%
%TO.N,AGND*%
X89725000Y-2000000D03*
%TD*%
%TO.P,R107,1*%
%TO.N,3V3_A*%
X28175000Y-21000000D03*
%TO.P,R107,2*%
%TO.N,GND*%
X29825000Y-21000000D03*
%TD*%
D13*
%TO.P,C102,1*%
%TO.N,VBUS*%
X22050000Y-33000000D03*
%TO.P,C102,2*%
%TO.N,GND*%
X23950000Y-33000000D03*
%TD*%
D10*
%TO.P,R402,1*%
%TO.N,TIA_F_IN*%
X89925000Y-12000000D03*
%TO.P,R402,2*%
%TO.N,TIA_FAR_OUT*%
X91575000Y-12000000D03*
%TD*%
%TO.P,R520,1*%
%TO.N,GND*%
X40425000Y-27000000D03*
%TO.P,R520,2*%
%TO.N,AGND*%
X42075000Y-27000000D03*
%TD*%
%TO.P,R305,1*%
%TO.N,ADC_CLKIN*%
X32175000Y-29000000D03*
%TO.P,R305,2*%
%TO.N,ADC_CLKIN_R*%
X33825000Y-29000000D03*
%TD*%
%TO.P,R103,1*%
%TO.N,PROG*%
X24175000Y-8000000D03*
%TO.P,R103,2*%
%TO.N,GND*%
X25825000Y-8000000D03*
%TD*%
D21*
%TO.P,R509,1*%
%TO.N,ISENSE_850*%
X92287500Y-26900000D03*
%TO.P,R509,2*%
%TO.N,AGND*%
X94112500Y-26900000D03*
%TD*%
D10*
%TO.P,R502,1*%
%TO.N,GATE_810_D*%
X88075000Y-26900000D03*
%TO.P,R502,2*%
%TO.N,GATE_810*%
X89725000Y-26900000D03*
%TD*%
D13*
%TO.P,C104,1*%
%TO.N,VSYS*%
X40300000Y-2250000D03*
%TO.P,C104,2*%
%TO.N,GND*%
X42200000Y-2250000D03*
%TD*%
D10*
%TO.P,R517,1*%
%TO.N,3V3_A*%
X61925000Y-28800000D03*
%TO.P,R517,2*%
%TO.N,EN660*%
X63575000Y-28800000D03*
%TD*%
D12*
%TO.P,C504,1*%
%TO.N,ISET_SHARED*%
X87020000Y-4500000D03*
%TO.P,C504,2*%
%TO.N,AGND*%
X87980000Y-4500000D03*
%TD*%
%TO.P,C404,1*%
%TO.N,TIA_BIAS*%
X64520000Y-6500000D03*
%TO.P,C404,2*%
%TO.N,AGND*%
X65480000Y-6500000D03*
%TD*%
D22*
%TO.P,R406,1*%
%TO.N,TIA_BIAS_BUF*%
X62750000Y-19825000D03*
%TO.P,R406,2*%
%TO.N,CBL_AIN0N*%
X62750000Y-18175000D03*
%TD*%
D23*
%TO.P,J202,1*%
%TO.N,VLED*%
X46150000Y-23750000D03*
%TO.P,J202,2*%
%TO.N,GND*%
X46150000Y-22500000D03*
%TO.P,J202,3*%
%TO.N,3V3_A*%
X46150000Y-21250000D03*
%TO.P,J202,4*%
%TO.N,AGND*%
X46150000Y-20000000D03*
%TO.P,J202,5*%
%TO.N,CBL_AIN0P*%
X46150000Y-18750000D03*
%TO.P,J202,6*%
%TO.N,CBL_AIN0N*%
X46150000Y-17500000D03*
%TO.P,J202,7*%
%TO.N,AGND*%
X46150000Y-16250000D03*
%TO.P,J202,8*%
%TO.N,CBL_AIN1P*%
X46150000Y-15000000D03*
%TO.P,J202,9*%
%TO.N,CBL_AIN1N*%
X46150000Y-13750000D03*
%TO.P,J202,10*%
%TO.N,AGND*%
X46150000Y-12500000D03*
%TO.P,J202,11*%
%TO.N,NTC_SNS*%
X46150000Y-11250000D03*
%TO.P,J202,12*%
%TO.N,EN660*%
X46150000Y-10000000D03*
%TO.P,J202,13*%
%TO.N,EN810*%
X46150000Y-8750000D03*
%TO.P,J202,14*%
%TO.N,EN850*%
X46150000Y-7500000D03*
%TO.P,J202,15*%
%TO.N,ISET_PWM*%
X46150000Y-6250000D03*
D24*
%TO.P,J202,MP*%
%TO.N,N/C*%
X49350000Y-25600000D03*
X49350000Y-4400000D03*
%TD*%
D10*
%TO.P,R401,1*%
%TO.N,TIA_N_IN*%
X64175000Y-12000000D03*
%TO.P,R401,2*%
%TO.N,TIA_NEAR_OUT*%
X65825000Y-12000000D03*
%TD*%
D25*
%TO.P,D502,1*%
%TO.N,LED810_K*%
X74500000Y-11000000D03*
D26*
%TO.P,D502,2*%
%TO.N,VLED*%
X77150000Y-11000000D03*
D27*
%TO.P,D502,3*%
%TO.N,N/C*%
X75900000Y-11000000D03*
%TD*%
D12*
%TO.P,C410,1*%
%TO.N,AIN1P*%
X40770000Y-25000000D03*
%TO.P,C410,2*%
%TO.N,AIN1N*%
X41730000Y-25000000D03*
%TD*%
%TO.P,C502,1*%
%TO.N,GATE_810_D*%
X88420000Y-28800000D03*
%TO.P,C502,2*%
%TO.N,ISENSE_810*%
X89380000Y-28800000D03*
%TD*%
D28*
%TO.P,D101,1*%
%TO.N,VSYS*%
X29000000Y-9000000D03*
%TO.P,D101,2*%
%TO.N,VBUS*%
X33000000Y-9000000D03*
%TD*%
D29*
%TO.P,SW201,1*%
%TO.N,BOOT*%
X5850000Y-24100000D03*
X12150000Y-24100000D03*
%TO.P,SW201,2*%
%TO.N,GND*%
X5850000Y-27900000D03*
X12150000Y-27900000D03*
%TD*%
D10*
%TO.P,R303,1*%
%TO.N,ADC_SCLK*%
X32175000Y-25000000D03*
%TO.P,R303,2*%
%TO.N,ADC_SCLK_R*%
X33825000Y-25000000D03*
%TD*%
D30*
%TO.P,C107,1*%
%TO.N,VSYS*%
X21250000Y-18775000D03*
%TO.P,C107,2*%
%TO.N,GND*%
X21250000Y-17225000D03*
%TD*%
D31*
%TO.P,D401,1*%
%TO.N,TIA_BIAS*%
X67450000Y-12900000D03*
X70550000Y-12900000D03*
%TO.P,D401,2*%
%TO.N,TIA_N_IN*%
X70550000Y-17100000D03*
%TO.P,D401,3*%
%TO.N,N/C*%
X67450000Y-17100000D03*
%TD*%
D10*
%TO.P,R519,1*%
%TO.N,3V3_A*%
X70425000Y-28800000D03*
%TO.P,R519,2*%
%TO.N,EN850*%
X72075000Y-28800000D03*
%TD*%
D16*
%TO.P,U404,1*%
%TO.N,ISET_660*%
X79162500Y-23050000D03*
%TO.P,U404,2*%
%TO.N,AGND*%
X79162500Y-24000000D03*
%TO.P,U404,3*%
%TO.N,ISENSE_660*%
X79162500Y-24950000D03*
%TO.P,U404,4*%
%TO.N,GATE_660_D*%
X81437500Y-24950000D03*
%TO.P,U404,5*%
%TO.N,3V3_A*%
X81437500Y-23050000D03*
%TD*%
D10*
%TO.P,R110,1*%
%TO.N,VBAT_SNS*%
X20425000Y-10500000D03*
%TO.P,R110,2*%
%TO.N,VSNS_LO*%
X22075000Y-10500000D03*
%TD*%
%TO.P,R505,1*%
%TO.N,GATE_810*%
X83775000Y-28800000D03*
%TO.P,R505,2*%
%TO.N,AGND*%
X85425000Y-28800000D03*
%TD*%
D32*
%TO.P,C203,1*%
%TO.N,3V3_D*%
X29225000Y-25000000D03*
%TO.P,C203,2*%
%TO.N,GND*%
X30775000Y-25000000D03*
%TD*%
D10*
%TO.P,R410,1*%
%TO.N,CBL_AIN0N*%
X36175000Y-25000000D03*
%TO.P,R410,2*%
%TO.N,AIN0N*%
X37825000Y-25000000D03*
%TD*%
%TO.P,R412,1*%
%TO.N,CBL_AIN1N*%
X36175000Y-29000000D03*
%TO.P,R412,2*%
%TO.N,AIN1N*%
X37825000Y-29000000D03*
%TD*%
%TO.P,R202,1*%
%TO.N,LED_STAT*%
X15175000Y-22000000D03*
%TO.P,R202,2*%
%TO.N,LED_A*%
X16825000Y-22000000D03*
%TD*%
%TO.P,R408,1*%
%TO.N,TIA_BIAS_BUF*%
X93675000Y-17000000D03*
%TO.P,R408,2*%
%TO.N,CBL_AIN1N*%
X95325000Y-17000000D03*
%TD*%
%TO.P,R108,1*%
%TO.N,VSYS*%
X25675000Y-26000000D03*
%TO.P,R108,2*%
%TO.N,VLED_G*%
X27325000Y-26000000D03*
%TD*%
%TO.P,R104,1*%
%TO.N,CHG_STAT*%
X31175000Y-31000000D03*
%TO.P,R104,2*%
%TO.N,3V3_D*%
X32825000Y-31000000D03*
%TD*%
D33*
%TO.P,J102,1*%
%TO.N,VBAT*%
X43000000Y-31400000D03*
%TO.P,J102,2*%
%TO.N,GND*%
X45000000Y-31400000D03*
D34*
%TO.P,J102,MP*%
%TO.N,N/C*%
X40650000Y-37150000D03*
X47350000Y-37150000D03*
%TD*%
D10*
%TO.P,R403,1*%
%TO.N,3V3_A*%
X68675000Y-2000000D03*
%TO.P,R403,2*%
%TO.N,TIA_BIAS*%
X70325000Y-2000000D03*
%TD*%
D35*
%TO.P,J201,1*%
%TO.N,3V3_D*%
X27000000Y-30000000D03*
D36*
%TO.P,J201,2*%
%TO.N,TXD0*%
X27000000Y-32540000D03*
%TO.P,J201,3*%
%TO.N,RXD0*%
X27000000Y-35080000D03*
%TO.P,J201,4*%
%TO.N,GND*%
X27000000Y-37620000D03*
%TD*%
D10*
%TO.P,R102,1*%
%TO.N,CC2*%
X20425000Y-30000000D03*
%TO.P,R102,2*%
%TO.N,GND*%
X22075000Y-30000000D03*
%TD*%
D12*
%TO.P,C101,1*%
%TO.N,SHIELD*%
X22520000Y-36000000D03*
%TO.P,C101,2*%
%TO.N,GND*%
X23480000Y-36000000D03*
%TD*%
D10*
%TO.P,R106,1*%
%TO.N,PPATH_G*%
X45175000Y-2250000D03*
%TO.P,R106,2*%
%TO.N,GND*%
X46825000Y-2250000D03*
%TD*%
%TO.P,R404,1*%
%TO.N,TIA_BIAS*%
X68675000Y-4500000D03*
%TO.P,R404,2*%
%TO.N,AGND*%
X70325000Y-4500000D03*
%TD*%
D12*
%TO.P,C408,1*%
%TO.N,CBL_AIN1N*%
X97020000Y-17000000D03*
%TO.P,C408,2*%
%TO.N,AGND*%
X97980000Y-17000000D03*
%TD*%
D32*
%TO.P,C201,1*%
%TO.N,RESET*%
X1225000Y-25000000D03*
%TO.P,C201,2*%
%TO.N,GND*%
X2775000Y-25000000D03*
%TD*%
D12*
%TO.P,C402,1*%
%TO.N,TIA_F_IN*%
X90270000Y-18000000D03*
%TO.P,C402,2*%
%TO.N,TIA_FAR_OUT*%
X91230000Y-18000000D03*
%TD*%
D15*
%TO.P,C405,1*%
%TO.N,CBL_AIN0P*%
X62750000Y-8980000D03*
%TO.P,C405,2*%
%TO.N,AGND*%
X62750000Y-8020000D03*
%TD*%
D22*
%TO.P,R405,1*%
%TO.N,TIA_NEAR_OUT*%
X62750000Y-11825000D03*
%TO.P,R405,2*%
%TO.N,CBL_AIN0P*%
X62750000Y-10175000D03*
%TD*%
D16*
%TO.P,U406,1*%
%TO.N,ISET_850*%
X96362500Y-23050000D03*
%TO.P,U406,2*%
%TO.N,AGND*%
X96362500Y-24000000D03*
%TO.P,U406,3*%
%TO.N,ISENSE_850*%
X96362500Y-24950000D03*
%TO.P,U406,4*%
%TO.N,GATE_850_D*%
X98637500Y-24950000D03*
%TO.P,U406,5*%
%TO.N,3V3_A*%
X98637500Y-23050000D03*
%TD*%
D10*
%TO.P,R516,1*%
%TO.N,ISET_SHARED*%
X70425000Y-26900000D03*
%TO.P,R516,2*%
%TO.N,ISET_850*%
X72075000Y-26900000D03*
%TD*%
D11*
%TO.P,Q103,1*%
%TO.N,ANALOG_EN*%
X40312500Y-5300000D03*
%TO.P,Q103,2*%
%TO.N,GND*%
X40312500Y-7200000D03*
%TO.P,Q103,3*%
%TO.N,VLED_G*%
X42187500Y-6250000D03*
%TD*%
D37*
%TO.P,D501,1*%
%TO.N,VLED*%
X74465000Y-15687500D03*
D38*
%TO.P,D501,2*%
%TO.N,LED850_K*%
X76270000Y-15650000D03*
D37*
%TO.P,D501,3*%
%TO.N,VLED*%
X74465000Y-14312500D03*
D38*
%TO.P,D501,4*%
%TO.N,LED660_K*%
X76270000Y-14350000D03*
%TD*%
D21*
%TO.P,R507,1*%
%TO.N,ISENSE_660*%
X75087500Y-26900000D03*
%TO.P,R507,2*%
%TO.N,AGND*%
X76912500Y-26900000D03*
%TD*%
D30*
%TO.P,C105,1*%
%TO.N,VSYS*%
X21250000Y-14775000D03*
%TO.P,C105,2*%
%TO.N,GND*%
X21250000Y-13225000D03*
%TD*%
D16*
%TO.P,U103,1*%
%TO.N,VSYS*%
X23862500Y-13050000D03*
%TO.P,U103,2*%
%TO.N,GND*%
X23862500Y-14000000D03*
%TO.P,U103,3*%
%TO.N,VSYS*%
X23862500Y-14950000D03*
%TO.P,U103,4*%
%TO.N,N/C*%
X26137500Y-14950000D03*
%TO.P,U103,5*%
%TO.N,3V3_D*%
X26137500Y-13050000D03*
%TD*%
D39*
%TO.P,J101,A1*%
%TO.N,GND*%
X7750000Y-31455000D03*
%TO.P,J101,A4*%
%TO.N,VBUS*%
X8550000Y-31455000D03*
D40*
%TO.P,J101,A5*%
%TO.N,CC1*%
X9750000Y-31455000D03*
%TO.P,J101,A6*%
%TO.N,USB_DP*%
X10750000Y-31455000D03*
%TO.P,J101,A7*%
%TO.N,USB_DM*%
X11250000Y-31455000D03*
%TO.P,J101,A8*%
%TO.N,N/C*%
X12250000Y-31455000D03*
D39*
%TO.P,J101,A9*%
%TO.N,VBUS*%
X13450000Y-31455000D03*
%TO.P,J101,A12*%
%TO.N,GND*%
X14250000Y-31455000D03*
%TO.P,J101,B1*%
X14250000Y-31455000D03*
%TO.P,J101,B4*%
%TO.N,VBUS*%
X13450000Y-31455000D03*
D40*
%TO.P,J101,B5*%
%TO.N,CC2*%
X12750000Y-31455000D03*
%TO.P,J101,B6*%
%TO.N,USB_DP*%
X11750000Y-31455000D03*
%TO.P,J101,B7*%
%TO.N,USB_DM*%
X10250000Y-31455000D03*
%TO.P,J101,B8*%
%TO.N,N/C*%
X9250000Y-31455000D03*
D39*
%TO.P,J101,B9*%
%TO.N,VBUS*%
X8550000Y-31455000D03*
%TO.P,J101,B12*%
%TO.N,GND*%
X7750000Y-31455000D03*
D41*
%TO.P,J101,SH*%
%TO.N,SHIELD*%
X6680000Y-32370000D03*
D42*
X6680000Y-36550000D03*
D41*
X15320000Y-32370000D03*
D42*
X15320000Y-36550000D03*
%TD*%
D16*
%TO.P,U403,1*%
%TO.N,TIA_BIAS*%
X63862500Y-1050000D03*
%TO.P,U403,2*%
%TO.N,AGND*%
X63862500Y-2000000D03*
%TO.P,U403,3*%
%TO.N,TIA_BIAS_BUF*%
X63862500Y-2950000D03*
%TO.P,U403,4*%
X66137500Y-2950000D03*
%TO.P,U403,5*%
%TO.N,3V3_A*%
X66137500Y-1050000D03*
%TD*%
%TO.P,U405,1*%
%TO.N,ISET_810*%
X87762500Y-23050000D03*
%TO.P,U405,2*%
%TO.N,AGND*%
X87762500Y-24000000D03*
%TO.P,U405,3*%
%TO.N,ISENSE_810*%
X87762500Y-24950000D03*
%TO.P,U405,4*%
%TO.N,GATE_810_D*%
X90037500Y-24950000D03*
%TO.P,U405,5*%
%TO.N,3V3_A*%
X90037500Y-23050000D03*
%TD*%
D13*
%TO.P,C103,1*%
%TO.N,VBAT*%
X34800000Y-31000000D03*
%TO.P,C103,2*%
%TO.N,GND*%
X36700000Y-31000000D03*
%TD*%
D10*
%TO.P,R301,1*%
%TO.N,3V3_A*%
X41675000Y-21000000D03*
%TO.P,R301,2*%
%TO.N,ADC_SYNC_RESET*%
X43325000Y-21000000D03*
%TD*%
%TO.P,R407,1*%
%TO.N,TIA_FAR_OUT*%
X93675000Y-13000000D03*
%TO.P,R407,2*%
%TO.N,CBL_AIN1P*%
X95325000Y-13000000D03*
%TD*%
D12*
%TO.P,C409,1*%
%TO.N,AIN0P*%
X40770000Y-23000000D03*
%TO.P,C409,2*%
%TO.N,AIN0N*%
X41730000Y-23000000D03*
%TD*%
D43*
%TO.P,C108,1*%
%TO.N,3V3_A*%
X29000000Y-18950000D03*
%TO.P,C108,2*%
%TO.N,GND*%
X29000000Y-17050000D03*
%TD*%
D21*
%TO.P,R508,1*%
%TO.N,ISENSE_810*%
X83687500Y-26900000D03*
%TO.P,R508,2*%
%TO.N,AGND*%
X85512500Y-26900000D03*
%TD*%
D12*
%TO.P,C401,1*%
%TO.N,TIA_N_IN*%
X64520000Y-18000000D03*
%TO.P,C401,2*%
%TO.N,TIA_NEAR_OUT*%
X65480000Y-18000000D03*
%TD*%
%TO.P,C407,1*%
%TO.N,CBL_AIN1P*%
X97020000Y-13000000D03*
%TO.P,C407,2*%
%TO.N,AGND*%
X97980000Y-13000000D03*
%TD*%
D32*
%TO.P,C304,1*%
%TO.N,ADC_CAP*%
X41725000Y-19000000D03*
%TO.P,C304,2*%
%TO.N,AGND*%
X43275000Y-19000000D03*
%TD*%
D10*
%TO.P,R101,1*%
%TO.N,CC1*%
X17175000Y-30000000D03*
%TO.P,R101,2*%
%TO.N,GND*%
X18825000Y-30000000D03*
%TD*%
D16*
%TO.P,U104,1*%
%TO.N,VSYS*%
X23862500Y-17050000D03*
%TO.P,U104,2*%
%TO.N,GND*%
X23862500Y-18000000D03*
%TO.P,U104,3*%
%TO.N,ANALOG_EN*%
X23862500Y-18950000D03*
%TO.P,U104,4*%
%TO.N,N/C*%
X26137500Y-18950000D03*
%TO.P,U104,5*%
%TO.N,3V3_A*%
X26137500Y-17050000D03*
%TD*%
D23*
%TO.P,J401,1*%
%TO.N,VLED*%
X55650000Y-23750000D03*
%TO.P,J401,2*%
%TO.N,GND*%
X55650000Y-22500000D03*
%TO.P,J401,3*%
%TO.N,3V3_A*%
X55650000Y-21250000D03*
%TO.P,J401,4*%
%TO.N,AGND*%
X55650000Y-20000000D03*
%TO.P,J401,5*%
%TO.N,CBL_AIN0P*%
X55650000Y-18750000D03*
%TO.P,J401,6*%
%TO.N,CBL_AIN0N*%
X55650000Y-17500000D03*
%TO.P,J401,7*%
%TO.N,AGND*%
X55650000Y-16250000D03*
%TO.P,J401,8*%
%TO.N,CBL_AIN1P*%
X55650000Y-15000000D03*
%TO.P,J401,9*%
%TO.N,CBL_AIN1N*%
X55650000Y-13750000D03*
%TO.P,J401,10*%
%TO.N,AGND*%
X55650000Y-12500000D03*
%TO.P,J401,11*%
%TO.N,NTC_SNS*%
X55650000Y-11250000D03*
%TO.P,J401,12*%
%TO.N,EN660*%
X55650000Y-10000000D03*
%TO.P,J401,13*%
%TO.N,EN810*%
X55650000Y-8750000D03*
%TO.P,J401,14*%
%TO.N,EN850*%
X55650000Y-7500000D03*
%TO.P,J401,15*%
%TO.N,ISET_PWM*%
X55650000Y-6250000D03*
D24*
%TO.P,J401,MP*%
%TO.N,N/C*%
X58850000Y-25600000D03*
X58850000Y-4400000D03*
%TD*%
D10*
%TO.P,R411,1*%
%TO.N,CBL_AIN1P*%
X36175000Y-27000000D03*
%TO.P,R411,2*%
%TO.N,AIN1P*%
X37825000Y-27000000D03*
%TD*%
%TO.P,R203,1*%
%TO.N,3V3_D*%
X1675000Y-27000000D03*
%TO.P,R203,2*%
%TO.N,RESET*%
X3325000Y-27000000D03*
%TD*%
D32*
%TO.P,C303,1*%
%TO.N,3V3_A*%
X41725000Y-17000000D03*
%TO.P,C303,2*%
%TO.N,AGND*%
X43275000Y-17000000D03*
%TD*%
D10*
%TO.P,R109,1*%
%TO.N,VBAT*%
X20425000Y-8000000D03*
%TO.P,R109,2*%
%TO.N,VBAT_SNS*%
X22075000Y-8000000D03*
%TD*%
D11*
%TO.P,Q104,1*%
%TO.N,VBAT_SNS_EN*%
X21062500Y-22550000D03*
%TO.P,Q104,2*%
%TO.N,GND*%
X21062500Y-24450000D03*
%TO.P,Q104,3*%
%TO.N,VSNS_LO*%
X22937500Y-23500000D03*
%TD*%
D31*
%TO.P,D402,1*%
%TO.N,TIA_BIAS*%
X84960000Y-12900000D03*
X88060000Y-12900000D03*
%TO.P,D402,2*%
%TO.N,TIA_F_IN*%
X88060000Y-17100000D03*
%TO.P,D402,3*%
%TO.N,N/C*%
X84960000Y-17100000D03*
%TD*%
D13*
%TO.P,C403,1*%
%TO.N,TIA_BIAS*%
X65550000Y-8500000D03*
%TO.P,C403,2*%
%TO.N,AGND*%
X67450000Y-8500000D03*
%TD*%
D43*
%TO.P,C106,1*%
%TO.N,3V3_D*%
X29000000Y-14950000D03*
%TO.P,C106,2*%
%TO.N,GND*%
X29000000Y-13050000D03*
%TD*%
D10*
%TO.P,R518,1*%
%TO.N,3V3_A*%
X66425000Y-28800000D03*
%TO.P,R518,2*%
%TO.N,EN810*%
X68075000Y-28800000D03*
%TD*%
D11*
%TO.P,Q102,1*%
%TO.N,VLED_G*%
X35562500Y-5300000D03*
%TO.P,Q102,2*%
%TO.N,VSYS*%
X35562500Y-7200000D03*
%TO.P,Q102,3*%
%TO.N,VLED*%
X37437500Y-6250000D03*
%TD*%
D12*
%TO.P,C302,1*%
%TO.N,3V3_A*%
X42020000Y-15000000D03*
%TO.P,C302,2*%
%TO.N,AGND*%
X42980000Y-15000000D03*
%TD*%
D11*
%TO.P,Q506,1*%
%TO.N,EN850*%
X70312500Y-23050000D03*
%TO.P,Q506,2*%
%TO.N,AGND*%
X70312500Y-24950000D03*
%TO.P,Q506,3*%
%TO.N,ISET_850*%
X72187500Y-24000000D03*
%TD*%
D12*
%TO.P,C111,1*%
%TO.N,VBAT_SNS*%
X40770000Y-10500000D03*
%TO.P,C111,2*%
%TO.N,GND*%
X41730000Y-10500000D03*
%TD*%
D44*
%TO.P,U201,1*%
%TO.N,GND*%
X4000000Y-7100000D03*
%TO.P,U201,2*%
X4000000Y-7950000D03*
%TO.P,U201,3*%
%TO.N,3V3_D*%
X4000000Y-8800000D03*
%TO.P,U201,4*%
%TO.N,BOOT*%
X4000000Y-9650000D03*
%TO.P,U201,5*%
%TO.N,VBAT_SNS*%
X4000000Y-10500000D03*
%TO.P,U201,6*%
%TO.N,VBAT_SNS_EN*%
X4000000Y-11350000D03*
%TO.P,U201,7*%
%TO.N,N/C*%
X4000000Y-12200000D03*
%TO.P,U201,8*%
%TO.N,EN660*%
X4000000Y-13050000D03*
%TO.P,U201,9*%
%TO.N,EN810*%
X4000000Y-13900000D03*
%TO.P,U201,10*%
%TO.N,EN850*%
X4000000Y-14750000D03*
%TO.P,U201,11*%
%TO.N,NTC_SNS*%
X4000000Y-15600000D03*
%TO.P,U201,12*%
%TO.N,ADC_CLKIN*%
X4000000Y-16450000D03*
%TO.P,U201,13*%
%TO.N,ADC_SYNC_RESET*%
X4000000Y-17300000D03*
%TO.P,U201,14*%
%TO.N,ADC_CS*%
X4000000Y-18150000D03*
%TO.P,U201,15*%
%TO.N,ADC_SDI*%
X4000000Y-19000000D03*
D45*
%TO.P,U201,16*%
%TO.N,ADC_SCLK*%
X5050000Y-20050000D03*
%TO.P,U201,17*%
%TO.N,ADC_SDO*%
X5900000Y-20050000D03*
%TO.P,U201,18*%
%TO.N,ADC_DRDY*%
X6750000Y-20050000D03*
%TO.P,U201,19*%
%TO.N,ISET_PWM*%
X7600000Y-20050000D03*
%TO.P,U201,20*%
%TO.N,N/C*%
X8450000Y-20050000D03*
%TO.P,U201,21*%
X9300000Y-20050000D03*
%TO.P,U201,22*%
%TO.N,ANALOG_EN*%
X10150000Y-20050000D03*
%TO.P,U201,23*%
%TO.N,ESP_USB_DM*%
X11000000Y-20050000D03*
%TO.P,U201,24*%
%TO.N,ESP_USB_DP*%
X11850000Y-20050000D03*
%TO.P,U201,25*%
%TO.N,LED_STAT*%
X12700000Y-20050000D03*
%TO.P,U201,26*%
%TO.N,N/C*%
X13550000Y-20050000D03*
%TO.P,U201,27*%
X14400000Y-20050000D03*
%TO.P,U201,28*%
X15250000Y-20050000D03*
%TO.P,U201,29*%
X16100000Y-20050000D03*
%TO.P,U201,30*%
X16950000Y-20050000D03*
D44*
%TO.P,U201,31*%
X18000000Y-19000000D03*
%TO.P,U201,32*%
X18000000Y-18150000D03*
%TO.P,U201,33*%
X18000000Y-17300000D03*
%TO.P,U201,34*%
%TO.N,CHG_STAT*%
X18000000Y-16450000D03*
%TO.P,U201,35*%
%TO.N,N/C*%
X18000000Y-15600000D03*
%TO.P,U201,36*%
X18000000Y-14750000D03*
%TO.P,U201,37*%
X18000000Y-13900000D03*
%TO.P,U201,38*%
X18000000Y-13050000D03*
%TO.P,U201,39*%
%TO.N,TXD0*%
X18000000Y-12200000D03*
%TO.P,U201,40*%
%TO.N,RXD0*%
X18000000Y-11350000D03*
%TO.P,U201,41*%
%TO.N,N/C*%
X18000000Y-10500000D03*
%TO.P,U201,42*%
%TO.N,GND*%
X18000000Y-9650000D03*
%TO.P,U201,43*%
X18000000Y-8800000D03*
%TO.P,U201,44*%
%TO.N,N/C*%
X18000000Y-7950000D03*
%TO.P,U201,45*%
%TO.N,RESET*%
X18000000Y-7100000D03*
D45*
%TO.P,U201,46*%
%TO.N,GND*%
X16950000Y-6050000D03*
%TO.P,U201,47*%
X16100000Y-6050000D03*
%TO.P,U201,48*%
X15250000Y-6050000D03*
%TO.P,U201,49*%
X14400000Y-6050000D03*
%TO.P,U201,50*%
X13550000Y-6050000D03*
%TO.P,U201,51*%
X12700000Y-6050000D03*
%TO.P,U201,52*%
X11850000Y-6050000D03*
%TO.P,U201,53*%
X11000000Y-6050000D03*
%TO.P,U201,54*%
X10150000Y-6050000D03*
%TO.P,U201,55*%
X9300000Y-6050000D03*
%TO.P,U201,56*%
X8450000Y-6050000D03*
%TO.P,U201,57*%
X7600000Y-6050000D03*
%TO.P,U201,58*%
X6750000Y-6050000D03*
%TO.P,U201,59*%
X5900000Y-6050000D03*
%TO.P,U201,60*%
X5050000Y-6050000D03*
D46*
%TO.P,U201,61*%
X9350000Y-11400000D03*
D47*
X9350000Y-13050000D03*
X9350000Y-14700000D03*
X11000000Y-11400000D03*
X11000000Y-13050000D03*
X11000000Y-14700000D03*
X12650000Y-11400000D03*
X12650000Y-13050000D03*
X12650000Y-14700000D03*
D48*
%TO.P,U201,62*%
X4000000Y-6050000D03*
%TO.P,U201,63*%
X4000000Y-20050000D03*
%TO.P,U201,64*%
X18000000Y-20050000D03*
%TO.P,U201,65*%
X18000000Y-6050000D03*
%TD*%
D32*
%TO.P,C110,1*%
%TO.N,VLED*%
X74725000Y-17500000D03*
%TO.P,C110,2*%
%TO.N,GND*%
X76275000Y-17500000D03*
%TD*%
D49*
%TO.P,C109,1*%
%TO.N,VLED*%
X74025000Y-19800000D03*
%TO.P,C109,2*%
%TO.N,GND*%
X76975000Y-19800000D03*
%TD*%
D11*
%TO.P,Q101,1*%
%TO.N,PPATH_G*%
X35562500Y-1300000D03*
%TO.P,Q101,2*%
%TO.N,VSYS*%
X35562500Y-3200000D03*
%TO.P,Q101,3*%
%TO.N,VBAT*%
X37437500Y-2250000D03*
%TD*%
D10*
%TO.P,R501,1*%
%TO.N,GATE_660_D*%
X79475000Y-26900000D03*
%TO.P,R501,2*%
%TO.N,GATE_660*%
X81125000Y-26900000D03*
%TD*%
%TO.P,R506,1*%
%TO.N,GATE_850*%
X92375000Y-28800000D03*
%TO.P,R506,2*%
%TO.N,AGND*%
X94025000Y-28800000D03*
%TD*%
D50*
%TO.P,U301,1*%
%TO.N,3V3_A*%
X32825000Y-18862500D03*
%TO.P,U301,2*%
%TO.N,AGND*%
X33475000Y-18862500D03*
%TO.P,U301,3*%
%TO.N,AIN0P*%
X34125000Y-18862500D03*
%TO.P,U301,4*%
%TO.N,AIN0N*%
X34775000Y-18862500D03*
%TO.P,U301,5*%
%TO.N,AIN1N*%
X35425000Y-18862500D03*
%TO.P,U301,6*%
%TO.N,AIN1P*%
X36075000Y-18862500D03*
%TO.P,U301,7*%
%TO.N,N/C*%
X36725000Y-18862500D03*
%TO.P,U301,8*%
X37375000Y-18862500D03*
%TO.P,U301,9*%
X38025000Y-18862500D03*
%TO.P,U301,10*%
X38675000Y-18862500D03*
%TO.P,U301,11*%
%TO.N,ADC_SYNC_RESET*%
X38675000Y-13137500D03*
%TO.P,U301,12*%
%TO.N,ADC_CS_R*%
X38025000Y-13137500D03*
%TO.P,U301,13*%
%TO.N,ADC_DRDY*%
X37375000Y-13137500D03*
%TO.P,U301,14*%
%TO.N,ADC_SCLK_R*%
X36725000Y-13137500D03*
%TO.P,U301,15*%
%TO.N,ADC_SDO*%
X36075000Y-13137500D03*
%TO.P,U301,16*%
%TO.N,ADC_SDI_R*%
X35425000Y-13137500D03*
%TO.P,U301,17*%
%TO.N,ADC_CLKIN_R*%
X34775000Y-13137500D03*
%TO.P,U301,18*%
%TO.N,ADC_CAP*%
X34125000Y-13137500D03*
%TO.P,U301,19*%
%TO.N,AGND*%
X33475000Y-13137500D03*
%TO.P,U301,20*%
%TO.N,3V3_A*%
X32825000Y-13137500D03*
%TD*%
D10*
%TO.P,R504,1*%
%TO.N,GATE_660*%
X75175000Y-28800000D03*
%TO.P,R504,2*%
%TO.N,AGND*%
X76825000Y-28800000D03*
%TD*%
D12*
%TO.P,C204,1*%
%TO.N,3V3_D*%
X29520000Y-27000000D03*
%TO.P,C204,2*%
%TO.N,GND*%
X30480000Y-27000000D03*
%TD*%
D10*
%TO.P,R304,1*%
%TO.N,ADC_SDI*%
X32175000Y-27000000D03*
%TO.P,R304,2*%
%TO.N,ADC_SDI_R*%
X33825000Y-27000000D03*
%TD*%
%TO.P,R503,1*%
%TO.N,GATE_850_D*%
X96675000Y-26900000D03*
%TO.P,R503,2*%
%TO.N,GATE_850*%
X98325000Y-26900000D03*
%TD*%
%TO.P,R413,1*%
%TO.N,3V3_A*%
X70425000Y-7500000D03*
%TO.P,R413,2*%
%TO.N,NTC_SNS*%
X72075000Y-7500000D03*
%TD*%
D32*
%TO.P,C301,1*%
%TO.N,3V3_A*%
X41725000Y-13000000D03*
%TO.P,C301,2*%
%TO.N,AGND*%
X43275000Y-13000000D03*
%TD*%
D11*
%TO.P,Q501,1*%
%TO.N,GATE_660*%
X75062500Y-23050000D03*
%TO.P,Q501,2*%
%TO.N,ISENSE_660*%
X75062500Y-24950000D03*
%TO.P,Q501,3*%
%TO.N,LED660_K*%
X76937500Y-24000000D03*
%TD*%
D10*
%TO.P,R201,1*%
%TO.N,3V3_D*%
X1175000Y-22000000D03*
%TO.P,R201,2*%
%TO.N,BOOT*%
X2825000Y-22000000D03*
%TD*%
%TO.P,R510,1*%
%TO.N,ISET_PWM*%
X84675000Y-2000000D03*
%TO.P,R510,2*%
%TO.N,ISET_SHARED*%
X86325000Y-2000000D03*
%TD*%
%TO.P,RT401,1*%
%TO.N,NTC_SNS*%
X79475000Y-7500000D03*
%TO.P,RT401,2*%
%TO.N,AGND*%
X81125000Y-7500000D03*
%TD*%
D51*
%TO.N,ADC_CS*%
X2950000Y-18200000D03*
X31031800Y-22490800D03*
X24200000Y-21200000D03*
%TO.N,ADC_CS_R*%
X34784800Y-23020100D03*
X37441100Y-11649000D03*
%TO.N,GATE_850*%
X91367500Y-27765900D03*
X99357900Y-27116000D03*
%TO.N,LED850_K*%
X77768500Y-25318500D03*
X78524400Y-16110300D03*
X92390500Y-24104400D03*
%TO.N,GATE_810*%
X82896500Y-28050400D03*
X90765800Y-26617900D03*
%TO.N,LED810_K*%
X83609100Y-24000000D03*
X78436000Y-9829500D03*
%TO.N,ISET_SHARED*%
X65378600Y-27074800D03*
X71586500Y-3338300D03*
X69250000Y-27334600D03*
%TO.N,ISET_660*%
X76454300Y-6833700D03*
X69450000Y-26200000D03*
X77431200Y-22503000D03*
X64311900Y-26127400D03*
%TO.N,3V3_D*%
X833000Y-20888700D03*
X642100Y-27178200D03*
X30637300Y-14885100D03*
X24237300Y-23599900D03*
X27945500Y-25042600D03*
X27537300Y-13204600D03*
X5097100Y-7481700D03*
X33762400Y-31063600D03*
X29040800Y-27962200D03*
%TO.N,GND*%
X39497100Y-27243300D03*
X23991900Y-30493500D03*
X30396400Y-27822900D03*
X21912300Y-25299700D03*
X53404300Y-22195400D03*
X20215700Y-13630000D03*
X75500000Y-19522800D03*
X7720700Y-27178200D03*
X30572600Y-23699100D03*
X7420700Y-7481700D03*
X25257300Y-32964500D03*
X9120700Y-7481700D03*
X13342800Y-7481700D03*
X38893400Y-7533000D03*
X16509700Y-34197300D03*
X51474300Y-21435200D03*
X31022100Y-17945200D03*
X1955900Y-20805900D03*
X9846700Y-10024900D03*
X13817800Y-27661500D03*
X11291500Y-10039300D03*
X1428600Y-7077700D03*
X8082200Y-14643800D03*
X31162300Y-32260600D03*
X30753500Y-21261800D03*
X37706700Y-30953300D03*
X20313000Y-17809400D03*
X7668600Y-29671700D03*
X16237700Y-31302600D03*
X8088700Y-13622700D03*
X13942800Y-13313500D03*
X3912100Y-24828600D03*
X10214900Y-16215600D03*
X42607000Y-9614200D03*
X24955300Y-35792700D03*
X43361400Y-2033600D03*
X46277300Y-30049700D03*
X10575000Y-7462500D03*
X13749700Y-24135100D03*
X26760300Y-7446200D03*
X19464900Y-6583100D03*
X48613300Y-1390200D03*
X31022100Y-13479700D03*
X29947700Y-35480700D03*
X18948700Y-20327600D03*
X19056200Y-27661500D03*
X15042800Y-7481700D03*
X48527200Y-23260500D03*
X22233900Y-18491100D03*
X28210200Y-23697500D03*
X19212100Y-10039300D03*
X19808800Y-9203000D03*
%TO.N,CBL_AIN0N*%
X37868100Y-24000000D03*
X48918300Y-18488600D03*
%TO.N,AGND*%
X77952600Y-27285500D03*
X71372200Y-4403400D03*
X66092800Y-24138200D03*
X94938900Y-28886100D03*
X57036000Y-16214300D03*
X68500200Y-8796100D03*
X80344100Y-24190600D03*
X53873600Y-12600300D03*
X33347400Y-14919300D03*
X81917100Y-6343900D03*
X99125300Y-12820700D03*
X97597400Y-23692200D03*
X54280200Y-20150000D03*
X95450100Y-27178200D03*
X44447800Y-16264000D03*
X89786600Y-4206200D03*
X44484000Y-18671900D03*
X44521600Y-12763600D03*
X99125300Y-16949800D03*
X86850100Y-26801400D03*
X61911100Y-21435200D03*
X66104300Y-17369300D03*
X63740300Y-8166000D03*
X75661400Y-7407000D03*
X90693000Y-2206100D03*
X90655400Y-15044100D03*
X43200000Y-23200000D03*
X69051800Y-25021500D03*
X86982700Y-28886100D03*
X77764700Y-28886100D03*
X62494300Y-2218500D03*
X66271500Y-6645300D03*
X89742500Y-24000000D03*
X33383700Y-20231400D03*
%TO.N,USB_DM*%
X12920600Y-33733400D03*
X10214900Y-34852600D03*
%TO.N,ESP_USB_DP*%
X13162000Y-18522100D03*
X19309500Y-36410900D03*
%TO.N,VBUS*%
X33303000Y-7224500D03*
X32867300Y-32156100D03*
%TO.N,ESP_USB_DM*%
X18707800Y-32343300D03*
X11005200Y-18638900D03*
%TO.N,TIA_BIAS*%
X70700000Y-2200000D03*
X84960000Y-12900000D03*
%TO.N,TIA_N_IN*%
X67111800Y-14469200D03*
X68302800Y-15427700D03*
%TO.N,3V3_A*%
X69250000Y-28886100D03*
X44544900Y-21485500D03*
X27263400Y-20514500D03*
X68974000Y-7926900D03*
X27537300Y-18442700D03*
X66209800Y-2000000D03*
X41950000Y-16950000D03*
X60663500Y-27538500D03*
X90947300Y-22123500D03*
X40877600Y-15698600D03*
X53560700Y-21219800D03*
X31820100Y-13070600D03*
X90655400Y-16612000D03*
X98572200Y-24000000D03*
X40783600Y-11943900D03*
X31820100Y-18566500D03*
X65480100Y-29045700D03*
X80300000Y-22373900D03*
X64732100Y-14495000D03*
X67096600Y-2069800D03*
X40452400Y-21241300D03*
%TO.N,EN660*%
X44772200Y-10148600D03*
X65136300Y-28196600D03*
X2950000Y-12700000D03*
X70294400Y-6333100D03*
%TO.N,EN810*%
X5273600Y-13258000D03*
X58170500Y-24474500D03*
X54040300Y-9373400D03*
%TO.N,CBL_AIN0P*%
X37249000Y-21769800D03*
X48527200Y-10542700D03*
X47535800Y-18828900D03*
%TO.N,PROG*%
X25837100Y-9317600D03*
X29947700Y-33473500D03*
%TO.N,VBAT*%
X38839700Y-2585900D03*
X22003300Y-6583100D03*
X34660900Y-29687000D03*
%TO.N,CHG_STAT*%
X21205900Y-30862900D03*
X16885100Y-16616900D03*
%TO.N,ADC_CLKIN*%
X6645400Y-16472000D03*
X30911000Y-29569100D03*
%TO.N,ADC_CLKIN_R*%
X33000000Y-29970600D03*
X32642400Y-11892300D03*
%TO.N,TIA_BIAS_BUF*%
X63262700Y-4446300D03*
X63979800Y-19227600D03*
X92858900Y-18736000D03*
%TO.N,VLED*%
X40366900Y-6270700D03*
X69200000Y-21450000D03*
X44354800Y-23383300D03*
X73700000Y-20200000D03*
%TO.N,CBL_AIN1P*%
X96232700Y-13449100D03*
X40650600Y-28044900D03*
X44766400Y-14841900D03*
%TO.N,CBL_AIN1N*%
X96232700Y-16884900D03*
X39911700Y-13713500D03*
X37897400Y-30064500D03*
%TO.N,NTC_SNS*%
X7848900Y-16181600D03*
X44703000Y-11469400D03*
X69587000Y-9094200D03*
%TO.N,EN850*%
X43802600Y-7342300D03*
X3086600Y-14478700D03*
X68284700Y-9840800D03*
X71941900Y-22530300D03*
%TO.N,ISET_PWM*%
X83346500Y-1390200D03*
X7795700Y-18893600D03*
X55650000Y-5253200D03*
%TO.N,AIN1P*%
X39561700Y-26018800D03*
X38883000Y-20853100D03*
%TO.N,BOOT*%
X5097100Y-9406700D03*
X4306000Y-21453300D03*
%TO.N,ADC_SCLK*%
X31504300Y-23973800D03*
X13732200Y-22216800D03*
%TO.N,ADC_SCLK_R*%
X36571000Y-11871600D03*
X34745500Y-25192100D03*
%TO.N,VBAT_SNS*%
X22003300Y-9268800D03*
X31450000Y-11700000D03*
X5166700Y-10544900D03*
X26700000Y-10200000D03*
%TO.N,VSNS_LO*%
X22640300Y-21861300D03*
X23475100Y-10441000D03*
%TO.N,VLED_G*%
X35838700Y-4349900D03*
X33127600Y-25926800D03*
%TO.N,TXD0*%
X19463300Y-12448000D03*
%TO.N,RXD0*%
X24950400Y-9779500D03*
%TO.N,CC2*%
X20780500Y-28800500D03*
X12720600Y-32825100D03*
%TO.N,RESET*%
X2417400Y-26177400D03*
X5773400Y-7976900D03*
%TO.N,ISET_850*%
X73564800Y-23686600D03*
X93603900Y-22982800D03*
%TO.N,ANALOG_EN*%
X17700000Y-21200000D03*
X10195700Y-21660500D03*
X22956900Y-20462200D03*
X38893400Y-5214400D03*
X24509300Y-6583100D03*
%TO.N,LED660_K*%
X77408800Y-14924300D03*
X75531200Y-24032400D03*
%TO.N,ADC_SYNC_RESET*%
X13824800Y-15003100D03*
X38899800Y-15228500D03*
%TO.N,VBAT_SNS_EN*%
X18475400Y-21995800D03*
X11212100Y-9105800D03*
%TO.N,ADC_SDI*%
X2742600Y-19118400D03*
X31267400Y-26869600D03*
%TO.N,ADC_SDO*%
X5379000Y-17747000D03*
X35967000Y-14503900D03*
%TO.N,ADC_DRDY*%
X14200000Y-14200000D03*
X6514600Y-18177000D03*
X37441700Y-14621400D03*
%TO.N,GATE_660*%
X81097100Y-27932600D03*
X74243900Y-27939400D03*
%TO.N,ADC_SDI_R*%
X34744300Y-27248000D03*
X35093300Y-14486300D03*
%TD*%
%TO.N,ADC_CS*%
D52*
X3700000Y-18200000D02*
X2950000Y-18200000D01*
D53*
X31665800Y-22490800D02*
X31031800Y-22490800D01*
D52*
X4000000Y-18150000D02*
X3700000Y-18200000D01*
D53*
X32175000Y-23000000D02*
X31665800Y-22490800D01*
%TO.N,ADC_CS_R*%
X38025000Y-13137500D02*
X38025000Y-12232900D01*
X34764700Y-23000000D02*
X34784800Y-23020100D01*
X38025000Y-12232900D02*
X37441100Y-11649000D01*
X33825000Y-23000000D02*
X34764700Y-23000000D01*
%TO.N,GATE_850*%
X91367500Y-26368700D02*
X91168400Y-26169600D01*
X91367500Y-27792500D02*
X91367500Y-27765900D01*
X92375000Y-28800000D02*
X91367500Y-27792500D01*
X99357900Y-27116000D02*
X98541000Y-27116000D01*
X91367500Y-27765900D02*
X91367500Y-26368700D01*
X98541000Y-27116000D02*
X98325000Y-26900000D01*
X91168400Y-26169600D02*
X91168400Y-24144100D01*
X91168400Y-24144100D02*
X92262500Y-23050000D01*
%TO.N,ISENSE_850*%
X92287500Y-24950000D02*
X92287500Y-26900000D01*
X93350100Y-27962600D02*
X94951400Y-27962600D01*
X94951400Y-27962600D02*
X96401000Y-29412200D01*
X97367800Y-29412200D02*
X97980000Y-28800000D01*
X92287500Y-26900000D02*
X93350100Y-27962600D01*
X92287500Y-24950000D02*
X96362500Y-24950000D01*
X96401000Y-29412200D02*
X97367800Y-29412200D01*
X92262500Y-24950000D02*
X92287500Y-24950000D01*
%TO.N,LED850_K*%
X92390500Y-24104400D02*
X92494900Y-24000000D01*
X78524400Y-16110300D02*
X76730300Y-16110300D01*
X76730300Y-16110300D02*
X76270000Y-15650000D01*
X92494900Y-24000000D02*
X94137500Y-24000000D01*
%TO.N,GATE_810*%
X82604700Y-24107800D02*
X82604700Y-27758600D01*
X90765800Y-26617900D02*
X90007100Y-26617900D01*
X83775000Y-28800000D02*
X83025400Y-28050400D01*
X83662500Y-23050000D02*
X82604700Y-24107800D01*
X90007100Y-26617900D02*
X89725000Y-26900000D01*
X83025400Y-28050400D02*
X82896500Y-28050400D01*
X82604700Y-27758600D02*
X82896500Y-28050400D01*
%TO.N,ISENSE_810*%
X89380000Y-28800000D02*
X88542400Y-27962400D01*
X84749900Y-27962400D02*
X83687500Y-26900000D01*
X87762500Y-24950000D02*
X83662500Y-24950000D01*
X83662500Y-26875000D02*
X83687500Y-26900000D01*
X88542400Y-27962400D02*
X84749900Y-27962400D01*
X83662500Y-24950000D02*
X83662500Y-26875000D01*
%TO.N,LED810_K*%
X74500000Y-9808300D02*
X75291600Y-9016700D01*
X83609100Y-24000000D02*
X85537500Y-24000000D01*
X77623200Y-9016700D02*
X78436000Y-9829500D01*
X75291600Y-9016700D02*
X77623200Y-9016700D01*
X74500000Y-11000000D02*
X74500000Y-9808300D01*
%TO.N,GATE_660_D*%
X79647500Y-26900000D02*
X79647500Y-26740000D01*
X79647500Y-28627500D02*
X79820000Y-28800000D01*
X79647500Y-26740000D02*
X81437500Y-24950000D01*
X79647500Y-26900000D02*
X79647500Y-28627500D01*
X79475000Y-26900000D02*
X79647500Y-26900000D01*
%TO.N,ISENSE_660*%
X76150100Y-27962600D02*
X77776500Y-27962600D01*
X80167800Y-29412200D02*
X80780000Y-28800000D01*
X77776500Y-27962600D02*
X79226100Y-29412200D01*
X75345700Y-24716800D02*
X75087500Y-24975000D01*
X78929300Y-24716800D02*
X75345700Y-24716800D01*
X79162500Y-24950000D02*
X78929300Y-24716800D01*
X75062500Y-24950000D02*
X75087500Y-24975000D01*
X79226100Y-29412200D02*
X80167800Y-29412200D01*
X75087500Y-26900000D02*
X76150100Y-27962600D01*
X75087500Y-24975000D02*
X75087500Y-26900000D01*
%TO.N,ISET_SHARED*%
X64949200Y-26900000D02*
X64170000Y-27679200D01*
X69990400Y-27334600D02*
X70425000Y-26900000D01*
X66425000Y-26900000D02*
X64949200Y-26900000D01*
X86325000Y-3338300D02*
X86325000Y-2000000D01*
X87020000Y-4500000D02*
X87020000Y-3338300D01*
X86325000Y-3338300D02*
X71586500Y-3338300D01*
X64170000Y-27679200D02*
X62704200Y-27679200D01*
X69250000Y-27334600D02*
X69990400Y-27334600D01*
X66250200Y-27074800D02*
X65378600Y-27074800D01*
X66425000Y-26900000D02*
X66250200Y-27074800D01*
X88075000Y-2000000D02*
X86325000Y-2000000D01*
X62704200Y-27679200D02*
X61925000Y-26900000D01*
X87020000Y-3338300D02*
X86325000Y-3338300D01*
%TO.N,ISET_660*%
X63575000Y-26864300D02*
X63575000Y-26900000D01*
X77978200Y-23050000D02*
X77431200Y-22503000D01*
X64311900Y-26127400D02*
X63575000Y-26864300D01*
X76454300Y-6833700D02*
X76454300Y-6516800D01*
X79162500Y-23050000D02*
X77978200Y-23050000D01*
X76454300Y-6516800D02*
X75937500Y-6000000D01*
%TO.N,3V3_D*%
X29040800Y-27962200D02*
X29520000Y-27483000D01*
X30637300Y-14885100D02*
X29064900Y-14885100D01*
X27537300Y-13204600D02*
X26292100Y-13204600D01*
D52*
X29064900Y-14885100D02*
X28700000Y-14700000D01*
X28700000Y-14700000D02*
X27450000Y-13450000D01*
D53*
X5097100Y-7481700D02*
X5097100Y-8404600D01*
X24237300Y-23599900D02*
X25149900Y-23599900D01*
X25149900Y-23599900D02*
X25300000Y-23750000D01*
X29064900Y-14885100D02*
X29000000Y-14950000D01*
X1496800Y-27178200D02*
X1675000Y-27000000D01*
X642100Y-27178200D02*
X1496800Y-27178200D01*
X5097100Y-8404600D02*
X4701700Y-8800000D01*
X29520000Y-27483000D02*
X29520000Y-27000000D01*
X29182400Y-25042600D02*
X29225000Y-25000000D01*
X32888600Y-31063600D02*
X32825000Y-31000000D01*
X833000Y-20888700D02*
X833000Y-21658000D01*
D52*
X27450000Y-13450000D02*
X27537300Y-13204600D01*
D53*
X33762400Y-31063600D02*
X32888600Y-31063600D01*
X26292100Y-13204600D02*
X26137500Y-13050000D01*
X27945500Y-25042600D02*
X29182400Y-25042600D01*
X4000000Y-8800000D02*
X4701700Y-8800000D01*
X833000Y-21658000D02*
X1175000Y-22000000D01*
%TO.N,GND*%
X7420700Y-6751700D02*
X7600000Y-6751700D01*
X18825000Y-27892700D02*
X18825000Y-30000000D01*
X11000000Y-15150800D02*
X11000000Y-15601700D01*
X1955900Y-20805900D02*
X2542400Y-20805900D01*
X15250000Y-6751700D02*
X15250000Y-6050000D01*
X38893400Y-7533000D02*
X39979500Y-7533000D01*
X18000000Y-6050000D02*
X18701700Y-6050000D01*
X12150000Y-27900000D02*
X13301700Y-27900000D01*
X4000000Y-20050000D02*
X3298300Y-20050000D01*
X19091000Y-10039300D02*
X18701700Y-9650000D01*
X19104700Y-9203000D02*
X18701700Y-8800000D01*
X11000000Y-15150800D02*
X11297500Y-15150800D01*
X30480000Y-27739300D02*
X30480000Y-27000000D01*
X11297500Y-15150800D02*
X11748300Y-14700000D01*
X18000000Y-9650000D02*
X18701700Y-9650000D01*
X12700000Y-6050000D02*
X11850000Y-6050000D01*
X13817800Y-27661500D02*
X13540200Y-27661500D01*
X42416400Y-2033600D02*
X42200000Y-2250000D01*
X7750000Y-29753100D02*
X7750000Y-31455000D01*
X31145700Y-35480700D02*
X31300000Y-35635000D01*
X11000000Y-11400000D02*
X11374200Y-11025800D01*
X19808800Y-9203000D02*
X19104700Y-9203000D01*
X9300000Y-7302400D02*
X9300000Y-6050000D01*
X40181700Y-27243300D02*
X40425000Y-27000000D01*
X8448300Y-13263100D02*
X8448300Y-13050000D01*
X20845000Y-13630000D02*
X21250000Y-13225000D01*
X20215700Y-13630000D02*
X20845000Y-13630000D01*
X30572600Y-23700700D02*
X30775000Y-23903100D01*
X18000000Y-8800000D02*
X18701700Y-8800000D01*
X7420700Y-7481700D02*
X7420700Y-6751700D01*
X1428600Y-7077700D02*
X3298300Y-7077700D01*
X76275000Y-17500000D02*
X76975000Y-18200000D01*
X16509700Y-34197300D02*
X17809800Y-34197300D01*
X47684800Y-1390200D02*
X46825000Y-2250000D01*
X13550000Y-6050000D02*
X13550000Y-6751700D01*
X48527200Y-23260500D02*
X47766700Y-22500000D01*
X36746700Y-30953300D02*
X36700000Y-31000000D01*
X24955300Y-35792700D02*
X23687300Y-35792700D01*
X9350000Y-14700000D02*
X8448300Y-14700000D01*
X29429700Y-13479700D02*
X29000000Y-13050000D01*
X5850000Y-27900000D02*
X7001700Y-27900000D01*
X30086800Y-21261800D02*
X29825000Y-21000000D01*
X14072800Y-6751700D02*
X14400000Y-6751700D01*
X4000000Y-7100000D02*
X3298300Y-7100000D01*
X19212100Y-10039300D02*
X19091000Y-10039300D01*
X31300000Y-35635000D02*
X31913300Y-35635000D01*
X13342800Y-7481700D02*
X14072800Y-6751700D01*
X16100000Y-6050000D02*
X16100000Y-6751700D01*
X9350000Y-11400000D02*
X9350000Y-10498300D01*
X30753500Y-21261800D02*
X30086800Y-21261800D01*
X23991900Y-30493500D02*
X22568500Y-30493500D01*
X13942800Y-13313500D02*
X13815200Y-13313500D01*
X20897400Y-17225000D02*
X21250000Y-17225000D01*
X21250000Y-13225000D02*
X22025000Y-14000000D01*
X10214900Y-16215600D02*
X10828800Y-15601700D01*
X15042800Y-7481700D02*
X15250000Y-7274500D01*
X31022100Y-17945200D02*
X29895200Y-17945200D01*
X15894500Y-30959400D02*
X14745600Y-30959400D01*
X7420700Y-6751700D02*
X6750000Y-6751700D01*
X76975000Y-18200000D02*
X76975000Y-19800000D01*
X53404300Y-22195400D02*
X55345400Y-22195400D01*
X46277300Y-30049700D02*
X45000000Y-31327000D01*
X43361400Y-2033600D02*
X42416400Y-2033600D01*
X13540200Y-27661500D02*
X13301700Y-27900000D01*
X19234800Y-6583100D02*
X18701700Y-6050000D01*
X22025000Y-14000000D02*
X23862500Y-14000000D01*
X25257300Y-32964500D02*
X23985500Y-32964500D01*
X7600000Y-6050000D02*
X7600000Y-6751700D01*
X23687300Y-35792700D02*
X23480000Y-36000000D01*
X30775000Y-23903100D02*
X30775000Y-25000000D01*
X18948700Y-20327600D02*
X18948700Y-20297000D01*
X3298300Y-7077700D02*
X3298300Y-7950000D01*
X30396400Y-27822900D02*
X30480000Y-27739300D01*
X31022100Y-13479700D02*
X29429700Y-13479700D01*
X12650000Y-14700000D02*
X11748300Y-14700000D01*
X11000000Y-6050000D02*
X11850000Y-6050000D01*
X39497100Y-27243300D02*
X40181700Y-27243300D01*
X29947700Y-35480700D02*
X31145700Y-35480700D01*
X14400000Y-6400800D02*
X14049100Y-6751700D01*
X4000000Y-7950000D02*
X3298300Y-7950000D01*
X21912300Y-25299700D02*
X21062600Y-24450000D01*
X7720700Y-27178200D02*
X7001700Y-27897200D01*
X3298300Y-7077700D02*
X3298300Y-7100000D01*
X11374200Y-11025800D02*
X11291500Y-10943200D01*
X15250000Y-7274500D02*
X15250000Y-6751700D01*
X14400000Y-6050000D02*
X14400000Y-6400800D01*
X14745600Y-30959400D02*
X14250000Y-31455000D01*
X11000000Y-14700000D02*
X11000000Y-15150800D01*
X10828800Y-15601700D02*
X11000000Y-15601700D01*
X12650000Y-13050000D02*
X13551700Y-13050000D01*
X3912100Y-24828600D02*
X2946400Y-24828600D01*
X9350000Y-13050000D02*
X11000000Y-13050000D01*
X29895200Y-17945200D02*
X29000000Y-17050000D01*
X2946400Y-24828600D02*
X2775000Y-25000000D01*
X9350000Y-13050000D02*
X8448300Y-13050000D01*
X14049100Y-6751700D02*
X13550000Y-6751700D01*
X7001700Y-27897200D02*
X7001700Y-27900000D01*
X41730000Y-10491200D02*
X41730000Y-10500000D01*
X27252500Y-23697500D02*
X27200000Y-23750000D01*
X31913300Y-35635000D02*
X32548300Y-35000000D01*
X6750000Y-6050000D02*
X5900000Y-6050000D01*
X5050000Y-6050000D02*
X4000000Y-6050000D01*
X47766700Y-22500000D02*
X46150000Y-22500000D01*
X76697800Y-19522800D02*
X76975000Y-19800000D01*
X31300000Y-32398300D02*
X31300000Y-33095000D01*
X22725000Y-18000000D02*
X23862500Y-18000000D01*
X20313000Y-17809400D02*
X20897400Y-17225000D01*
X22568500Y-30493500D02*
X22075000Y-30000000D01*
X8088700Y-13622700D02*
X8448300Y-13263100D01*
X45000000Y-31327000D02*
X45000000Y-31400000D01*
X48613300Y-1390200D02*
X47684800Y-1390200D01*
X11374200Y-11025800D02*
X11748300Y-11400000D01*
X28210200Y-23697500D02*
X27252500Y-23697500D01*
X30572600Y-23700700D02*
X30572600Y-23699100D01*
X19464900Y-6583100D02*
X19234800Y-6583100D01*
X18000000Y-20050000D02*
X18701700Y-20050000D01*
X9120700Y-7481700D02*
X9300000Y-7302400D01*
X21062600Y-24450000D02*
X21062500Y-24450000D01*
X39979500Y-7533000D02*
X40312500Y-7200000D01*
X42607000Y-9614200D02*
X41730000Y-10491200D01*
X8392100Y-14643800D02*
X8448300Y-14700000D01*
X55345400Y-22195400D02*
X55650000Y-22500000D01*
X8082200Y-14643800D02*
X8392100Y-14643800D01*
X9300000Y-6050000D02*
X8450000Y-6050000D01*
X17809800Y-34197300D02*
X17862500Y-34250000D01*
X19056200Y-27661500D02*
X18825000Y-27892700D01*
X34000000Y-35000000D02*
X32548300Y-35000000D01*
X14347600Y-24135100D02*
X15212500Y-25000000D01*
X26378800Y-7446200D02*
X25825000Y-8000000D01*
X16100000Y-6050000D02*
X16950000Y-6050000D01*
X7668600Y-29671700D02*
X7750000Y-29753100D01*
X30572600Y-23699100D02*
X30572600Y-23700700D01*
X10575000Y-7462500D02*
X10575000Y-6475000D01*
X5900000Y-6050000D02*
X5050000Y-6050000D01*
X14400000Y-6400800D02*
X14400000Y-6751700D01*
X2542400Y-20805900D02*
X3298300Y-20050000D01*
X12650000Y-11400000D02*
X11748300Y-11400000D01*
X10575000Y-6475000D02*
X11000000Y-6050000D01*
X16237700Y-31302600D02*
X15894500Y-30959400D01*
X31162300Y-32260600D02*
X31300000Y-32398300D01*
X11291500Y-10943200D02*
X11291500Y-10039300D01*
X26760300Y-7446200D02*
X26378800Y-7446200D01*
X22233900Y-18491100D02*
X22725000Y-18000000D01*
X13815200Y-13313500D02*
X13551700Y-13050000D01*
X15250000Y-6751700D02*
X16100000Y-6751700D01*
X6750000Y-6050000D02*
X6750000Y-6751700D01*
X10150000Y-6050000D02*
X10575000Y-6475000D01*
X18948700Y-20297000D02*
X18701700Y-20050000D01*
X23985500Y-32964500D02*
X23950000Y-33000000D01*
X75500000Y-19522800D02*
X76697800Y-19522800D01*
X37706700Y-30953300D02*
X36746700Y-30953300D01*
X9350000Y-10498300D02*
X9373300Y-10498300D01*
X9373300Y-10498300D02*
X9846700Y-10024900D01*
X13749700Y-24135100D02*
X14347600Y-24135100D01*
%TO.N,LED_A*%
X16825000Y-24962500D02*
X16825000Y-22000000D01*
X16787500Y-25000000D02*
X16825000Y-24962500D01*
%TO.N,CBL_AIN0N*%
X63194600Y-18619600D02*
X64231600Y-18619600D01*
X37665000Y-24203100D02*
X37053600Y-24203100D01*
X55650000Y-17500000D02*
X48918300Y-17500000D01*
X62075000Y-17500000D02*
X62750000Y-18175000D01*
X48918300Y-17500000D02*
X46150000Y-17500000D01*
X64591200Y-20388800D02*
X62750000Y-22230000D01*
X62750000Y-18175000D02*
X63194600Y-18619600D01*
X37868100Y-24000000D02*
X37665000Y-24203100D01*
X37053600Y-24203100D02*
X36256700Y-25000000D01*
X55650000Y-17500000D02*
X62075000Y-17500000D01*
X36256700Y-25000000D02*
X36175000Y-25000000D01*
X64591200Y-18979200D02*
X64591200Y-20388800D01*
X48918300Y-17500000D02*
X48918300Y-18488600D01*
X64231600Y-18619600D02*
X64591200Y-18979200D01*
%TO.N,AGND*%
X33475000Y-20140100D02*
X33475000Y-18862500D01*
X89931100Y-2206100D02*
X89725000Y-2000000D01*
X66092800Y-24730300D02*
X66312500Y-24950000D01*
X79162500Y-24000000D02*
X80153500Y-24000000D01*
X44127500Y-16147500D02*
X43275000Y-17000000D01*
X94938900Y-28886100D02*
X94111100Y-28886100D01*
X99125300Y-16949800D02*
X98030200Y-16949800D01*
X81125000Y-7136000D02*
X81125000Y-7500000D01*
X55500000Y-20150000D02*
X55650000Y-20000000D01*
X86850100Y-26801400D02*
X85611100Y-26801400D01*
X55549700Y-12600300D02*
X55650000Y-12500000D01*
D52*
X42950000Y-23450000D02*
X43200000Y-23200000D01*
D53*
X69051800Y-25021500D02*
X70241000Y-25021500D01*
X44331300Y-16147500D02*
X44127500Y-16147500D01*
X98159300Y-12820700D02*
X97980000Y-13000000D01*
X44285200Y-13000000D02*
X44521600Y-12763600D01*
X43275000Y-13000000D02*
X44285200Y-13000000D01*
X89786600Y-4206200D02*
X88273800Y-4206200D01*
X74519500Y-7407000D02*
X74062500Y-6950000D01*
X61911100Y-21435200D02*
X62584800Y-21435200D01*
X44461800Y-16250000D02*
X44447800Y-16264000D01*
X45886400Y-12763600D02*
X46150000Y-12500000D01*
X66271500Y-6645300D02*
X65625300Y-6645300D01*
D52*
X42950000Y-25200000D02*
X42950000Y-23450000D01*
D53*
X44157500Y-19000000D02*
X43275000Y-19000000D01*
X44521600Y-12763600D02*
X45886400Y-12763600D01*
X44484000Y-18673500D02*
X45810500Y-20000000D01*
X90693000Y-2206100D02*
X89931100Y-2206100D01*
X66092800Y-24138200D02*
X66092800Y-24730300D01*
X77298000Y-27285500D02*
X76912500Y-26900000D01*
D52*
X42700000Y-25450000D02*
X42950000Y-25200000D01*
D53*
X81917100Y-6343900D02*
X81125000Y-7136000D01*
X75661400Y-7407000D02*
X74519500Y-7407000D01*
X95450100Y-27178200D02*
X94390700Y-27178200D01*
X33347400Y-14919300D02*
X33475000Y-14791700D01*
X80153500Y-24000000D02*
X80344100Y-24190600D01*
D52*
X42450000Y-26450000D02*
X42450000Y-26200000D01*
D53*
X70421600Y-4403400D02*
X70325000Y-4500000D01*
X42330600Y-27255600D02*
X42075000Y-27000000D01*
X71372200Y-4403400D02*
X70421600Y-4403400D01*
X98030200Y-16949800D02*
X97980000Y-17000000D01*
D52*
X42200000Y-26700000D02*
X42450000Y-26450000D01*
D53*
X63644000Y-2218500D02*
X63862500Y-2000000D01*
X33383700Y-20231400D02*
X33475000Y-20140100D01*
X88273800Y-4206200D02*
X87980000Y-4500000D01*
X70241000Y-25021500D02*
X70312500Y-24950000D01*
X85511100Y-28886100D02*
X85425000Y-28800000D01*
X76911100Y-28886100D02*
X76825000Y-28800000D01*
X44447800Y-16264000D02*
X44331300Y-16147500D01*
X66104300Y-17369300D02*
X65615800Y-17369300D01*
X62494300Y-2218500D02*
X63644000Y-2218500D01*
X85611100Y-26801400D02*
X85512500Y-26900000D01*
X44484000Y-18673500D02*
X44484000Y-18671900D01*
D52*
X42075000Y-27000000D02*
X42200000Y-26700000D01*
D53*
X45810500Y-20000000D02*
X46150000Y-20000000D01*
X33475000Y-14791700D02*
X33475000Y-13137500D01*
X54280200Y-20150000D02*
X55500000Y-20150000D01*
X44484000Y-18673500D02*
X44157500Y-19000000D01*
X94111100Y-28886100D02*
X94025000Y-28800000D01*
X94390700Y-27178200D02*
X94112500Y-26900000D01*
D52*
X42450000Y-26200000D02*
X42700000Y-25950000D01*
D53*
X65615800Y-17369300D02*
X64800000Y-16553500D01*
X97597400Y-23692200D02*
X96670300Y-23692200D01*
X77764700Y-28886100D02*
X76911100Y-28886100D01*
X65625300Y-6645300D02*
X65480000Y-6500000D01*
X57036000Y-16214300D02*
X55685700Y-16214300D01*
X77952600Y-27285500D02*
X77298000Y-27285500D01*
X68500200Y-8796100D02*
X67746100Y-8796100D01*
X86982700Y-28886100D02*
X85511100Y-28886100D01*
X96670300Y-23692200D02*
X96362500Y-24000000D01*
X62584800Y-21435200D02*
X62750000Y-21270000D01*
X90700000Y-14999500D02*
X90700000Y-13862500D01*
X62896000Y-8166000D02*
X62750000Y-8020000D01*
X46150000Y-16250000D02*
X44461800Y-16250000D01*
X90655400Y-15044100D02*
X90700000Y-14999500D01*
X99125300Y-12820700D02*
X98159300Y-12820700D01*
X63740300Y-8166000D02*
X62896000Y-8166000D01*
X55685700Y-16214300D02*
X55650000Y-16250000D01*
X53873600Y-12600300D02*
X55549700Y-12600300D01*
X64800000Y-16553500D02*
X64800000Y-16137500D01*
X67746100Y-8796100D02*
X67450000Y-8500000D01*
X44127500Y-16147500D02*
X42980000Y-15000000D01*
D52*
X42700000Y-25950000D02*
X42700000Y-25450000D01*
D53*
X89742500Y-24000000D02*
X87762500Y-24000000D01*
%TO.N,USB_DM*%
X12700600Y-33733400D02*
X11250000Y-32282800D01*
X11250000Y-32282800D02*
X11250000Y-31455000D01*
X10214900Y-31490100D02*
X10214900Y-34852600D01*
X16384700Y-33300000D02*
X15889200Y-33795500D01*
X12982700Y-33795500D02*
X12920600Y-33733400D01*
X10250000Y-31455000D02*
X10214900Y-31490100D01*
X17862500Y-33300000D02*
X16384700Y-33300000D01*
X15889200Y-33795500D02*
X12982700Y-33795500D01*
X12920600Y-33733400D02*
X12700600Y-33733400D01*
%TO.N,USB_DP*%
X11750000Y-30638600D02*
X11511600Y-30400200D01*
X11750000Y-31455000D02*
X11750000Y-30638600D01*
X10750000Y-32413600D02*
X13536400Y-35200000D01*
X13536400Y-35200000D02*
X17862500Y-35200000D01*
X10750000Y-30627700D02*
X10750000Y-31455000D01*
X10977500Y-30400200D02*
X10750000Y-30627700D01*
X11511600Y-30400200D02*
X10977500Y-30400200D01*
X10750000Y-31455000D02*
X10750000Y-32413600D01*
%TO.N,ESP_USB_DP*%
X19309500Y-36028000D02*
X19309500Y-36410900D01*
X12676200Y-18522100D02*
X13162000Y-18522100D01*
X11850000Y-20050000D02*
X11850000Y-19348300D01*
X11850000Y-19348300D02*
X12676200Y-18522100D01*
X20137500Y-35200000D02*
X19309500Y-36028000D01*
%TO.N,VBUS*%
X31300000Y-36905000D02*
X35234600Y-36905000D01*
X36908700Y-33095000D02*
X36700000Y-33095000D01*
X10226300Y-29196600D02*
X8550000Y-30872900D01*
X36282600Y-32677600D02*
X33388800Y-32677600D01*
X37786300Y-34714600D02*
X37786300Y-33972600D01*
X8550000Y-30872900D02*
X8550000Y-31455000D01*
X36700000Y-33095000D02*
X36282600Y-32677600D01*
X30745000Y-36350000D02*
X31300000Y-36905000D01*
X30175000Y-6250000D02*
X31837900Y-7912900D01*
X32614600Y-8614600D02*
X33000000Y-9000000D01*
X20800000Y-34250000D02*
X22050000Y-33000000D01*
X20069800Y-31019800D02*
X17892300Y-31019800D01*
X31837900Y-7912900D02*
X32614600Y-7912900D01*
X17892300Y-31019800D02*
X16805800Y-31019800D01*
X17892300Y-31019800D02*
X17892300Y-29524900D01*
X37500900Y-35000000D02*
X37786300Y-34714600D01*
X32614600Y-7912900D02*
X32614600Y-8614600D01*
X20502200Y-34250000D02*
X20800000Y-34250000D01*
X32614600Y-7912900D02*
X33303000Y-7224500D01*
X37786300Y-33972600D02*
X36908700Y-33095000D01*
X20137500Y-34250000D02*
X20502200Y-34250000D01*
X24334900Y-34250000D02*
X26434900Y-36350000D01*
X35537200Y-35343100D02*
X35880300Y-35000000D01*
X17564000Y-29196600D02*
X10226300Y-29196600D01*
X22050000Y-33000000D02*
X20069800Y-31019800D01*
X13450000Y-30888600D02*
X13450000Y-31455000D01*
X20502200Y-34250000D02*
X24334900Y-34250000D01*
X16208800Y-30422800D02*
X13915800Y-30422800D01*
X17892300Y-29524900D02*
X17564000Y-29196600D01*
X16805800Y-31019800D02*
X16208800Y-30422800D01*
X35234600Y-36905000D02*
X35537200Y-36602400D01*
X35880300Y-35000000D02*
X37500900Y-35000000D01*
X35537200Y-36602400D02*
X35537200Y-35343100D01*
X26434900Y-36350000D02*
X30745000Y-36350000D01*
X13915800Y-30422800D02*
X13450000Y-30888600D01*
X33388800Y-32677600D02*
X32867300Y-32156100D01*
%TO.N,ESP_USB_DM*%
X18707800Y-32343300D02*
X19180800Y-32343300D01*
X11000000Y-20050000D02*
X11000000Y-18644100D01*
X11000000Y-18644100D02*
X11005200Y-18638900D01*
X19180800Y-32343300D02*
X20137500Y-33300000D01*
%TO.N,TIA_NEAR_OUT*%
X64995200Y-11170200D02*
X65825000Y-12000000D01*
X63850000Y-16137500D02*
X63850000Y-16561000D01*
X64392400Y-17103400D02*
X64583400Y-17103400D01*
X62750000Y-11825000D02*
X62750000Y-15037500D01*
X63404800Y-11170200D02*
X64995200Y-11170200D01*
X62750000Y-15037500D02*
X63850000Y-16137500D01*
X64583400Y-17103400D02*
X65480000Y-18000000D01*
X63850000Y-16561000D02*
X64392400Y-17103400D01*
X62750000Y-11825000D02*
X63404800Y-11170200D01*
%TO.N,TIA_BIAS*%
X65550000Y-8500000D02*
X64520000Y-7470000D01*
X67450000Y-10400000D02*
X65550000Y-8500000D01*
D52*
X62450000Y-4700000D02*
X62950000Y-5200000D01*
D53*
X67450000Y-12900000D02*
X70550000Y-12900000D01*
X67713500Y-13163500D02*
X67450000Y-12900000D01*
X88060000Y-12900000D02*
X84960000Y-12900000D01*
X67713500Y-14718400D02*
X67713500Y-13163500D01*
D52*
X63450000Y-950000D02*
X63200000Y-950000D01*
D53*
X64520000Y-7470000D02*
X64520000Y-6500000D01*
D52*
X63700000Y-700000D02*
X63450000Y-950000D01*
X62950000Y-1200000D02*
X62450000Y-1200000D01*
X61950000Y-3950000D02*
X62450000Y-4450000D01*
D53*
X67450000Y-12900000D02*
X67450000Y-10400000D01*
D52*
X61700000Y-1950000D02*
X61700000Y-2950000D01*
D53*
X88060000Y-12900000D02*
X89022500Y-13862500D01*
X65750000Y-16137500D02*
X66294400Y-16137500D01*
X89022500Y-13862500D02*
X89750000Y-13862500D01*
D52*
X70700000Y-2200000D02*
X70325000Y-2000000D01*
D53*
X68675000Y-3650000D02*
X70325000Y-2000000D01*
D52*
X61950000Y-3200000D02*
X61950000Y-3950000D01*
X63862500Y-1050000D02*
X63700000Y-700000D01*
X62450000Y-1200000D02*
X61700000Y-1950000D01*
X64200000Y-6200000D02*
X64520000Y-6500000D01*
D53*
X66294400Y-16137500D02*
X67713500Y-14718400D01*
D52*
X62950000Y-5200000D02*
X63200000Y-5200000D01*
D53*
X66520000Y-4500000D02*
X68675000Y-4500000D01*
D52*
X62450000Y-4450000D02*
X62450000Y-4700000D01*
D53*
X64520000Y-6500000D02*
X66520000Y-4500000D01*
D52*
X63200000Y-950000D02*
X62950000Y-1200000D01*
X63200000Y-5200000D02*
X64200000Y-6200000D01*
D53*
X68675000Y-4500000D02*
X68675000Y-3650000D01*
D52*
X61700000Y-2950000D02*
X61950000Y-3200000D01*
%TO.N,TIA_N_IN*%
D53*
X67111800Y-14469200D02*
X66356700Y-14469200D01*
X65148600Y-18628600D02*
X64520000Y-18000000D01*
X70550000Y-17100000D02*
X68877700Y-15427700D01*
X69021400Y-18628600D02*
X65148600Y-18628600D01*
X64175000Y-12000000D02*
X65750000Y-13575000D01*
X68877700Y-15427700D02*
X68302800Y-15427700D01*
X70550000Y-17100000D02*
X69021400Y-18628600D01*
X65750000Y-13575000D02*
X65750000Y-13862500D01*
X66356700Y-14469200D02*
X65750000Y-13862500D01*
%TO.N,3V3_A*%
X29000000Y-18950000D02*
X28044600Y-18950000D01*
X65480100Y-29045700D02*
X66179300Y-29045700D01*
X45914500Y-21485500D02*
X46150000Y-21250000D01*
X98637500Y-23934700D02*
X98637500Y-23050000D01*
X41725000Y-15698600D02*
X42020000Y-15403600D01*
X28044600Y-18950000D02*
X27537300Y-18442700D01*
X40877600Y-15698600D02*
X41725000Y-15698600D01*
X66209800Y-2000000D02*
X66137500Y-1927700D01*
X42020000Y-15403600D02*
X42020000Y-15000000D01*
X40452400Y-21241300D02*
X41433700Y-21241300D01*
X70338900Y-28886100D02*
X70425000Y-28800000D01*
X27263400Y-20514500D02*
X27748900Y-21000000D01*
X90947300Y-22123500D02*
X90947300Y-22125100D01*
X90947300Y-22125100D02*
X90947300Y-22123500D01*
X44544900Y-21485500D02*
X45914500Y-21485500D01*
X32758100Y-13070600D02*
X32825000Y-13137500D01*
X98572200Y-24000000D02*
X98637500Y-23934700D01*
X68974000Y-7926900D02*
X69400900Y-7500000D01*
X67096600Y-2069800D02*
X68605200Y-2069800D01*
X53560700Y-21219800D02*
X55619800Y-21219800D01*
X69400900Y-7500000D02*
X70425000Y-7500000D01*
X90655400Y-16612000D02*
X91175500Y-16612000D01*
X41725000Y-17000000D02*
X41725000Y-15698600D01*
X55619800Y-21219800D02*
X55650000Y-21250000D01*
X64482500Y-14495000D02*
X63850000Y-13862500D01*
X60663500Y-27538500D02*
X61925000Y-28800000D01*
X69250000Y-28886100D02*
X70338900Y-28886100D01*
X80976100Y-23050000D02*
X81437500Y-23050000D01*
X31820100Y-18566500D02*
X31820100Y-18862500D01*
X31820100Y-18862500D02*
X29087500Y-18862500D01*
X64732100Y-14495000D02*
X64482500Y-14495000D01*
X26137500Y-17050000D02*
X27530200Y-18442700D01*
X66137500Y-1927700D02*
X66137500Y-1050000D01*
X27530200Y-18442700D02*
X27537300Y-18442700D01*
X66179300Y-29045700D02*
X66425000Y-28800000D01*
X80300000Y-22373900D02*
X80976100Y-23050000D01*
X90947300Y-22125100D02*
X90037500Y-23034900D01*
X90947300Y-22125100D02*
X90947300Y-22123500D01*
X31820100Y-13070600D02*
X32758100Y-13070600D01*
X41725000Y-13000000D02*
X40783600Y-12058600D01*
X41433700Y-21241300D02*
X41675000Y-21000000D01*
X68605200Y-2069800D02*
X68675000Y-2000000D01*
X27748900Y-21000000D02*
X28175000Y-21000000D01*
X91175500Y-16612000D02*
X91650000Y-16137500D01*
D52*
X41725000Y-17000000D02*
X41950000Y-16950000D01*
D53*
X29087500Y-18862500D02*
X29000000Y-18950000D01*
X90037500Y-23034900D02*
X90037500Y-23050000D01*
X40783600Y-12058600D02*
X40783600Y-11943900D01*
X32825000Y-18862500D02*
X31820100Y-18862500D01*
%TO.N,EN660*%
X44772200Y-10148600D02*
X46001400Y-10148600D01*
X55650000Y-10000000D02*
X48835400Y-10000000D01*
X4000000Y-13050000D02*
X3298300Y-13050000D01*
X63575000Y-28800000D02*
X64532900Y-28800000D01*
D52*
X3298300Y-13050000D02*
X2950000Y-12700000D01*
D53*
X64532900Y-28800000D02*
X65136300Y-28196600D01*
X46001400Y-10148600D02*
X46150000Y-10000000D01*
X48835400Y-10000000D02*
X48776400Y-9941000D01*
X71577500Y-5050000D02*
X70294400Y-6333100D01*
X48776400Y-9941000D02*
X46209000Y-9941000D01*
X74062500Y-5050000D02*
X71577500Y-5050000D01*
X46209000Y-9941000D02*
X46150000Y-10000000D01*
%TO.N,ISET_810*%
X74601500Y-21767500D02*
X74534600Y-21834400D01*
X86480000Y-21767500D02*
X74601500Y-21767500D01*
X68187500Y-23778700D02*
X68187500Y-24000000D01*
X87762500Y-23050000D02*
X86480000Y-21767500D01*
X68187500Y-24000000D02*
X68075000Y-24112500D01*
X68075000Y-24112500D02*
X68075000Y-26900000D01*
X74534600Y-21834400D02*
X70131800Y-21834400D01*
X70131800Y-21834400D02*
X68187500Y-23778700D01*
%TO.N,PPATH_G*%
X35665800Y-1196700D02*
X35562500Y-1300000D01*
X34120700Y-2741800D02*
X35562500Y-1300000D01*
X33148700Y-6250000D02*
X34120700Y-5278000D01*
X44121700Y-1196700D02*
X35665800Y-1196700D01*
X45175000Y-2250000D02*
X44121700Y-1196700D01*
X34120700Y-5278000D02*
X34120700Y-2741800D01*
X31825000Y-6250000D02*
X33148700Y-6250000D01*
%TO.N,GATE_850_D*%
X96675000Y-26900000D02*
X97020000Y-26900000D01*
X98637500Y-25282500D02*
X98637500Y-24950000D01*
X97020000Y-26900000D02*
X98637500Y-25282500D01*
X97020000Y-26900000D02*
X97020000Y-28800000D01*
%TO.N,EN810*%
X54040300Y-8750000D02*
X55650000Y-8750000D01*
X46150000Y-8750000D02*
X54040300Y-8750000D01*
X65244600Y-24474500D02*
X65244600Y-24117900D01*
X4701700Y-13829900D02*
X4701700Y-13900000D01*
X65244600Y-25259600D02*
X65244600Y-24474500D01*
X67250000Y-26461600D02*
X66513900Y-25725500D01*
X54040300Y-9373400D02*
X54040300Y-8750000D01*
X65710500Y-25725500D02*
X65244600Y-25259600D01*
X67250000Y-27975000D02*
X67250000Y-26461600D01*
X68075000Y-28800000D02*
X67250000Y-27975000D01*
X66513900Y-25725500D02*
X65710500Y-25725500D01*
X65244600Y-24117900D02*
X66312500Y-23050000D01*
X4000000Y-13900000D02*
X4701700Y-13900000D01*
X5273600Y-13258000D02*
X4701700Y-13829900D01*
X65244600Y-24474500D02*
X58170500Y-24474500D01*
%TO.N,TIA_FAR_OUT*%
X91650000Y-13862500D02*
X92543800Y-12968700D01*
X92258700Y-14471200D02*
X92258700Y-16971300D01*
X92613300Y-12899200D02*
X93574200Y-12899200D01*
X93574200Y-12899200D02*
X93675000Y-13000000D01*
X91650000Y-13862500D02*
X92258700Y-14471200D01*
X91575000Y-12000000D02*
X92543800Y-12968700D01*
X92258700Y-16971300D02*
X91230000Y-18000000D01*
X92543800Y-12968700D02*
X92613300Y-12899200D01*
%TO.N,TIA_F_IN*%
X84523200Y-12000000D02*
X84133000Y-12390200D01*
X89370000Y-16517500D02*
X89750000Y-16137500D01*
X89370000Y-17100000D02*
X89370000Y-16517500D01*
X86914700Y-16137500D02*
X89750000Y-16137500D01*
X89925000Y-12000000D02*
X84523200Y-12000000D01*
X88060000Y-17100000D02*
X89370000Y-17100000D01*
X84133000Y-13355800D02*
X86914700Y-16137500D01*
X89370000Y-17100000D02*
X90270000Y-18000000D01*
X84133000Y-12390200D02*
X84133000Y-13355800D01*
%TO.N,CBL_AIN0P*%
X47535800Y-18828900D02*
X46228900Y-18828900D01*
X37249000Y-21926000D02*
X36175000Y-23000000D01*
X48609500Y-10625000D02*
X48527200Y-10542700D01*
X37249000Y-21769800D02*
X37249000Y-21926000D01*
X62300000Y-10625000D02*
X48609500Y-10625000D01*
X62750000Y-10175000D02*
X62300000Y-10625000D01*
X55309700Y-19090300D02*
X55650000Y-18750000D01*
X46490300Y-19090300D02*
X55309700Y-19090300D01*
X62750000Y-8980000D02*
X62750000Y-10175000D01*
X46228900Y-18828900D02*
X46150000Y-18750000D01*
X46150000Y-18750000D02*
X46490300Y-19090300D01*
%TO.N,AIN0P*%
X40770000Y-23000000D02*
X37825000Y-23000000D01*
X37688700Y-23000000D02*
X36871400Y-23817300D01*
X36871400Y-23817300D02*
X35775100Y-23817300D01*
X34125000Y-21507900D02*
X34125000Y-18862500D01*
X35388100Y-22771000D02*
X34125000Y-21507900D01*
X35775100Y-23817300D02*
X35388100Y-23430300D01*
X37825000Y-23000000D02*
X37688700Y-23000000D01*
X35388100Y-23430300D02*
X35388100Y-22771000D01*
%TO.N,PROG*%
X31300000Y-34365000D02*
X30839200Y-34365000D01*
X25837100Y-9317600D02*
X24519500Y-8000000D01*
X24519500Y-8000000D02*
X24175000Y-8000000D01*
X30839200Y-34365000D02*
X29947700Y-33473500D01*
%TO.N,VBAT*%
X37128100Y-32069000D02*
X35869000Y-32069000D01*
X39431400Y-34372300D02*
X37128100Y-32069000D01*
X39431400Y-34372300D02*
X42403700Y-31400000D01*
X34800000Y-31000000D02*
X34660900Y-30860900D01*
X34660900Y-30860900D02*
X34660900Y-29687000D01*
X38839700Y-2585900D02*
X38503800Y-2250000D01*
X36898700Y-36905000D02*
X39431400Y-34372300D01*
X20425000Y-8000000D02*
X21841900Y-6583100D01*
X36700000Y-36905000D02*
X36898700Y-36905000D01*
X35869000Y-32069000D02*
X34800000Y-31000000D01*
X21841900Y-6583100D02*
X22003300Y-6583100D01*
X42403700Y-31400000D02*
X43000000Y-31400000D01*
X38503800Y-2250000D02*
X37437500Y-2250000D01*
%TO.N,CHG_STAT*%
X17052000Y-16450000D02*
X16885100Y-16616900D01*
X17298300Y-16450000D02*
X17052000Y-16450000D01*
X21508900Y-31165900D02*
X21205900Y-30862900D01*
X18000000Y-16450000D02*
X17298300Y-16450000D01*
X31175000Y-31165900D02*
X31175000Y-31000000D01*
X35310600Y-33147700D02*
X36527900Y-34365000D01*
X36527900Y-34365000D02*
X36700000Y-34365000D01*
X31175000Y-31165900D02*
X21508900Y-31165900D01*
X31175000Y-31314600D02*
X33008100Y-33147700D01*
X33008100Y-33147700D02*
X35310600Y-33147700D01*
X31175000Y-31165900D02*
X31175000Y-31314600D01*
%TO.N,ADC_CLKIN*%
X31605900Y-29569100D02*
X32175000Y-29000000D01*
X6623400Y-16450000D02*
X6645400Y-16472000D01*
X4000000Y-16450000D02*
X6623400Y-16450000D01*
X30911000Y-29569100D02*
X31605900Y-29569100D01*
%TO.N,ADC_CLKIN_R*%
X33825000Y-29145600D02*
X33825000Y-29000000D01*
X34211900Y-11892300D02*
X32642400Y-11892300D01*
X34775000Y-13137500D02*
X34775000Y-12455400D01*
X34775000Y-12455400D02*
X34211900Y-11892300D01*
X33000000Y-29970600D02*
X33825000Y-29145600D01*
%TO.N,GATE_810_D*%
X89778600Y-29412200D02*
X89032200Y-29412200D01*
X88362900Y-26791600D02*
X89989400Y-28418100D01*
X90037500Y-24950000D02*
X88362900Y-26624600D01*
X88362900Y-26791600D02*
X88183400Y-26791600D01*
X89989400Y-28418100D02*
X89989400Y-29201400D01*
X89989400Y-29201400D02*
X89778600Y-29412200D01*
X88183400Y-26791600D02*
X88075000Y-26900000D01*
X88362900Y-26624600D02*
X88362900Y-26791600D01*
X89032200Y-29412200D02*
X88420000Y-28800000D01*
%TO.N,VSYS*%
X35562500Y-7200000D02*
X35562500Y-8880000D01*
X24238400Y-17050000D02*
X23862500Y-17050000D01*
X24536000Y-13314700D02*
X24876300Y-13655000D01*
X24963600Y-17775200D02*
X24238400Y-17050000D01*
X27849700Y-10001000D02*
X29000000Y-10001000D01*
X29210900Y-10211900D02*
X29000000Y-10001000D01*
X24536000Y-13314700D02*
X27849700Y-10001000D01*
X24271300Y-13050000D02*
X24536000Y-13314700D01*
X23862500Y-17050000D02*
X22824200Y-17050000D01*
X36484800Y-3200000D02*
X36137800Y-3200000D01*
X34522600Y-4815200D02*
X34522600Y-6160100D01*
X23862500Y-14950000D02*
X21425000Y-14950000D01*
X23862500Y-13050000D02*
X24271300Y-13050000D01*
X24876300Y-13655000D02*
X24876300Y-14309000D01*
X24876300Y-14309000D02*
X24235300Y-14950000D01*
X21250000Y-18624200D02*
X21250000Y-18775000D01*
X22824200Y-17050000D02*
X21250000Y-18624200D01*
X40300000Y-2250000D02*
X39350000Y-3200000D01*
X35562500Y-8880000D02*
X34230600Y-10211900D01*
X34522600Y-6160100D02*
X35562500Y-7200000D01*
X26106200Y-25568800D02*
X26106200Y-21995900D01*
X25675000Y-26000000D02*
X26106200Y-25568800D01*
X29000000Y-10001000D02*
X29000000Y-9000000D01*
X36137800Y-3200000D02*
X34522600Y-4815200D01*
X26106200Y-21995900D02*
X24963600Y-20853300D01*
X24963600Y-20853300D02*
X24963600Y-17775200D01*
X24235300Y-14950000D02*
X23862500Y-14950000D01*
X36484800Y-3200000D02*
X35562500Y-3200000D01*
X23862500Y-14950000D02*
X23862500Y-17050000D01*
X21425000Y-14950000D02*
X21250000Y-14775000D01*
X34230600Y-10211900D02*
X29210900Y-10211900D01*
X39350000Y-3200000D02*
X36484800Y-3200000D01*
%TO.N,TIA_BIAS_BUF*%
X63862500Y-2950000D02*
X63862500Y-3846500D01*
X63862500Y-3846500D02*
X63262700Y-4446300D01*
X93675000Y-17919900D02*
X92858900Y-18736000D01*
X63382400Y-19825000D02*
X62750000Y-19825000D01*
X63862500Y-2950000D02*
X66137500Y-2950000D01*
X63979800Y-19227600D02*
X63382400Y-19825000D01*
X93675000Y-17000000D02*
X93675000Y-17919900D01*
%TO.N,VLED*%
X77150000Y-12303800D02*
X77150000Y-11000000D01*
X44354800Y-23383300D02*
X45783300Y-23383300D01*
X74465000Y-14312500D02*
X75627400Y-13150100D01*
X74025000Y-20302500D02*
X74025000Y-19800000D01*
X62601700Y-23750000D02*
X64951100Y-21400600D01*
X74725000Y-17500000D02*
X74025000Y-18200000D01*
X37437500Y-6250000D02*
X40346200Y-6250000D01*
X76303700Y-13150100D02*
X77150000Y-12303800D01*
X74725000Y-17500000D02*
X74465000Y-17240000D01*
D52*
X65200000Y-21450000D02*
X64951100Y-21400600D01*
D53*
X74465000Y-17240000D02*
X74465000Y-15687500D01*
X45783300Y-23383300D02*
X46150000Y-23750000D01*
D52*
X69200000Y-21450000D02*
X65200000Y-21450000D01*
D53*
X74465000Y-14312500D02*
X74465000Y-15687500D01*
X75627400Y-13150100D02*
X76303700Y-13150100D01*
X46262200Y-23862200D02*
X55537800Y-23862200D01*
X55537800Y-23862200D02*
X55650000Y-23750000D01*
X74025000Y-18200000D02*
X74025000Y-19800000D01*
X40346200Y-6250000D02*
X40366900Y-6270700D01*
D52*
X74025000Y-20302500D02*
X73700000Y-20200000D01*
D53*
X46150000Y-23750000D02*
X46262200Y-23862200D01*
X55650000Y-23750000D02*
X62601700Y-23750000D01*
%TO.N,CBL_AIN1P*%
X96232700Y-13449100D02*
X95774100Y-13449100D01*
X37219900Y-28044900D02*
X40650600Y-28044900D01*
X46150000Y-15000000D02*
X55650000Y-15000000D01*
X44766400Y-14841900D02*
X45991900Y-14841900D01*
X45991900Y-14841900D02*
X46150000Y-15000000D01*
X95325000Y-13000000D02*
X97020000Y-13000000D01*
X95774100Y-13449100D02*
X95325000Y-13000000D01*
X36175000Y-27000000D02*
X37219900Y-28044900D01*
%TO.N,CBL_AIN1N*%
X46150000Y-13750000D02*
X46092500Y-13807500D01*
X96904900Y-16884900D02*
X97020000Y-17000000D01*
X55650000Y-13750000D02*
X46150000Y-13750000D01*
X97020000Y-17000000D02*
X95325000Y-17000000D01*
X37274800Y-30064500D02*
X36210300Y-29000000D01*
X96232700Y-16884900D02*
X96904900Y-16884900D01*
X46092500Y-13807500D02*
X40005700Y-13807500D01*
X36210300Y-29000000D02*
X36175000Y-29000000D01*
X37897400Y-30064500D02*
X37274800Y-30064500D01*
X40005700Y-13807500D02*
X39911700Y-13713500D01*
%TO.N,NTC_SNS*%
X79475000Y-7500000D02*
X77371800Y-5396800D01*
X44703000Y-11469400D02*
X44922400Y-11250000D01*
X74702000Y-5858300D02*
X74702000Y-5858400D01*
X44922400Y-11250000D02*
X46150000Y-11250000D01*
X7794900Y-16181600D02*
X7848900Y-16181600D01*
X77371800Y-5396800D02*
X75163500Y-5396800D01*
X69841600Y-9094200D02*
X70480800Y-9094200D01*
X69841600Y-9094200D02*
X69587000Y-9094200D01*
X46150000Y-11250000D02*
X55650000Y-11250000D01*
X70480800Y-9094200D02*
X72075000Y-7500000D01*
X7213300Y-15600000D02*
X7794900Y-16181600D01*
X74702000Y-5858400D02*
X73716600Y-5858400D01*
X75163500Y-5396800D02*
X74702000Y-5858300D01*
X73716600Y-5858400D02*
X72075000Y-7500000D01*
X4000000Y-15600000D02*
X7213300Y-15600000D01*
%TO.N,EN850*%
X71112700Y-23306200D02*
X71166000Y-23306200D01*
X46150000Y-7500000D02*
X55650000Y-7500000D01*
X70568700Y-23306200D02*
X71112700Y-23306200D01*
X71312000Y-25612800D02*
X71312000Y-28037000D01*
X3298300Y-14690400D02*
X3086600Y-14478700D01*
X43802600Y-7342300D02*
X45992300Y-7342300D01*
X71312000Y-28037000D02*
X72075000Y-28800000D01*
X45992300Y-7342300D02*
X46150000Y-7500000D01*
X3298300Y-14750000D02*
X3298300Y-14690400D01*
X71374000Y-24623900D02*
X71374000Y-25550800D01*
X70312500Y-23050000D02*
X70568700Y-23306200D01*
X71374000Y-25550800D02*
X71312000Y-25612800D01*
X71112700Y-23306200D02*
X71112700Y-24362600D01*
X71166000Y-23306200D02*
X71941900Y-22530300D01*
X4000000Y-14750000D02*
X3298300Y-14750000D01*
X71112700Y-24362600D02*
X71374000Y-24623900D01*
%TO.N,ISET_PWM*%
X55650000Y-6250000D02*
X46150000Y-6250000D01*
X55650000Y-6250000D02*
X55650000Y-5253200D01*
X83346500Y-1390200D02*
X84065200Y-1390200D01*
X7795700Y-18893600D02*
X7600000Y-19089300D01*
X7600000Y-19089300D02*
X7600000Y-20050000D01*
X84065200Y-1390200D02*
X84675000Y-2000000D01*
%TO.N,AIN1P*%
X40770000Y-25000000D02*
X39751200Y-26018800D01*
X38883000Y-20853100D02*
X37962400Y-19932500D01*
X37962400Y-19932500D02*
X36444700Y-19932500D01*
X36075000Y-19562800D02*
X36075000Y-18862500D01*
X39751200Y-26018800D02*
X39561700Y-26018800D01*
X38580500Y-27000000D02*
X39561700Y-26018800D01*
X36444700Y-19932500D02*
X36075000Y-19562800D01*
X37825000Y-27000000D02*
X38580500Y-27000000D01*
%TO.N,AIN1N*%
X41372500Y-25357500D02*
X41372500Y-28205400D01*
X42344100Y-22632800D02*
X42344100Y-24385900D01*
X36610400Y-20766300D02*
X37847300Y-20766300D01*
X41554400Y-21843100D02*
X42344100Y-22632800D01*
X40577900Y-29000000D02*
X37825000Y-29000000D01*
X41372500Y-28205400D02*
X40577900Y-29000000D01*
X41730000Y-25000000D02*
X41372500Y-25357500D01*
X35425000Y-18862500D02*
X35425000Y-19580900D01*
X35425000Y-19580900D02*
X36610400Y-20766300D01*
X42344100Y-24385900D02*
X41730000Y-25000000D01*
X38924100Y-21843100D02*
X41554400Y-21843100D01*
X37847300Y-20766300D02*
X38924100Y-21843100D01*
%TO.N,BOOT*%
X4853800Y-9650000D02*
X5097100Y-9406700D01*
X12150000Y-24100000D02*
X5850000Y-24100000D01*
X2825000Y-22000000D02*
X3759300Y-22000000D01*
X2825000Y-22000000D02*
X4698300Y-23873300D01*
X4698300Y-23873300D02*
X4698300Y-24100000D01*
X4000000Y-9650000D02*
X4853800Y-9650000D01*
X3759300Y-22000000D02*
X4306000Y-21453300D01*
X5850000Y-24100000D02*
X4698300Y-24100000D01*
%TO.N,ADC_SCLK*%
X13661800Y-22287200D02*
X13732200Y-22216800D01*
X31504300Y-23973800D02*
X32175000Y-24644500D01*
X5050000Y-20050000D02*
X5050000Y-20751700D01*
X6585500Y-22287200D02*
X13661800Y-22287200D01*
X5050000Y-20751700D02*
X6585500Y-22287200D01*
X32175000Y-24644500D02*
X32175000Y-25000000D01*
%TO.N,ADC_SCLK_R*%
X36725000Y-13137500D02*
X36725000Y-12025600D01*
X34745500Y-25192100D02*
X34017100Y-25192100D01*
X34017100Y-25192100D02*
X33825000Y-25000000D01*
X36725000Y-12025600D02*
X36571000Y-11871600D01*
%TO.N,VBAT_SNS*%
X4000000Y-10500000D02*
X5121800Y-10500000D01*
X39594800Y-9324800D02*
X40770000Y-10500000D01*
X20772100Y-10500000D02*
X22003300Y-9268800D01*
D52*
X38200000Y-9950000D02*
X37700000Y-9950000D01*
X38450000Y-9700000D02*
X38200000Y-9950000D01*
D53*
X39147100Y-9324800D02*
X39594800Y-9324800D01*
X22003300Y-9268800D02*
X22075000Y-9197100D01*
X20425000Y-10500000D02*
X20772100Y-10500000D01*
X22075000Y-9197100D02*
X22075000Y-8000000D01*
D52*
X33700000Y-10950000D02*
X32200000Y-10950000D01*
X39147100Y-9324800D02*
X38950000Y-9450000D01*
X38950000Y-9450000D02*
X38700000Y-9700000D01*
X32200000Y-10950000D02*
X31450000Y-11700000D01*
X35700000Y-10200000D02*
X35450000Y-10450000D01*
X33950000Y-10700000D02*
X33700000Y-10950000D01*
X34700000Y-10450000D02*
X34450000Y-10700000D01*
D53*
X5121800Y-10500000D02*
X5166700Y-10544900D01*
D52*
X34450000Y-10700000D02*
X33950000Y-10700000D01*
X37700000Y-9950000D02*
X37450000Y-10200000D01*
X37450000Y-10200000D02*
X35700000Y-10200000D01*
X38700000Y-9700000D02*
X38450000Y-9700000D01*
X35450000Y-10450000D02*
X34700000Y-10450000D01*
%TO.N,VSNS_LO*%
D53*
X22075000Y-10500000D02*
X23416100Y-10500000D01*
X22937500Y-22158500D02*
X22640300Y-21861300D01*
X22937500Y-23500000D02*
X22937500Y-22158500D01*
X23416100Y-10500000D02*
X23475100Y-10441000D01*
%TO.N,AIN0N*%
X41652600Y-23000000D02*
X41652600Y-23077400D01*
X38757800Y-22244800D02*
X40990100Y-22244800D01*
X39730000Y-25000000D02*
X37825000Y-25000000D01*
X41652600Y-23077400D02*
X39730000Y-25000000D01*
X40990100Y-22244800D02*
X41652600Y-22907300D01*
X37681000Y-21168000D02*
X38757800Y-22244800D01*
X34775000Y-19594000D02*
X36349000Y-21168000D01*
X36349000Y-21168000D02*
X37681000Y-21168000D01*
X41652600Y-22907300D02*
X41652600Y-23000000D01*
X41730000Y-23000000D02*
X41652600Y-23000000D01*
X34775000Y-18862500D02*
X34775000Y-19594000D01*
%TO.N,LED_STAT*%
X12700000Y-20751700D02*
X13926700Y-20751700D01*
X12700000Y-20050000D02*
X12700000Y-20751700D01*
X13926700Y-20751700D02*
X15175000Y-22000000D01*
%TO.N,VLED_G*%
X35838700Y-4349900D02*
X36175700Y-4686800D01*
X39216700Y-4686800D02*
X39142600Y-4612700D01*
X27325000Y-26000000D02*
X33054400Y-26000000D01*
X35562500Y-5300000D02*
X36175700Y-4686800D01*
X39142600Y-4612700D02*
X38644300Y-4612700D01*
X38570200Y-4686800D02*
X36175700Y-4686800D01*
X38644300Y-4612700D02*
X38570200Y-4686800D01*
X41102000Y-4686800D02*
X39216700Y-4686800D01*
X42187500Y-5772300D02*
X41102000Y-4686800D01*
X33054400Y-26000000D02*
X33127600Y-25926800D01*
X42187500Y-6250000D02*
X42187500Y-5772300D01*
%TO.N,TXD0*%
X19215300Y-12200000D02*
X19463300Y-12448000D01*
X18000000Y-12200000D02*
X18701700Y-12200000D01*
X18701700Y-12200000D02*
X19215300Y-12200000D01*
%TO.N,RXD0*%
X18000000Y-11350000D02*
X18701700Y-11350000D01*
X18701700Y-11350000D02*
X23490400Y-11350000D01*
X23490400Y-11350000D02*
X24950400Y-9890000D01*
X24950400Y-9890000D02*
X24950400Y-9779500D01*
%TO.N,CC2*%
X20780500Y-28800500D02*
X20425000Y-29156000D01*
X12720600Y-31484400D02*
X12720600Y-32825100D01*
X12750000Y-31455000D02*
X12720600Y-31484400D01*
X20425000Y-29156000D02*
X20425000Y-30000000D01*
%TO.N,SHIELD*%
X15320000Y-37651700D02*
X20868300Y-37651700D01*
X20868300Y-37651700D02*
X22520000Y-36000000D01*
X15320000Y-36550000D02*
X15320000Y-37651700D01*
%TO.N,RESET*%
X5911100Y-8114600D02*
X5773400Y-7976900D01*
X16283700Y-8114600D02*
X5911100Y-8114600D01*
X17298300Y-7100000D02*
X16283700Y-8114600D01*
X18000000Y-7100000D02*
X17298300Y-7100000D01*
X2417400Y-26177400D02*
X1240000Y-25000000D01*
X1240000Y-25000000D02*
X1225000Y-25000000D01*
X3325000Y-27000000D02*
X2502400Y-26177400D01*
X2502400Y-26177400D02*
X2417400Y-26177400D01*
%TO.N,ISET_850*%
X72075000Y-26900000D02*
X72187500Y-26787500D01*
X96295300Y-22982800D02*
X96362500Y-23050000D01*
X72187500Y-24000000D02*
X73251400Y-24000000D01*
X72187500Y-26787500D02*
X72187500Y-24000000D01*
X93603900Y-22982800D02*
X96295300Y-22982800D01*
X73251400Y-24000000D02*
X73564800Y-23686600D01*
%TO.N,ANALOG_EN*%
D52*
X22200000Y-21200000D02*
X22700000Y-20700000D01*
D53*
X40312500Y-5300000D02*
X38979000Y-5300000D01*
X10150000Y-21614800D02*
X10195700Y-21660500D01*
X22956900Y-19855600D02*
X23862500Y-18950000D01*
D52*
X22700000Y-20700000D02*
X22956900Y-20462200D01*
D53*
X10150000Y-20050000D02*
X10150000Y-21614800D01*
X22956900Y-20462200D02*
X22956900Y-19855600D01*
X38979000Y-5300000D02*
X38893400Y-5214400D01*
D52*
X17700000Y-21200000D02*
X22200000Y-21200000D01*
%TO.N,LED660_K*%
D53*
X75531200Y-24032400D02*
X76905100Y-24032400D01*
X76834500Y-14350000D02*
X77408800Y-14924300D01*
X76270000Y-14350000D02*
X76834500Y-14350000D01*
X76905100Y-24032400D02*
X76937500Y-24000000D01*
%TO.N,CC1*%
X17175000Y-30000000D02*
X17124800Y-29949800D01*
X17124800Y-29949800D02*
X10481700Y-29949800D01*
X9750000Y-30681500D02*
X9750000Y-31455000D01*
X10481700Y-29949800D02*
X9750000Y-30681500D01*
%TO.N,ADC_SYNC_RESET*%
X4856400Y-17145300D02*
X4701700Y-17300000D01*
X41527800Y-18023900D02*
X42014000Y-18023900D01*
X13628000Y-15199800D02*
X13628000Y-15348700D01*
X38675000Y-15003700D02*
X38899800Y-15228500D01*
X42500000Y-18509900D02*
X42500000Y-20175000D01*
X42014000Y-18023900D02*
X42500000Y-18509900D01*
X38899800Y-15228500D02*
X38899800Y-15395900D01*
X4000000Y-17300000D02*
X4701700Y-17300000D01*
X13824800Y-15003100D02*
X13628100Y-15199800D01*
X38899800Y-15395900D02*
X41527800Y-18023900D01*
X13628000Y-15348700D02*
X11831400Y-17145300D01*
X13628100Y-15199800D02*
X13628000Y-15199800D01*
X42500000Y-20175000D02*
X43325000Y-21000000D01*
X38675000Y-13137500D02*
X38675000Y-15003700D01*
X11831400Y-17145300D02*
X4856400Y-17145300D01*
%TO.N,ADC_CAP*%
X34125000Y-13137500D02*
X34125000Y-14368800D01*
X34125000Y-14368800D02*
X35047600Y-15291400D01*
X38016400Y-15291400D02*
X41725000Y-19000000D01*
X35047600Y-15291400D02*
X38016400Y-15291400D01*
%TO.N,VBAT_SNS_EN*%
X19029600Y-22550000D02*
X18475400Y-21995800D01*
X21062500Y-22550000D02*
X19029600Y-22550000D01*
X4000000Y-11350000D02*
X7564900Y-11350000D01*
X9809100Y-9105800D02*
X11212100Y-9105800D01*
X7564900Y-11350000D02*
X9809100Y-9105800D01*
%TO.N,ADC_SDI*%
X32175000Y-27000000D02*
X32044600Y-26869600D01*
X32044600Y-26869600D02*
X31267400Y-26869600D01*
X3179900Y-19118400D02*
X3298300Y-19000000D01*
X4000000Y-19000000D02*
X3298300Y-19000000D01*
X2742600Y-19118400D02*
X3179900Y-19118400D01*
%TO.N,ADC_SDO*%
X36075000Y-14395900D02*
X35967000Y-14503900D01*
X5900000Y-20050000D02*
X5900000Y-18268000D01*
X5900000Y-18268000D02*
X5379000Y-17747000D01*
X36075000Y-13137500D02*
X36075000Y-14395900D01*
%TO.N,ADC_DRDY*%
X6750000Y-20050000D02*
X6750000Y-19348300D01*
X6750000Y-19348300D02*
X6514600Y-19112900D01*
X6514600Y-19112900D02*
X6514600Y-18177000D01*
X37375000Y-14554700D02*
X37441700Y-14621400D01*
X37375000Y-13137500D02*
X37375000Y-14554700D01*
%TO.N,GATE_660*%
X81125000Y-27904700D02*
X81125000Y-26900000D01*
X74013800Y-24098700D02*
X74013800Y-27709300D01*
X75062500Y-23050000D02*
X74013800Y-24098700D01*
X81097100Y-27932600D02*
X81125000Y-27904700D01*
X74243900Y-27939400D02*
X74314400Y-27939400D01*
X74314400Y-27939400D02*
X75175000Y-28800000D01*
X74013800Y-27709300D02*
X74243900Y-27939400D01*
%TO.N,ADC_SDI_R*%
X34073000Y-27248000D02*
X33825000Y-27000000D01*
X34744300Y-27248000D02*
X34073000Y-27248000D01*
X35425000Y-13137500D02*
X35425000Y-14154600D01*
X35425000Y-14154600D02*
X35093300Y-14486300D01*
%TD*%
M02*
