%TF.GenerationSoftware,KiCad,Pcbnew,10.0.4*%
%TF.CreationDate,2026-08-10T16:35:19+01:00*%
%TF.ProjectId,pallorhb_ppg,70616c6c-6f72-4686-925f-7070672e6b69,rev?*%
%TF.SameCoordinates,Original*%
%TF.FileFunction,Paste,Top*%
%TF.FilePolarity,Positive*%
%FSLAX46Y46*%
G04 Gerber Fmt 4.6, Leading zero omitted, Abs format (unit mm)*
G04 Created by KiCad (PCBNEW 10.0.4) date 2026-08-10 16:35:19*
%MOMM*%
%LPD*%
G01*
G04 APERTURE LIST*
G04 Aperture macros list*
%AMRoundRect*
0 Rectangle with rounded corners*
0 $1 Rounding radius*
0 $2 $3 $4 $5 $6 $7 $8 $9 X,Y pos of 4 corners*
0 Add a 4 corners polygon primitive as box body*
4,1,4,$2,$3,$4,$5,$6,$7,$8,$9,$2,$3,0*
0 Add four circle primitives for the rounded corners*
1,1,$1+$1,$2,$3*
1,1,$1+$1,$4,$5*
1,1,$1+$1,$6,$7*
1,1,$1+$1,$8,$9*
0 Add four rect primitives between the rounded corners*
20,1,$1+$1,$2,$3,$4,$5,0*
20,1,$1+$1,$4,$5,$6,$7,0*
20,1,$1+$1,$6,$7,$8,$9,0*
20,1,$1+$1,$8,$9,$2,$3,0*%
%AMOutline5P*
0 Free polygon, 5 corners , with rotation*
0 The origin of the aperture is its center*
0 number of corners: always 5*
0 $1 to $10 corner X, Y*
0 $11 Rotation angle, in degrees counterclockwise*
0 create outline with 5 corners*
4,1,5,$1,$2,$3,$4,$5,$6,$7,$8,$9,$10,$1,$2,$11*%
%AMOutline6P*
0 Free polygon, 6 corners , with rotation*
0 The origin of the aperture is its center*
0 number of corners: always 6*
0 $1 to $12 corner X, Y*
0 $13 Rotation angle, in degrees counterclockwise*
0 create outline with 6 corners*
4,1,6,$1,$2,$3,$4,$5,$6,$7,$8,$9,$10,$11,$12,$1,$2,$13*%
%AMOutline7P*
0 Free polygon, 7 corners , with rotation*
0 The origin of the aperture is its center*
0 number of corners: always 7*
0 $1 to $14 corner X, Y*
0 $15 Rotation angle, in degrees counterclockwise*
0 create outline with 7 corners*
4,1,7,$1,$2,$3,$4,$5,$6,$7,$8,$9,$10,$11,$12,$13,$14,$1,$2,$15*%
%AMOutline8P*
0 Free polygon, 8 corners , with rotation*
0 The origin of the aperture is its center*
0 number of corners: always 8*
0 $1 to $16 corner X, Y*
0 $17 Rotation angle, in degrees counterclockwise*
0 create outline with 8 corners*
4,1,8,$1,$2,$3,$4,$5,$6,$7,$8,$9,$10,$11,$12,$13,$14,$15,$16,$1,$2,$17*%
G04 Aperture macros list end*
%ADD10RoundRect,0.200000X-0.200000X-0.275000X0.200000X-0.275000X0.200000X0.275000X-0.200000X0.275000X0*%
%ADD11RoundRect,0.150000X-0.587500X-0.150000X0.587500X-0.150000X0.587500X0.150000X-0.587500X0.150000X0*%
%ADD12RoundRect,0.140000X-0.140000X-0.170000X0.140000X-0.170000X0.140000X0.170000X-0.140000X0.170000X0*%
%ADD13RoundRect,0.250000X-0.250000X-0.475000X0.250000X-0.475000X0.250000X0.475000X-0.250000X0.475000X0*%
%ADD14RoundRect,0.218750X-0.218750X-0.256250X0.218750X-0.256250X0.218750X0.256250X-0.218750X0.256250X0*%
%ADD15RoundRect,0.140000X0.170000X-0.140000X0.170000X0.140000X-0.170000X0.140000X-0.170000X-0.140000X0*%
%ADD16RoundRect,0.150000X-0.512500X-0.150000X0.512500X-0.150000X0.512500X0.150000X-0.512500X0.150000X0*%
%ADD17RoundRect,0.150000X0.150000X-0.512500X0.150000X0.512500X-0.150000X0.512500X-0.150000X-0.512500X0*%
%ADD18RoundRect,0.150000X-0.150000X0.512500X-0.150000X-0.512500X0.150000X-0.512500X0.150000X0.512500X0*%
%ADD19RoundRect,0.150000X-0.625000X-0.150000X0.625000X-0.150000X0.625000X0.150000X-0.625000X0.150000X0*%
%ADD20R,2.300000X3.000000*%
%ADD21RoundRect,0.250000X-0.262500X-0.450000X0.262500X-0.450000X0.262500X0.450000X-0.262500X0.450000X0*%
%ADD22RoundRect,0.200000X0.275000X-0.200000X0.275000X0.200000X-0.275000X0.200000X-0.275000X-0.200000X0*%
%ADD23RoundRect,0.150000X0.700000X-0.150000X0.700000X0.150000X-0.700000X0.150000X-0.700000X-0.150000X0*%
%ADD24RoundRect,0.250000X1.100000X-0.250000X1.100000X0.250000X-1.100000X0.250000X-1.100000X-0.250000X0*%
%ADD25RoundRect,0.060000X-0.240000X-1.590000X0.240000X-1.590000X0.240000X1.590000X-0.240000X1.590000X0*%
%ADD26RoundRect,0.050000X-0.200000X-1.600000X0.200000X-1.600000X0.200000X1.600000X-0.200000X1.600000X0*%
%ADD27RoundRect,0.100000X-0.400000X-1.550000X0.400000X-1.550000X0.400000X1.550000X-0.400000X1.550000X0*%
%ADD28RoundRect,0.250000X-1.000000X-0.650000X1.000000X-0.650000X1.000000X0.650000X-1.000000X0.650000X0*%
%ADD29R,1.700000X1.000000*%
%ADD30RoundRect,0.225000X0.250000X-0.225000X0.250000X0.225000X-0.250000X0.225000X-0.250000X-0.225000X0*%
%ADD31RoundRect,0.250000X-0.250000X-0.250000X0.250000X-0.250000X0.250000X0.250000X-0.250000X0.250000X0*%
%ADD32RoundRect,0.225000X-0.225000X-0.250000X0.225000X-0.250000X0.225000X0.250000X-0.225000X0.250000X0*%
%ADD33RoundRect,0.250000X-0.250000X-1.500000X0.250000X-1.500000X0.250000X1.500000X-0.250000X1.500000X0*%
%ADD34RoundRect,0.250001X-0.499999X-1.449999X0.499999X-1.449999X0.499999X1.449999X-0.499999X1.449999X0*%
%ADD35RoundRect,0.097500X-0.792500X-0.390000X0.792500X-0.390000X0.792500X0.390000X-0.792500X0.390000X0*%
%ADD36RoundRect,0.090000X-0.425000X-0.360000X0.425000X-0.360000X0.425000X0.360000X-0.425000X0.360000X0*%
%ADD37RoundRect,0.150000X-0.150000X-0.575000X0.150000X-0.575000X0.150000X0.575000X-0.150000X0.575000X0*%
%ADD38RoundRect,0.075000X-0.075000X-0.650000X0.075000X-0.650000X0.075000X0.650000X-0.075000X0.650000X0*%
%ADD39RoundRect,0.250000X0.475000X-0.250000X0.475000X0.250000X-0.475000X0.250000X-0.475000X-0.250000X0*%
%ADD40R,0.800000X0.400000*%
%ADD41R,0.400000X0.800000*%
%ADD42Outline5P,-0.600000X0.204000X-0.204000X0.600000X0.600000X0.600000X0.600000X-0.600000X-0.600000X-0.600000X0.000000*%
%ADD43R,1.200000X1.200000*%
%ADD44R,0.800000X0.800000*%
%ADD45RoundRect,0.250000X-0.325000X-0.650000X0.325000X-0.650000X0.325000X0.650000X-0.325000X0.650000X0*%
%ADD46RoundRect,0.100000X0.100000X-0.637500X0.100000X0.637500X-0.100000X0.637500X-0.100000X-0.637500X0*%
G04 APERTURE END LIST*
D10*
%TO.C,R302*%
X32175000Y-23000000D03*
X33825000Y-23000000D03*
%TD*%
D11*
%TO.C,Q503*%
X92262500Y-23050000D03*
X92262500Y-24950000D03*
X94137500Y-24000000D03*
%TD*%
%TO.C,Q502*%
X83662500Y-23050000D03*
X83662500Y-24950000D03*
X85537500Y-24000000D03*
%TD*%
D12*
%TO.C,C501*%
X79820000Y-28800000D03*
X80780000Y-28800000D03*
%TD*%
D10*
%TO.C,R514*%
X61925000Y-26900000D03*
X63575000Y-26900000D03*
%TD*%
D13*
%TO.C,C202*%
X25300000Y-23750000D03*
X27200000Y-23750000D03*
%TD*%
D14*
%TO.C,D201*%
X15212500Y-25000000D03*
X16787500Y-25000000D03*
%TD*%
D15*
%TO.C,C406*%
X62750000Y-22230000D03*
X62750000Y-21270000D03*
%TD*%
D16*
%TO.C,U101*%
X17862500Y-33300000D03*
X17862500Y-34250000D03*
X17862500Y-35200000D03*
X20137500Y-35200000D03*
X20137500Y-34250000D03*
X20137500Y-33300000D03*
%TD*%
D17*
%TO.C,U401*%
X63850000Y-16137500D03*
X64800000Y-16137500D03*
X65750000Y-16137500D03*
X65750000Y-13862500D03*
X63850000Y-13862500D03*
%TD*%
D11*
%TO.C,Q504*%
X74062500Y-5050000D03*
X74062500Y-6950000D03*
X75937500Y-6000000D03*
%TD*%
D10*
%TO.C,R515*%
X66425000Y-26900000D03*
X68075000Y-26900000D03*
%TD*%
%TO.C,R105*%
X30175000Y-6250000D03*
X31825000Y-6250000D03*
%TD*%
D12*
%TO.C,C503*%
X97020000Y-28800000D03*
X97980000Y-28800000D03*
%TD*%
D11*
%TO.C,Q505*%
X66312500Y-23050000D03*
X66312500Y-24950000D03*
X68187500Y-24000000D03*
%TD*%
D18*
%TO.C,U402*%
X91650000Y-13862500D03*
X90700000Y-13862500D03*
X89750000Y-13862500D03*
X89750000Y-16137500D03*
X91650000Y-16137500D03*
%TD*%
D10*
%TO.C,R409*%
X36175000Y-23000000D03*
X37825000Y-23000000D03*
%TD*%
D19*
%TO.C,U102*%
X31300000Y-33095000D03*
X31300000Y-34365000D03*
X31300000Y-35635000D03*
X31300000Y-36905000D03*
X36700000Y-36905000D03*
X36700000Y-35635000D03*
X36700000Y-34365000D03*
X36700000Y-33095000D03*
D20*
X34000000Y-35000000D03*
%TD*%
D10*
%TO.C,R513*%
X88075000Y-2000000D03*
X89725000Y-2000000D03*
%TD*%
%TO.C,R107*%
X28175000Y-21000000D03*
X29825000Y-21000000D03*
%TD*%
D13*
%TO.C,C102*%
X22050000Y-33000000D03*
X23950000Y-33000000D03*
%TD*%
D10*
%TO.C,R402*%
X89925000Y-12000000D03*
X91575000Y-12000000D03*
%TD*%
%TO.C,R520*%
X40425000Y-27000000D03*
X42075000Y-27000000D03*
%TD*%
%TO.C,R305*%
X32175000Y-29000000D03*
X33825000Y-29000000D03*
%TD*%
%TO.C,R103*%
X24175000Y-8000000D03*
X25825000Y-8000000D03*
%TD*%
D21*
%TO.C,R509*%
X92287500Y-26900000D03*
X94112500Y-26900000D03*
%TD*%
D10*
%TO.C,R502*%
X88075000Y-26900000D03*
X89725000Y-26900000D03*
%TD*%
D13*
%TO.C,C104*%
X40300000Y-2250000D03*
X42200000Y-2250000D03*
%TD*%
D10*
%TO.C,R517*%
X61925000Y-28800000D03*
X63575000Y-28800000D03*
%TD*%
D12*
%TO.C,C504*%
X87020000Y-4500000D03*
X87980000Y-4500000D03*
%TD*%
%TO.C,C404*%
X64520000Y-6500000D03*
X65480000Y-6500000D03*
%TD*%
D22*
%TO.C,R406*%
X62750000Y-19825000D03*
X62750000Y-18175000D03*
%TD*%
D23*
%TO.C,J202*%
X46150000Y-23750000D03*
X46150000Y-22500000D03*
X46150000Y-21250000D03*
X46150000Y-20000000D03*
X46150000Y-18750000D03*
X46150000Y-17500000D03*
X46150000Y-16250000D03*
X46150000Y-15000000D03*
X46150000Y-13750000D03*
X46150000Y-12500000D03*
X46150000Y-11250000D03*
X46150000Y-10000000D03*
X46150000Y-8750000D03*
X46150000Y-7500000D03*
X46150000Y-6250000D03*
D24*
X49350000Y-25600000D03*
X49350000Y-4400000D03*
%TD*%
D10*
%TO.C,R401*%
X64175000Y-12000000D03*
X65825000Y-12000000D03*
%TD*%
D25*
%TO.C,D502*%
X74500000Y-11000000D03*
D26*
X77150000Y-11000000D03*
D27*
X75900000Y-11000000D03*
%TD*%
D12*
%TO.C,C410*%
X40770000Y-25000000D03*
X41730000Y-25000000D03*
%TD*%
%TO.C,C502*%
X88420000Y-28800000D03*
X89380000Y-28800000D03*
%TD*%
D28*
%TO.C,D101*%
X29000000Y-9000000D03*
X33000000Y-9000000D03*
%TD*%
D29*
%TO.C,SW201*%
X5850000Y-24100000D03*
X12150000Y-24100000D03*
X5850000Y-27900000D03*
X12150000Y-27900000D03*
%TD*%
D10*
%TO.C,R303*%
X32175000Y-25000000D03*
X33825000Y-25000000D03*
%TD*%
D30*
%TO.C,C107*%
X21250000Y-18775000D03*
X21250000Y-17225000D03*
%TD*%
D31*
%TO.C,D401*%
X67450000Y-12900000D03*
X70550000Y-12900000D03*
X70550000Y-17100000D03*
X67450000Y-17100000D03*
%TD*%
D10*
%TO.C,R519*%
X70425000Y-28800000D03*
X72075000Y-28800000D03*
%TD*%
D16*
%TO.C,U404*%
X79162500Y-23050000D03*
X79162500Y-24000000D03*
X79162500Y-24950000D03*
X81437500Y-24950000D03*
X81437500Y-23050000D03*
%TD*%
D10*
%TO.C,R110*%
X20425000Y-10500000D03*
X22075000Y-10500000D03*
%TD*%
%TO.C,R505*%
X83775000Y-28800000D03*
X85425000Y-28800000D03*
%TD*%
D32*
%TO.C,C203*%
X29225000Y-25000000D03*
X30775000Y-25000000D03*
%TD*%
D10*
%TO.C,R410*%
X36175000Y-25000000D03*
X37825000Y-25000000D03*
%TD*%
%TO.C,R412*%
X36175000Y-29000000D03*
X37825000Y-29000000D03*
%TD*%
%TO.C,R202*%
X15175000Y-22000000D03*
X16825000Y-22000000D03*
%TD*%
%TO.C,R408*%
X93675000Y-17000000D03*
X95325000Y-17000000D03*
%TD*%
%TO.C,R108*%
X25675000Y-26000000D03*
X27325000Y-26000000D03*
%TD*%
%TO.C,R104*%
X31175000Y-31000000D03*
X32825000Y-31000000D03*
%TD*%
D33*
%TO.C,J102*%
X43000000Y-31400000D03*
X45000000Y-31400000D03*
D34*
X40650000Y-37150000D03*
X47350000Y-37150000D03*
%TD*%
D10*
%TO.C,R403*%
X68675000Y-2000000D03*
X70325000Y-2000000D03*
%TD*%
%TO.C,R102*%
X20425000Y-30000000D03*
X22075000Y-30000000D03*
%TD*%
D12*
%TO.C,C101*%
X22520000Y-36000000D03*
X23480000Y-36000000D03*
%TD*%
D10*
%TO.C,R106*%
X45175000Y-2250000D03*
X46825000Y-2250000D03*
%TD*%
%TO.C,R404*%
X68675000Y-4500000D03*
X70325000Y-4500000D03*
%TD*%
D12*
%TO.C,C408*%
X97020000Y-17000000D03*
X97980000Y-17000000D03*
%TD*%
D32*
%TO.C,C201*%
X1225000Y-25000000D03*
X2775000Y-25000000D03*
%TD*%
D12*
%TO.C,C402*%
X90270000Y-18000000D03*
X91230000Y-18000000D03*
%TD*%
D15*
%TO.C,C405*%
X62750000Y-8980000D03*
X62750000Y-8020000D03*
%TD*%
D22*
%TO.C,R405*%
X62750000Y-11825000D03*
X62750000Y-10175000D03*
%TD*%
D16*
%TO.C,U406*%
X96362500Y-23050000D03*
X96362500Y-24000000D03*
X96362500Y-24950000D03*
X98637500Y-24950000D03*
X98637500Y-23050000D03*
%TD*%
D10*
%TO.C,R516*%
X70425000Y-26900000D03*
X72075000Y-26900000D03*
%TD*%
D11*
%TO.C,Q103*%
X40312500Y-5300000D03*
X40312500Y-7200000D03*
X42187500Y-6250000D03*
%TD*%
D35*
%TO.C,D501*%
X74465000Y-15687500D03*
D36*
X76270000Y-15650000D03*
D35*
X74465000Y-14312500D03*
D36*
X76270000Y-14350000D03*
%TD*%
D21*
%TO.C,R507*%
X75087500Y-26900000D03*
X76912500Y-26900000D03*
%TD*%
D30*
%TO.C,C105*%
X21250000Y-14775000D03*
X21250000Y-13225000D03*
%TD*%
D16*
%TO.C,U103*%
X23862500Y-13050000D03*
X23862500Y-14000000D03*
X23862500Y-14950000D03*
X26137500Y-14950000D03*
X26137500Y-13050000D03*
%TD*%
D37*
%TO.C,J101*%
X7750000Y-31455000D03*
X8550000Y-31455000D03*
D38*
X9750000Y-31455000D03*
X10750000Y-31455000D03*
X11250000Y-31455000D03*
X12250000Y-31455000D03*
D37*
X13450000Y-31455000D03*
X14250000Y-31455000D03*
X14250000Y-31455000D03*
X13450000Y-31455000D03*
D38*
X12750000Y-31455000D03*
X11750000Y-31455000D03*
X10250000Y-31455000D03*
X9250000Y-31455000D03*
D37*
X8550000Y-31455000D03*
X7750000Y-31455000D03*
%TD*%
D16*
%TO.C,U403*%
X63862500Y-1050000D03*
X63862500Y-2000000D03*
X63862500Y-2950000D03*
X66137500Y-2950000D03*
X66137500Y-1050000D03*
%TD*%
%TO.C,U405*%
X87762500Y-23050000D03*
X87762500Y-24000000D03*
X87762500Y-24950000D03*
X90037500Y-24950000D03*
X90037500Y-23050000D03*
%TD*%
D13*
%TO.C,C103*%
X34800000Y-31000000D03*
X36700000Y-31000000D03*
%TD*%
D10*
%TO.C,R301*%
X41675000Y-21000000D03*
X43325000Y-21000000D03*
%TD*%
%TO.C,R407*%
X93675000Y-13000000D03*
X95325000Y-13000000D03*
%TD*%
D12*
%TO.C,C409*%
X40770000Y-23000000D03*
X41730000Y-23000000D03*
%TD*%
D39*
%TO.C,C108*%
X29000000Y-18950000D03*
X29000000Y-17050000D03*
%TD*%
D21*
%TO.C,R508*%
X83687500Y-26900000D03*
X85512500Y-26900000D03*
%TD*%
D12*
%TO.C,C401*%
X64520000Y-18000000D03*
X65480000Y-18000000D03*
%TD*%
%TO.C,C407*%
X97020000Y-13000000D03*
X97980000Y-13000000D03*
%TD*%
D32*
%TO.C,C304*%
X41725000Y-19000000D03*
X43275000Y-19000000D03*
%TD*%
D10*
%TO.C,R101*%
X17175000Y-30000000D03*
X18825000Y-30000000D03*
%TD*%
D16*
%TO.C,U104*%
X23862500Y-17050000D03*
X23862500Y-18000000D03*
X23862500Y-18950000D03*
X26137500Y-18950000D03*
X26137500Y-17050000D03*
%TD*%
D23*
%TO.C,J401*%
X55650000Y-23750000D03*
X55650000Y-22500000D03*
X55650000Y-21250000D03*
X55650000Y-20000000D03*
X55650000Y-18750000D03*
X55650000Y-17500000D03*
X55650000Y-16250000D03*
X55650000Y-15000000D03*
X55650000Y-13750000D03*
X55650000Y-12500000D03*
X55650000Y-11250000D03*
X55650000Y-10000000D03*
X55650000Y-8750000D03*
X55650000Y-7500000D03*
X55650000Y-6250000D03*
D24*
X58850000Y-25600000D03*
X58850000Y-4400000D03*
%TD*%
D10*
%TO.C,R411*%
X36175000Y-27000000D03*
X37825000Y-27000000D03*
%TD*%
%TO.C,R203*%
X1675000Y-27000000D03*
X3325000Y-27000000D03*
%TD*%
D32*
%TO.C,C303*%
X41725000Y-17000000D03*
X43275000Y-17000000D03*
%TD*%
D10*
%TO.C,R109*%
X20425000Y-8000000D03*
X22075000Y-8000000D03*
%TD*%
D11*
%TO.C,Q104*%
X21062500Y-22550000D03*
X21062500Y-24450000D03*
X22937500Y-23500000D03*
%TD*%
D31*
%TO.C,D402*%
X84960000Y-12900000D03*
X88060000Y-12900000D03*
X88060000Y-17100000D03*
X84960000Y-17100000D03*
%TD*%
D13*
%TO.C,C403*%
X65550000Y-8500000D03*
X67450000Y-8500000D03*
%TD*%
D39*
%TO.C,C106*%
X29000000Y-14950000D03*
X29000000Y-13050000D03*
%TD*%
D10*
%TO.C,R518*%
X66425000Y-28800000D03*
X68075000Y-28800000D03*
%TD*%
D11*
%TO.C,Q102*%
X35562500Y-5300000D03*
X35562500Y-7200000D03*
X37437500Y-6250000D03*
%TD*%
D12*
%TO.C,C302*%
X42020000Y-15000000D03*
X42980000Y-15000000D03*
%TD*%
D11*
%TO.C,Q506*%
X70312500Y-23050000D03*
X70312500Y-24950000D03*
X72187500Y-24000000D03*
%TD*%
D12*
%TO.C,C111*%
X40770000Y-10500000D03*
X41730000Y-10500000D03*
%TD*%
D40*
%TO.C,U201*%
X4000000Y-7100000D03*
X4000000Y-7950000D03*
X4000000Y-8800000D03*
X4000000Y-9650000D03*
X4000000Y-10500000D03*
X4000000Y-11350000D03*
X4000000Y-12200000D03*
X4000000Y-13050000D03*
X4000000Y-13900000D03*
X4000000Y-14750000D03*
X4000000Y-15600000D03*
X4000000Y-16450000D03*
X4000000Y-17300000D03*
X4000000Y-18150000D03*
X4000000Y-19000000D03*
D41*
X5050000Y-20050000D03*
X5900000Y-20050000D03*
X6750000Y-20050000D03*
X7600000Y-20050000D03*
X8450000Y-20050000D03*
X9300000Y-20050000D03*
X10150000Y-20050000D03*
X11000000Y-20050000D03*
X11850000Y-20050000D03*
X12700000Y-20050000D03*
X13550000Y-20050000D03*
X14400000Y-20050000D03*
X15250000Y-20050000D03*
X16100000Y-20050000D03*
X16950000Y-20050000D03*
D40*
X18000000Y-19000000D03*
X18000000Y-18150000D03*
X18000000Y-17300000D03*
X18000000Y-16450000D03*
X18000000Y-15600000D03*
X18000000Y-14750000D03*
X18000000Y-13900000D03*
X18000000Y-13050000D03*
X18000000Y-12200000D03*
X18000000Y-11350000D03*
X18000000Y-10500000D03*
X18000000Y-9650000D03*
X18000000Y-8800000D03*
X18000000Y-7950000D03*
X18000000Y-7100000D03*
D41*
X16950000Y-6050000D03*
X16100000Y-6050000D03*
X15250000Y-6050000D03*
X14400000Y-6050000D03*
X13550000Y-6050000D03*
X12700000Y-6050000D03*
X11850000Y-6050000D03*
X11000000Y-6050000D03*
X10150000Y-6050000D03*
X9300000Y-6050000D03*
X8450000Y-6050000D03*
X7600000Y-6050000D03*
X6750000Y-6050000D03*
X5900000Y-6050000D03*
X5050000Y-6050000D03*
D42*
X9350000Y-11400000D03*
D43*
X9350000Y-13050000D03*
X9350000Y-14700000D03*
X11000000Y-11400000D03*
X11000000Y-13050000D03*
X11000000Y-14700000D03*
X12650000Y-11400000D03*
X12650000Y-13050000D03*
X12650000Y-14700000D03*
D44*
X4000000Y-6050000D03*
X4000000Y-20050000D03*
X18000000Y-20050000D03*
X18000000Y-6050000D03*
%TD*%
D32*
%TO.C,C110*%
X74725000Y-17500000D03*
X76275000Y-17500000D03*
%TD*%
D45*
%TO.C,C109*%
X74025000Y-19800000D03*
X76975000Y-19800000D03*
%TD*%
D11*
%TO.C,Q101*%
X35562500Y-1300000D03*
X35562500Y-3200000D03*
X37437500Y-2250000D03*
%TD*%
D10*
%TO.C,R501*%
X79475000Y-26900000D03*
X81125000Y-26900000D03*
%TD*%
%TO.C,R506*%
X92375000Y-28800000D03*
X94025000Y-28800000D03*
%TD*%
D46*
%TO.C,U301*%
X32825000Y-18862500D03*
X33475000Y-18862500D03*
X34125000Y-18862500D03*
X34775000Y-18862500D03*
X35425000Y-18862500D03*
X36075000Y-18862500D03*
X36725000Y-18862500D03*
X37375000Y-18862500D03*
X38025000Y-18862500D03*
X38675000Y-18862500D03*
X38675000Y-13137500D03*
X38025000Y-13137500D03*
X37375000Y-13137500D03*
X36725000Y-13137500D03*
X36075000Y-13137500D03*
X35425000Y-13137500D03*
X34775000Y-13137500D03*
X34125000Y-13137500D03*
X33475000Y-13137500D03*
X32825000Y-13137500D03*
%TD*%
D10*
%TO.C,R504*%
X75175000Y-28800000D03*
X76825000Y-28800000D03*
%TD*%
D12*
%TO.C,C204*%
X29520000Y-27000000D03*
X30480000Y-27000000D03*
%TD*%
D10*
%TO.C,R304*%
X32175000Y-27000000D03*
X33825000Y-27000000D03*
%TD*%
%TO.C,R503*%
X96675000Y-26900000D03*
X98325000Y-26900000D03*
%TD*%
%TO.C,R413*%
X70425000Y-7500000D03*
X72075000Y-7500000D03*
%TD*%
D32*
%TO.C,C301*%
X41725000Y-13000000D03*
X43275000Y-13000000D03*
%TD*%
D11*
%TO.C,Q501*%
X75062500Y-23050000D03*
X75062500Y-24950000D03*
X76937500Y-24000000D03*
%TD*%
D10*
%TO.C,R201*%
X1175000Y-22000000D03*
X2825000Y-22000000D03*
%TD*%
%TO.C,R510*%
X84675000Y-2000000D03*
X86325000Y-2000000D03*
%TD*%
%TO.C,RT401*%
X79475000Y-7500000D03*
X81125000Y-7500000D03*
%TD*%
M02*
